<?xml version="1.0" encoding="utf-8"?>
<!-- Generator: Adobe Illustrator 19.1.0, SVG Export Plug-In . SVG Version: 6.00 Build 0)  -->
<svg version="1.1" id="Layer_1" xmlns="http://www.w3.org/2000/svg" xmlns:xlink="http://www.w3.org/1999/xlink" x="0px" y="0px"
	 viewBox="0 0 1280 800" style="enable-background:new 0 0 1280 800;" xml:space="preserve">
<style type="text/css">
	.st0{stroke:#000000;stroke-width:3.5433;}
</style>
<g>
	<path id="path3647" class="st0" d="M559,390.9c0,0-1.5-0.9-1.5-1.8c0-0.8,0.2-1.5,0.2-1.5l-1.6,0.1l2.7-17.7l2.5,0.4l0.2-2.9
		l-2-0.6l0.2-2l1.8,0.6l0.2-1.9l-2.1-0.1l0.5-3l2,0.2v-1.1h-1.8v-0.7h1.1l-0.5-1.4l-0.9-0.4l1.1-5.9h0.7l0.7-1.8l-1.1-0.6l1.1-2.8
		l1.3,0.4l0.6-1.5l-1.2-0.2l0.4-0.7l-0.7-0.2l2.3-2.9l1.1,0.6l0.5-0.7l-1.4-0.6l3.3-6.6l1.5,0.7l0.4-0.7l-1.4-0.7l1.8-3.2l1.4,0.6
		l0.6-1.1h-0.9l1.9-3.2h0.9l0.1-0.5h-1.5l0.4-0.7h1.4l15.9-29.7l0.8-1.8l-0.6-0.5l2.3-3.2l0.7,0.4c0,0,2.6-3.3,2.7-4s3-7.5,3-7.5
		s2.3-6.9,2.3-7.4c0-0.5-0.7-4.3-0.6-4.8s1.2-0.9,1.5-1.4s7.3-12.3,7.3-12.3l-0.2-0.2l1.1-1.6l-0.5-0.5l0.7-3.3l1.6-2.6l1.8-0.9
		l2,0.4c0,0,0.8,0.6,0.8,1.2s0.9,0.4,2,0.8c1.1,0.5,2.7,1.1,3.5,1.3c0.8,0.2,0.9,1.1,0.8,2.3c-0.1,1.3-1.1,3.9-2.1,5
		c-1.1,1.2-2.7,3.9-3.6,5.2c-0.9,1.3-3,5.4-3.7,6.6c-0.7,1.2-3.9,8.8-4.2,9.5s-1.3,3.4-1.3,4.3s0.4,7,0.5,7.7s0.5,5.7,0.5,6.9
		c0,1.2-0.4,3.3-0.4,4.3c0,1.1,0.1,2.1,1.1,3.5c0.9,1.4,2,3,2,4.2s0.7,4,0.1,4.8c-0.6,0.8-2.6,2.2-3.4,3c-0.8,0.8-2,3.4-2,4
		s-1.4,1.9-2.6,2.9c-1.2,1.1-1.4,1.9-0.8,3.2c0.6,1.3,1.2,3.4,0.7,3.9c-0.5,0.5-5.5,7.3-5.9,8.1c-0.4,0.8-3.5,5.2-4.7,6.6
		s-2.6,4-4.1,6.1c-1.5,2.1-2.9,4.9-3.5,6.2c-0.6,1.3-0.5,4.7-0.5,5.2c0,0.5,0,1.3,0,1.3l-0.8-0.5l-0.1,3.3c0,0,1.8,1.5,1.8,2.3
		s-1.1,8.5-1.5,9.5c-0.5,0.9-1.3,4.9-2.2,5.2c-0.9,0.2-2.1,0.8-2.1,0.8v0.5l-6.6,1.1l-0.1-0.9l-4.2,0.6l-2.5,1.8l0.9,1.1l-4,4
		l-1.3-0.9l-0.8,0.5l0.5,1.4H562l-0.6-1.1c0,0-0.5,0.4-1.1,0.5C559.8,391.1,559.2,391.1,559,390.9z"/>
	<path id="path5419" class="st0" d="M555.2,397c0,0,0,1.2-0.7,1.7c-0.7,0.5-2.5,2.5-2.8,3.1s-0.7,1.7-0.5,2.2s1,1.2,1.7,1.2
		c0.7,0,4.3-3.2,4.8-3.2c0.5,0,1.1,0.3,1.7-0.3c0.6-0.7,0.6-1,0.9-1.3c0.3-0.3,0.2-1.2-0.2-1.8c-0.5-0.6-0.5-1.1-1.4-1.3
		c-0.9-0.2-2.1-0.2-2.5-0.2C555.8,396.9,555.1,397.2,555.2,397z"/>
	<path id="path5421" class="st0" d="M540.6,401.6c0,0,1.1,0,0.7-0.9c-0.4-0.9-1.3-1.4-2-1.4c-0.7,0-0.8,0.5-0.5,0.9s0.5,1,0.9,1.2
		C540.1,401.7,540.7,401.8,540.6,401.6z"/>
	<path id="path6308" class="st0" d="M542.2,394.8l1.2-1.4h1l0.2-1.1l-1.8-1.4l-2.3,2.6L542.2,394.8z"/>
	<path id="path7195" class="st0" d="M592.6,350.5c0,0,1.2-1.9,1.7-2.2c0.6-0.2,1.8-2.1,2.2-2.6c0.3-0.5,1.6-1.8,1.9-2.3
		c0.3-0.5-0.1-0.6,0.9-1.6c1-1,4.5-6,4.6-6.7c0.2-0.7,1-0.9,1.3-1.7s0.8-1.2,0.8-2.2c0-0.9,0.3-1.9-0.3-1.3
		c-0.7,0.6-1.8,1.2-2.3,1.9c-0.5,0.7-0.5,1.7-0.8,2.2c-0.3,0.4-1.6,1.7-1.7,2.3c-0.2,0.6-1.8,2.4-2.1,2.9c-0.2,0.5-0.9,1.2-0.9,1.5
		c0,0.3-1.5,2.3-1.9,3s-2.2,2.9-2.2,3.4c0,0.5-1.3,2.6-1.3,2.6L592.6,350.5z"/>
	<path id="path8082" class="st0" d="M613.1,323.7c0,0,0.7,0.7,1.2,0.2c0.5-0.5,1.1-0.9,1.7-1.1s1.4-0.5,1.4-1.1
		c0-0.6,1.2-4.1,1.7-4.7c0.5-0.7,3.1-2.5,3.1-3.2s-0.9-3.2-1.3-3.6c-0.4-0.3-2.6-2.4-3.1-2.9c-0.6-0.5-0.5-1-1.2-1
		c-0.7,0-1.2-0.1-1.5,0.3s-0.9,1.9-0.9,2.6c0,0.7,0.2,1.2,0.2,2.1c0,0.8-0.6,2.1-1.2,3c-0.7,0.9-2.1,2.3-2.5,2.9
		c-0.4,0.6-1.4,2.4-1.7,3c-0.3,0.6-0.4,2,0.3,2.2c0.7,0.2,1.8,0.5,2.3,0.6C612.1,323,613,323.8,613.1,323.7z"/>
	<path id="path8969" class="st0" d="M624,212.4c0,0-1.2,4.1-1.2,5.6c0,1.5-1.3,3.6-1.5,4.6c-0.2,1-1.5,5.3-1.7,6.5
		c-0.2,1.2-1.8,7.1-2.2,7.9c-0.3,0.8-1.8,5.3-1.8,5.3s1,0,1.3,0.2c0.3,0.2,0.8,1.4,2,2s2,0.7,2.7,0.8c0.7,0.1,2.9,0.7,3.4,1.8
		c0.5,1.1,0.2,2.4,0.2,3.1c0,0.7-0.7,3.1-2.2,4.9c-1.4,1.8-3.4,4.6-3.9,5.4c-0.5,0.7-1.4,3.1-1.8,3.6c-0.4,0.5-2.1,3.3-2.8,4.6
		c-0.7,1.2-2.1,4.6-2.4,5.5c-0.3,0.9-1.8,4.1-2,5.2c-0.2,1.2,0.2,4,0.3,5.3c0.1,1.3,0.6,5.7,0.5,6.8s-0.1,5.5,0,6
		c0.1,0.6,0.1,2.8,0.2,3.4c0.2,0.6,1.1,2.6,1.5,3.1c0.4,0.5,1.2,2.1,1.7,2.2c0.4,0.2,1.7,0,1.7,0s0.6-0.1,0.9,0.2s1.4,1.4,1.4,1.4
		l2.3,2.2c0,0,1,0.7,1.9,0.7c0.9,0,0.9,0,0.9,0s0,0.2,1.2-0.6s2.2-2.6,2.7-3.4c0.5-0.7,0.9-2.7,1.6-2.7s1.3-0.1,1.3-0.7
		s0.7-0.7,2-0.7c1.3,0,2.5,0,3.6,0c1.1,0,1.9,0,2.3,0.8c0.4,0.8,1.9,3,2.2,3.1s1.5-0.8,2.2-0.8s3.5,0.3,3.5,0.3l0.2,0.5l0.7,0.2v0.8
		c0,0,1.7-0.2,2-0.7c0.3-0.5,2.3-4.3,2.3-4.3l-1.8-5l-0.7-1.1l-4.1-1.7l-1.5-1.6l0.6-0.7l1.6,1.5l4.2,1.7l2.2,3.4l3.1,0.3l0.7-0.5
		h1.6l0.4,1.8l-0.2,1.8l1.5,3.4l5.8-1.3l-0.6-2l0.1-1.1l-1.5-0.8v-0.8l0.9-2l-1.8-1.3l-0.8,0.1l-1.9-0.7l-0.1-1l0.3-0.6l0.4,1.2
		l1.3,0.7l1.1-0.2l2.1,1.6l0.5,1.8h0.6l0.1-1.1c0,0,0.5-0.7,0.7-1.2c0.2-0.6,0.1-2.2,0.7-2.5s0.8-0.1,1-0.8c0.2-0.7,0.2-1.6,0.6-1.7
		c0.4-0.2,0.6-0.7,0.6-0.7l-1.4-6.9l2.7,5.4c0,0-1.2,3.6-1.2,3.9c0.1,0.3,0.3,1.3,0.1,2.3s-0.2,2.3-0.2,2.3l1.5,4.4l3.6,0.6l0.7-4.6
		l3.2-0.1c0,0,1.7-1.1,2.2-1.2c0.5-0.2,3.4-0.9,3.4-0.9l4.4,0.8l3.4,3.4l1.6-0.2l2.6,2.2c0,0,1.3-0.1,2.2,0.7s1.6,1.5,2.2,1.1
		s0.8-1.5,0.4-2c-0.4-0.5-4.6-3-5-3s-1.2-0.2-1.7-0.2c-0.5,0-1.2-1.2-1.5-1.4c-0.3-0.2-0.7-0.7-0.8-1.4c-0.2-0.7-1-2.2-1-2.2
		l1.9,1.9c0,0,0,1.3,0.6,1.2c0.6-0.2,1.7-1.5,1.7-1.5s0.2-0.7,0.8-0.8c0.6-0.1,1.1-0.6,0.5-0.8c-0.6-0.2-2.6-1.6-2.6-1.6l-1.1,0.2
		l-1.4-1.7l-0.9-4.3l-0.6-0.3l-1.8,1.1l-1.6,0.4l-0.2-1.9l0.7-1.1l-1.5-2.8l-0.6-3.1l-0.1-3.3l1.1-0.2l-0.7-2.7l-1.1-1.1l0.9-0.4
		l0.9,0.7l-0.1-1.8l-0.7-0.6c0,0-0.4-0.8-0.3-1.5s0.4-0.9,0.4-0.9s0-1.7-0.3-1.7c-0.3,0-0.8-0.4-0.7-1.1s0.4-1.4,0.4-1.4l-1.7-2.6
		l2.5-1.1l0.1-2.2l-2-0.1l-1.2-2.2l-0.2-3.6l-1.2-0.8l-1.2-4.3c0,0,1.9-6,2.1-6.9c0.2-0.8-0.1-2.6-0.1-2.6l0.9-0.2l0.2,1.4
		c0,0-0.3,4-0.4,4.5c-0.1,0.5-1,1.2-1,1.2l0.2,0.7l-0.3,1.2l0.3,0.9l-0.6,0.9l0.2,2.2l1.5,1.2l0.9,0.9c0,0-0.2-1,0.3-1.4
		s1-0.7,1-0.7l0.2,1.7l0.5,0.1l-1.3,2.2l-0.1,1.2l1.2-0.5v1.3l0.7-0.7l1.7,1.1l2.3,3.7l0.2-1.9l1.1-0.4l0.5,0.1l-0.5,5.2l0.6,0.1
		l0.1,1l-0.4,0.2l2.4,2.5l0.9,2.1c0,0,0.2-1.6,0.7-2c0.5-0.4,0.9-0.7,0.9-1.2c0-0.5-0.8-1.7-0.6-2.2c0.2-0.5,1-1.5,1.3-1.7
		c0.3-0.2,1.2-0.7,1.2-0.7l0.4-1.9c0,0,1.3-1.2,1.3-1.6c0-0.3,0.7-5.7,0.7-5.7s1.7-0.4,2.6-1s1.7-1.2,1.7-1.6c0-0.4,0.4-0.9-0.1-1.3
		c-0.5-0.4-1.2-0.3-1.6-0.3s-0.8-0.3-0.8-0.3s1.7-2.8,1.7-3.4s-0.6-1.7-1.2-1.7c-0.7,0-2.1,0-2.1,0l0.4-1.4l-1.3,0.3l-0.1,0.6
		l-1.2,0.5l-0.7,1.4l0.6,0.7l-0.7,3.2l-1.6,0.6l-2.9,5.7h-0.6l-0.2-1.3l-1.1,0.2v-1.2l-2.7-2.2l3.2,1.9l0.6-0.2l0.4-1.2l1.2-1.6
		l-0.4-0.3l1.6-1.4h0.9l0.2-1.5l0.9-2.2l-0.2-1.3h0.7l1.2-2.3l-19-6.3v1.1l-9.8-3.6l-0.7-2.8l0.3-1.7c0,0-0.7-1.1-1-2.1
		s-0.6-1.7-0.6-1.7h-2l-0.2-1.1l-3.2-1.6l-0.5,0.7l-1.2-1l1.2-1.9l-1.2-0.1l-0.7,1l-0.5,0.8l0.6,0.7c0,0-0.7,0.8-1.3,0.9
		s-0.6,1.2-0.6,1.2v1.1l-1,1.1l-0.5,0.2v1l-1.7-0.4L624,212.4z"/>
	<path id="path9856" class="st0" d="M637.4,309.7l-1.2,6.5h1l1.1,2.6l6.3,1.2l3.6-0.2l1.6-0.7c0,0-0.3-1.2-0.2-1.5
		c0.1-0.3-1.9-3-1.9-3l-1.2,0.8v-1.7l-1.9-1.3l-3.2-0.7l-2.3-2.2l-0.7,0.5L637.4,309.7z"/>
	<path id="path10743" class="st0" d="M631.1,308.8h1.3l1-1.4l-1.2-1.2l-0.7,0.5L631.1,308.8z"/>
	<path id="path11630" class="st0" d="M699,261.1l-0.5,0.2l2.2,3.9l-0.2,0.9l-0.2,1.1c0,0-0.7,1.3-0.7,1.7s1.3,1.9,1.5,2.2
		c0.2,0.3-0.4,1.2,0.2,1.4s1,1.2,1,1.6s0.9,0.7,1.1,1.3c0.2,0.7,0,1,0.6,1.6s0.8,0.7,1.2,0.1c0.4-0.6,1.2-1.1,1-2
		c-0.2-0.9,0.2-2.2-0.6-2.6c-0.7-0.4-0.7-1.2-0.5-1.7c0.2-0.5,1.1-0.8,0.7-1.4c-0.4-0.6-1.2-2.7-1.2-3.5s-0.8-0.4-1.2-0.7
		c-0.4-0.3-1.4-2.3-1.6-3c-0.2-0.7-0.5-1.9-0.5-2.6c0-0.7-0.2-0.7-0.6-0.7s-0.6,0.5-0.6,0.5l-0.6,0.2l-0.2,0.7L699,261.1z"/>
	<path id="path12517" class="st0" d="M711.8,268.6l1.9,2h1.1l-0.5-1.1l-0.8-1.1l0.4-2.2l0.1-2.7l0.6-0.9l1.7-0.3l-3.8-4.6l-1.1,0.4
		v5.9l-0.2,0.6l1,2.1L711.8,268.6z"/>
	<path id="path14309" class="st0" d="M592.2,361.2l0.7-4.9c0,0-0.1-1.2,0.2-1.7c0.3-0.4,2.3-3.9,2.6-4.3s4.6-6.4,5-6.9
		c0.3-0.5,3.6-5.9,4-6.5c0.4-0.6,1.1-1.7,1.8-2.1c0.7-0.4,1.8-1.1,2.2-1.4c0.3-0.3,0.8-1.6,0.8-1.6l-1.9-0.8c0,0-0.5-1.2-0.2-1.7
		c0.3-0.5,1.2-1.4,1.7-2.2c0.4-0.7,0.7-1.6,0.7-1.6l2.2,1.1v0.9c0,0,1.2,0.2,1.5,0c0.3-0.2,0.4-0.2,0.4-0.2s1-0.7,1.4-1.1
		c0.4-0.3,0.8-0.7,1.2-0.9c0.4-0.2,3.6-4.1,3.6-4.1s1.7-2.2,1.9-2.5c0.2-0.3,0.2-0.5,0.7-0.8c0.5-0.3,2.8-2.3,2.8-2.3l2.4,0.7
		l-0.2,0.5l1.7,1.9l0.5-1l-0.4-0.2l1-0.7l3.1,2.5h0.7l0.8,1.2l-1.5,1.6l1.2,0.8l-0.4,0.7c0,0,1.6,1,1.7,1.3c0.2,0.3,1.7,1.5,1.7,1.5
		l-0.7,1.2l-0.1,1.1l0.9,0.2l-0.4,1.7l0.7,0.2l0.6-0.6l3.3-0.3l-0.7-4.8l7-1.1c0,0,0.7,0.2,1.5,0.7s9.5,6.4,9.5,6.4s0.6,0.2,0.1,0.8
		c-0.5,0.6-1.2,1.8-1.2,1.8l2,0.9l0.2,1.2c0,0-0.9-1-1.5-1c-0.6,0-1.1-0.1-1.7,0.2c-0.7,0.2-1.1,0.2-1.7,0.2c-0.7,0-0.8,0-0.8,0
		s2.1,3.4,2.6,3.9c0.6,0.5,2.1,2.1,2.7,2.3c0.7,0.2,2.2,0.2,2.5,0.4s1.1,0,1.4-0.2s1.2,0,1.7-0.6c0.6-0.6,1.3-1.7,1.6-2
		c0.2-0.3,0.5-0.6,1.2-1.2c0.7-0.7,1.2-1.1,1.2-1.1s-2.8,0.5-3.5-0.1c-0.7-0.6-1.1-0.7-1.4-0.9c-0.3-0.2-1.2-2.1-1.2-2.1l-0.1-1.7
		l-0.4-0.8h0.7l0.3-0.7l-0.2-0.7c0,0,0.5-1.2,0.7-1.9c0.2-0.7,0-1.1,0-1.1l-0.7-0.2l-0.3-1v-2.3h-3.6l-0.1-0.6l-1.3-0.5l0.1-0.8
		l-0.9-0.8l1.5-0.5l0.9-0.7l0.7,0.1l0.9-0.8l0.5-1.6h-0.8l-0.2-0.7c0,0,0.8,0,0.5-0.6s-0.3-0.4-0.3-1.1c0-0.7-0.1-1.2-0.1-1.2
		l0.8-0.4c0,0,1.5,1.2,2,1.2c0.5,0,1.2-0.2,1.2-0.2l-0.2-0.8l2.8-0.7l0.1,0.7l0.9-0.2c0,0,0-1.3,0.4-1.7c0.4-0.3,0.8-0.3,0.8-0.3
		s0.6-0.1,0.9,0.6c0.3,0.7,0.8,3.1,0.8,3.1s0.3,0.6-0.1,0.7c-0.4,0.2-0.4,0.2-0.4,0.2l0.5,1.7c0,0,0.2-0.3,0.9,0.1
		c0.7,0.4,1,0.5,1,0.5l1.1-0.3v-0.9l0.9-1.3l0.5,0.1l1-0.7l0.2-1.9l-1.1-1.4l1.8-0.3v-0.5c0,0,1.4,0.4,1.7-0.1
		c0.3-0.5,1.1-1.6,1.1-1.6l1.5-1.2l4.3,3.2l0.5-0.6h0.6l1.4,1.2l0.7-0.4l1.5,0.3l0.2,0.3l1.2-0.6l0.4,0.3c0,0,1.9,0.2,2.9,0.4
		c1,0.2,2.2,0.8,2.2,1.3c0.1,0.5-0.4,2.2-0.4,2.2l1.7,1.1c0,0,6-0.2,6.4-0.2c0.3,0,0.9-0.8,1-1.4s0.2-1.8-0.2-1.9
		c-0.4-0.1-0.7-0.4-0.7-0.4s0.3-0.7,1-1c0.7-0.3,1.7-0.3,2.1-0.3c0.3,0,2,1.1,2,1.5s0.3,1.2,0.5,1.5s0.7,0.8,0.8,1.6
		c0.1,0.7,0.6,1.6,0.9,1.8s0.2,1.2,0.2,1.2l-0.9,0.1l-1.5,0.5l4.5,6.2l1.7,5l3.7,4.6l2.7,1.2l-0.7-3.3l-0.4-1.1l1.6-1.1l-1.2-3.1
		c0,0,0.2-1.7,0.5-2.5c0.3-0.7,1.3-2.3,1.3-2.3l1-0.6l31.2,25.4l1.1,11.1l-5,9.4l-2.1,0.7l-2.2,0.2l-5,1.6l-3,1.2l-2,1.2l1.7,5.6
		l0.9,4.1l0.5,26.5l-1.2,2.9l-0.5,7.6l0.5,0.7v1.2h-0.5v0.7l1.7,3.7l0.2,2.5l0.2,1v0.8l-3.3,1.8l-2.8,0.4l-4.3,1.9l-0.2,3.8
		l-0.3,0.6l0.4,0.8l-3.1,2.5h-0.9l-0.3,2.9l-5.2,2.1l-4.4,2.3l-1.7,2.3l-0.7,0.3l0.2,2.4l-1.5,1.7l1.7,0.6l0.4,3.1l-1.4,1.4
		l-4.6-0.7L710,460l2-2.4l0.8-4.1l-0.8-1.2l-6.8-3.6l-0.5-0.7l-1.4-0.4l-1.4-1.7l-0.7,0.2l-1.1-1.4l-18.7-11.2h-2.6l-0.3,0.9
		l-1.9-1.9l-1.2-0.2l0.5,2l-2.7,0.1l-0.6-0.7l-0.9,0.2l0.7,3.1h-2.2v0.8l-0.9-0.9l-5.2,0.8l-1.4-1.3l-0.2-1.5l1.8-2.9l-0.3-0.3
		l-2.2,0.8l-1.1-0.1l-0.7-1l-0.3-1.1h-0.9l-1.2-2.1l-0.5,0.7l-1.7-2.8l2.2-1.2l1.5-0.2l-0.6-2.7l1.8-0.6l-1.4-6.5l-1.7,0.2l-1.1-6.3
		H655l-0.4-2.7l-1.2,0.2l-1.8-10.8l-3.2,0.7l-3.6,2.5l-2.9,3l-2.2,1.2l-1.1,1.7l-0.6-0.4l-1.4,0.9l-1.1-1.5l-1.2,2.2l-3.1-4.5h0.7
		l-0.9-2.5l0.2-0.7l-2.7-2.1l0.8-1.3l-4.5-3.3l0.7-1l-1.5-1.2l0.5-1l-6.2-4.7l0.7-1l-0.6-0.6l-0.5-1.9l-0.9-0.7l-0.4-1.5l1-1.1
		l-0.9-1v-1.4l-0.9-1.4l-1.5-3.8l-1-1.2l-3.2-0.9l-2.1-0.9l-1.2-1.2l-1.5-3.4l-6.5-3l-2.8,0.2L592.2,361.2z"/>
	<path id="path15196" class="st0" d="M608.3,516.2l4.8-1.6l11.1-3.3l4.7-0.6l2.9-0.9l0.4,0.8l17.8-6.3l4.2-1.9l-0.1-0.8l1.9,0.4
		c0,0,11.7-6.3,13.2-7.1c1.5-0.8,8.9-3.3,10.8-4c1.9-0.7,10.2-3.7,11-4c0.8-0.2,11.8-2.5,11.8-2.5l0.8-0.8c0,0,7.5-2,8.4-2
		s4.2,0.5,4.8,0.5c0.6,0,7.8-0.5,7.8-0.5s1.5-1.6,2.1-1.6c0.6,0,3.2-1.8,3.2-1.8l1.1,0.5l1.2-0.2l2.3,0.4l-0.4-1.6l0.1-5.5l-0.8-1.2
		l-0.6-0.4l-1.8-2.2l0.3-0.3l-1.7-3.4l-0.8,0.3l-1-0.5l-4.3,2.1v-0.7l-2.4-0.4h-0.9l-0.3-0.7l-0.6,0.4l-1.5-0.5l-0.4-1.2l-1.2-0.5
		l-2.3,0.2h-1.5l-0.7,0.7l0.3,1.5h1l0.2,0.4l1.7,1.2l-0.5,0.7v2l-0.6,1.2l0.4,2.1l0.1,2.7l0.9,0.2l0.4,0.9l-2.2-0.4l-0.9,0.3
		l-0.7-0.8l-0.5-2.3l-0.7,0.1l-1.5,2.7l-0.8,0.5l-0.7,0.1l-0.9-1.2l1.2-1.2h0.9l1.9-2.1l0.7-2.8l0.9-0.8l-0.6-1.5l-0.7-0.9l-2.6-0.1
		l-0.9,0.8l-0.6,1.7l-1.9,1.5l0.8,1.4L705,472l-1.2,2.1l-2,2.6l0.3,1.8l-0.9,0.3l-0.5-1l0.4-1.5l0.7-1.7l1.3-1.2l0.4-1.2l0.6-0.7
		l-0.7-0.7l-3.8,3.5l-0.7-0.1l-0.2,0.4l-4,0.2l-0.4-0.2h-1.5l-0.8,1.2l0.7,2.2l-0.8-0.2l-0.7-0.6l-1.5,2.2l-0.6-0.2l-0.2,0.6
		l0.2,0.5l-0.4,0.5l-1.7,0.7l-4.8,3.6l-0.6-0.7l-4.1,1.4l-0.1,1l-5,1.7h-1.7l-0.3,0.5l-4.1,0.1l-1.9-0.5H663l-7,5l-10.4,6.6
		l-2.5,0.1l-1.2,0.5l-0.7-0.6l-2.5,0.6l-2-0.5L635,502l-0.7,1.4l-1.8,0.7l-0.1,0.7l-1.2-0.4l-1.8,0.7l-2.2-0.4l-1.7-1.2h-1.2
		l-3.4,2.2l-1.8,0.5l-0.8-0.2l-1.2,0.5l-0.7-0.4c0,0-0.6,0.8-1.3,0.8c-0.7,0-1.9,0.6-2.6,0.7c-0.7,0.2-2.3,0.7-2.8,0.7
		s-0.7,0.6-0.9,1c-0.2,0.4-1,0.4-1,1.1c0,0.7,0,3.3,0,3.3L608.3,516.2z"/>
	<path id="path16083" class="st0" d="M707.7,462.5c0,0,0.2-0.9-0.4-1.2c-0.7-0.2-1.5-0.9-1.5-1.3s0.1-0.6-0.5-1.1
		c-0.6-0.5-1-0.9-0.6-1.2c0.4-0.2,0.4-0.5-0.2-0.5s-0.8-0.2-0.6-0.7c0.2-0.6,0.4-0.2-0.2-0.8c-0.7-0.6-0.8-0.8-1.4-1.1
		s-1.2,0.1-1.1-0.3c0.1-0.4,0.7-0.6,0-0.6c-0.7,0-2.5,0.7-2.5,0.7s-0.2,0.7-0.3,1.2s-0.7,1.1-1.2,2s0,0.9-0.4,1.4
		c-0.4,0.5-0.7,0.5-0.8,1.2c-0.2,0.7-0.9,1.2-1,1.7c-0.1,0.5,0.2,0.7-0.1,1c-0.3,0.3-0.2,0.6-0.6,1s-0.8,0.9,0.2,0.9
		c1,0,2.3-0.1,3,0.3c0.7,0.4,2.2,1.7,2.2,1.7s0.2,1.9,0.6,1.8c0.4-0.1,2.6-3,3.4-3.1c0.8-0.2,1.6-0.7,1.6-0.7L707.7,462.5z"/>
	<path id="path16970" class="st0" d="M692.6,470.8c0,0,1.7,0.4,2.1,0.4s2,0,2.6,0s1.9-1.2,1.7-1.7c-0.2-0.5-0.4-1.2-0.3-1.6
		c0.1-0.3-1-1.6-1.4-1.7c-0.4-0.2-1.5-0.7-2-0.7s-1.3,0.2-1.8,0.6c-0.5,0.3-0.7,1-1,1.5c-0.2,0.5-0.2,0.9-0.2,1.2
		C692.3,469.2,692.7,470.9,692.6,470.8z"/>
	<path id="path17857" class="st0" d="M692.2,462.8c0,0,1.1,0.3,1.4-0.2s0.9-1.9,0.9-2.6s0.2-1.3-0.1-1.7c-0.3-0.4-0.2-1.2-0.2-1.2
		s1.1,1.5,1.2,1c0.1-0.5,0-2.1,0.4-2.4c0.4-0.3,1-1.5,1-1.5s1.7-0.6,1.5-1c-0.2-0.4-0.6-0.2-1.2,0c-0.7,0.2-0.1-0.6,0.3-0.9
		c0.4-0.3,0.3-0.5,0.3-0.5l-1.2-0.7c0,0-0.2-0.2-1-0.2c-0.7,0-0.7,0.7-1.4,0.7c-0.7,0.1-0.4,0.3-1,0.7s-1.7,0.8-1.7,0.8l-1,1.5
		l0.1,0.9v0.7l1.2,2.8l-0.1,1.1l0.7,0.6L692.2,462.8z"/>
	<path id="path18744" class="st0" d="M689.3,469.4l0.9-0.8l0.4-0.5l-0.1-1.2l-1.2,1.2V469.4z"/>
	<path id="path19631" class="st0" d="M685.3,471.3l2.9-1.7l0.2,2.6l0.7,0.8c0,0-0.4,0-0.4,0.6c0,0.6,0.2,1.4-0.1,1.7
		c-0.3,0.3-0.8,0.6-0.8,0.6l-0.8-0.2l-0.7-1.2l-0.7-0.9L685.3,471.3z"/>
	<path id="path20518" class="st0" d="M688.9,460.2l-0.7-1.9l-0.7-2.6l0.7-2.7c0,0-0.8-2.7-1.1-3.2c-0.2-0.5-1.6-1.9-1.6-1.9
		l-0.8-0.3c0,0-0.5,0.7-0.5,1.2c0,0.5,0.8,1.9,0.8,2.2s0.3,0.7,0.2,1.1c-0.1,0.3-0.1,1.1,0.2,1.1s0.9,0.7,0.7,1.2s0,1.2,0.3,1.8
		c0.3,0.6,1.2,2.4,1.2,2.7c0,0.3,0.7,1.6,0.7,1.6L688.9,460.2z"/>
	<path id="path21405" class="st0" d="M679.7,441.4l0.1,2.4l-2,0.9l-2.2-2.1l-1.2-0.4l-0.1,0.4l1,4.6l-0.9,3.5l-0.6,0.8l0.4,0.6
		l-0.8,0.8v1.5l-0.8,0.6l-0.5,3l0.7,2.1l-1.8-0.2l-0.6,1.2l2,1.5l-0.4,0.5l0.7,2l1.3-1.3l0.2-1.5l2.1-0.4l0.4,0.8l1.7,1l1.1-0.7
		l0.2,1.4l1.1,1.4l0.7,1.5l1.2,0.4l-1.7,1.9l0.2,0.5l0.1,2.2l-0.9,1.4v0.7l-1.2-0.1l-2.7,1.4l-1.5,0.2l-1.1,1.2l0.3,1.4
		c0,0,1.9,0.5,2.8,0.2s1.3-0.3,2.2-0.2s0.9,0.2,1.7-0.2c0.7-0.4,2.7-2.2,2.7-2.2s0.4-1,0.5-1.5c0.1-0.5,0.4-1.7,0.6-2.2
		c0.2-0.5,0.2-2.4,0.2-2.4l1.1-0.9l0.9-1l-0.3-1.6h-0.7l-0.4-1.7l-1.3-5.6l1.2-0.7l0.9-1.2v-0.9c0,0-0.7-0.7-1.2-0.7
		c-0.5,0-1.2,0.9-1.2,0.9l-0.6-2.1c0,0,0.8,0.1,1.2,0.1c0.4,0,1.2,0.1,0.8-0.4c-0.4-0.5-1.2-1.2-1.2-1.7s0.6-0.8,0.2-1.7
		c-0.3-0.8-0.7-1.7-1.2-1.7c-0.6,0-1-0.5-1-0.5l-0.1-1.5c0,0,0.8-0.9,0.7-1.2c-0.1-0.3-0.5-1.1-0.5-1.1l-0.9-0.9l-0.5-2.4
		L679.7,441.4z"/>
	<path id="path22292" class="st0" d="M666.8,481.2c0,0,0.8,0.2,1.2,0.2c0.4-0.1,1.1,0.2,1.2-0.2c0.2-0.3,0.4-1.2,0.8-1.2
		c0.4,0,1.1,0.1,0.6,0.8c-0.5,0.7-0.2,0.7,0,1.5c0.2,0.8,0.1,1.4,0.9,1.5c0.8,0.1,1.6,0.1,2.3,0.1c0.7,0,0.7-0.1,0.8-0.6
		c0.1-0.5-0.1-0.7,0.2-1.2c0.3-0.5,0.7-0.9,0.4-1.4c-0.2-0.5-0.5-0.9-1.2-0.9c-0.7,0-0.8-0.3-1.4-0.7s-0.2-0.6-0.7-1.2
		c-0.4-0.6-1.2-0.6-1.6-0.6c-0.4,0-1,0.4-1.6,0.6c-0.6,0.2-1.4,0.4-1.4,0.4s-0.2,0.9-0.8,1.6C666.2,480.6,666.7,481.4,666.8,481.2z"
		/>
	<path id="path23179" class="st0" d="M672.8,470.3l0.9-0.1l2.7-0.7l-0.4-2l-1.2-1.5l-1.2,1.3l-1,1.5L672.8,470.3z"/>
	<path id="path24066" class="st0" d="M677.4,469.7l1.5-0.3l0.2-0.5l-0.4-1.2v-1.2l-1.2-0.6l0.2,1.7l-0.4,1.5L677.4,469.7z"/>
	<path id="path24953" class="st0" d="M686.1,464.1l0.6-1l-0.3-1.1l-1.4,0.7L686.1,464.1z"/>
	<path id="path25840" class="st0" d="M592.2,361.2l3.9-2h2.8l6.4,2.9l1.5,3.4l1.3,1.3l2.2,1l2.8,0.6l1.1,1.3l1.5,3.9l0.9,1.3v1.4
		l0.9,1l-0.9,1.1l0.4,1.5l1,0.7l0.5,2l0.5,0.5l-0.6,0.9l6.1,4.7l-0.5,1.1l1.5,1.1l-0.7,1.1l4.4,3.2l-0.8,1.3l2.6,2l-0.1,0.7l0.7,2.3
		l-0.5,0.1l3.1,4.4l1.2-2.1l1.2,1.5l1.2-0.9l0.6,0.4l1.1-1.6l2.4-1.3l2.8-2.9l3.5-2.5l3.2-0.6l1.8,10.7l1.3-0.1l0.4,2.6l0.9,0.1
		l1.1,6.3l1.8-0.3l1.4,6.5l-1.9,0.6l0.6,2.7l-1.3,0.1l-2.5,1.3l1.1,1.8l-0.9,0.5c0,0,0,0.5,0.6,0.7c0.6,0.2,1.2,0.9,1.7,1.5
		c0.5,0.5,1.3,1.9,1.3,1.9s-0.5,1-0.7,1.1s0.1,3.2,0.1,3.2l-3.2,0.8c0,0,0.1-1.2-0.5-1.2s-0.8,0.5-0.8,0.5s-0.9,0.2-1.4,0.2
		c-0.5,0-0.7,0.6-1.2,0.3c-0.5-0.3-0.5-0.5-0.9-0.5c-0.4,0-1.2,0-1.2,0l1.1,1.6l1.9,3.7l-0.2,0.8l-2.9,2.3l-1.6-0.8l-0.4,0.5v1.4
		l-0.6,0.3c0,0-0.2-1.6-0.6-1.1c-0.4,0.5-0.3,0.9-0.3,0.9l-2.5,2.9l0.4,0.6l-0.5,0.5l-0.6-0.2l-2,2.4c0,0-1.2,0.1-1.3,0.6
		s0.2,1.3,0.1,1.8c-0.1,0.4-1.3,1.2-1.3,1.2s-2.7-0.6-3.2-0.6c-0.5,0-0.5,0.7-0.3,1.2c0.2,0.5,5.9,9.7,5.9,9.7l-0.8,0.6l-1.9-0.3
		l-4.3,2.9l-0.1,1.1l0.6,0.2l8.2-0.5l6,17.5l-0.8,2.3l-11.8,3.3l-3.8-3.3l-1.9-1l0.8-1.2l3,2.5l1.5-0.5l-0.1-1.6l-1.5-2.3l-0.2-1.1
		l-0.5-1.2l-1.5,0.4l-1.1,0.8l-0.8-0.2l-2.5,0.6l-0.8,1l-1.3-1.1c0,0-0.4,0.5-0.4,1s0.8,1.9,1.1,2c0.3,0.2,0.6,0.5,0.6,0.5l-0.5,0.8
		l-0.9,0.2l-1.2-0.8l-0.1,1.2l-8.3-2.8c0,0-1,0.3-1.6,0.6c-0.6,0.3-1.2,0.7-1.2,0.7L612,490l0.1,4.1l-1.5,0.2l-0.9-0.2l-0.5,0.4
		l-11.1,1.3h-3.3l-19.4,3.4l-7.7-0.3l-3.3-1.8c0,0-2.3-0.2-2.7-0.6c-0.4-0.4-0.5-2-0.6-2.2c-0.1-0.2-0.5-1.2-0.3-1.6
		c0.2-0.4,1.9-1.6,2.4-1.7s1.7-0.4,1.7-0.4l0.2-0.6l0.9-0.1l0.6,0.5l-0.2,0.3l1.6-0.3l7.1,1.6l-0.1-0.7h0.5c0,0,0.5-0.6,0.2-1
		c-0.2-0.4-1-0.4-1-0.4l-0.6-0.5l0.8-1.6l-3,0.5l-2.8-0.8l0.2-0.8l-0.9,0.6l0.2-2.4l1.6-1l-0.5-0.8l0.4-0.1l-0.4-0.9l1.1-0.8
		l-0.5-0.5l-1.2,0.5l-0.5-0.5l1.6-1.6l-0.8-0.5l-0.8,0.1l-0.6-0.6l-0.7,0.8c0,0-0.2-1.4-1-1.8c-0.8-0.4-4.3-3.2-5-3.6
		c-0.8-0.5-1.7-0.9-2.4-0.9c-0.7,0-1.3,0.2-1.8-0.1c-0.5-0.2-0.1-0.7-1.1-0.9c-1.1-0.2-5.3-0.7-5.7-1c-0.4-0.3-3.1-2.3-3.1-2.3
		l-0.4,0.7h-0.6c0,0,0.6-2.2,0.3-2.3s-1.6-1.2-1.8-1.7c-0.2-0.5-0.9-2.4-1.1-3s-0.9-4-1.1-4.9c-0.2-0.9-0.4-3-0.4-3.8
		c0.1-0.8,0.4-3.6,0.6-4c0.2-0.4,2.6-7,2.7-7.4c0.1-0.4,0.8-1.5,0.8-1.5l-0.6-0.5l2-2.3l0.3-0.7l1.2,0.6l0.9-1.3l-1-0.8l1.3-1.6
		l1.9,1l0.9-1.1l-0.5-0.8l1.1-1.2l0.6,0.4l0.8-0.9l-1.7-1.3l4.4-4.9l0.9,0.7l2-1.5l-0.9-0.6l3.3-2.4l2.2,1.8l0.5-0.5l1.2,0.1
		l-1.3-1.2l-0.2-1.5l2.8,2.1l0.6-0.4l0.4-0.9l-2.2-1.5l1.6-0.9l1.1,0.6l1.2-0.9l-1.4-0.8l-1.5-0.1l-2.2,1.3l-0.6,0.3l0.7-3.2
		l-0.6-0.1l-3.7,5l-2.9,0.4l-1.1-1l-0.5-4.6l-0.6-0.3l0.4-0.5l1.2,0.7l0.5,4.7l2.4-0.4l0.9-2.6l-0.7-1.1l-3.5-2.5l-1.4-2.6l0.2-2.8
		l9.9-8l4.7-11l2.2-2.4h0.8l0.4,0.4l6.5-0.2c0,0,1.2-0.3,1.6-0.6c0.4-0.3,3.5-2.8,3.5-2.8l1.3,1.7l0.2-0.4l-0.1-1.6l1.8-6.1l1-1.2
		l1.6-3.6l1.2-1.6l-0.1-4.1l-0.7-2.4V361.2z"/>
	<path id="path26727" class="st0" d="M658.8,449.1l6.3,0.3l0.4-1.5l1.5-1l0.9-3.5l-2.5-1.3l-5.6,3.6L658.8,449.1z"/>
	<path id="path27614" class="st0" d="M667.5,449.5l1.2-1.5l2.9-1.1l1,0.2l-0.1,1.2l-3.1,5.6L667.5,449.5z"/>
	<path id="path28501" class="st0" d="M656.7,460.4l2.4-1.7l5.9-2.6l1.4,0.1l1.5-0.8l-1-1.9l-1.1-0.8l-1.7,0.5l1.4-2.7l-0.8-0.3
		l-1,1.2l-2.2-0.4l0.2,1l-1.2-0.4l-0.4-0.5l-1,0.7l-1.5,2.5l-0.7-0.8h-1.4l0.1,2.3l1.3-0.7l-0.5,4h-1.3l0.2,1.1L656.7,460.4z"/>
	<path id="path29388" class="st0" d="M645.7,461.4l4.9-1.4l3.1-1.5l0.1-2.6l0.5-2.7l-1.3-1.8l-5.4,3.7L645.7,461.4z"/>
	<path id="path30275" class="st0" d="M671.1,463.4l-1.4,0.5l-2.5-1.2l0.4-1.7l0.7,0.2l-0.1-1.2l-1.7,0.5l-0.7,3l-0.7,1l0.3,3.1
		l-1.6,0.9l-0.6,1l2.6,2.6l3.6-1.7L671.1,463.4z"/>
	<path id="path31162" class="st0" d="M660,469.8l1.4,0.2l2.8-3.5l0.1-4.1h-1.6l-0.7,0.7l1,1.1h-2.1l0.1-2.5l-1.8-0.8l1,2.4l-1.1,0.5
		l-0.6,1.5l0.2,1.2l1.3,1.4V469.8z"/>
	<path id="path32049" class="st0" d="M656.9,472.4l-2.5,1.8l4.8,4.1l3.1-1.3l0.6-2.1L656.9,472.4z"/>
	<path id="path32936" class="st0" d="M651.8,480.7c0,0-0.2,0-0.6,0.2c-0.4,0.2-1.3,1.5-1.3,1.5l0.7,3.1l1.9-0.2l-1.8,2.8l1.2,3.7
		l1.2-0.7l2.6-4.4l0.2-2.2c0,0-0.9-2.3-1.2-2.4c-0.3-0.1-0.9-0.5-1.3-0.6C652.8,481.5,651.9,480.9,651.8,480.7z"/>
	<path id="path33823" class="st0" d="M651.9,468.6v-2.1l-0.9-1.8l0.2-1.2l-0.9-0.7l0.1,2.7l0.8,1l-0.4,0.4L651.9,468.6z"/>
	<path id="path34710" class="st0" d="M651.7,477l0.2-1.8l-0.5-0.4l-0.2-3l-0.5,0.1l-0.1,3.3l0.7,0.2l-0.2,1.2L651.7,477z"/>
	<path id="path37371" class="st0" d="M521.5,434.8l-0.4,0.9l1.3,1.2l0.7-0.5c0,0,1.9,1.8,1.9,2.5c0,0.7,0.2,4.6,0.2,5.9
		s-0.1,6.8,0.1,7.6s1.4,2.9,1.4,2.9l1.2,2l-0.7,1.2l1.3-0.1l0.6,1.3l-0.5,1.3l1.5,1.8c0,0,0.4,2.1,0.8,2.6c0.5,0.5,1.8,1.5,2.2,2.5
		s1.4,1.3,1.4,1.3l1.9,1.6l-4.1,10.7c0,0-3.4,2.1-4.1,3c-0.7,0.9-2,3.6-2.6,4.1c-0.6,0.5-2.7,2.1-3.5,2.8c-0.8,0.7-0.4,1.6-1.3,2.2
		c-0.9,0.6-6.1,5.6-6.8,6.4c-0.7,0.8-1.2,1.3-2.2,2.3s-2.1,3.5-2.1,3.5l-2.1,2.8H506l-2.9,5.3l-1.3-0.5c0,0-1.1,1.1-2,2
		c-0.9,0.9-1.9,2.7-2.3,3.4c-0.5,0.7-0.6,1.1-1.1,1.1s-1.2,0.6-1.4,1.2c-0.2,0.6-0.7,0.6-1.5,0.9c-0.8,0.4-1.5,0.5-1.5,0.5l-7.5,9.1
		l-2.3,1.4l-0.5-1.1l-1.3-1.9l0.4-1.8h3.6l3.4-4.2l0.5-1.8l-1.1-2.1l-1.9-0.9l-2.2,0.1v0.8l-2.3,0.4l-0.2,0.8l0.4,0.7l-1.3,0.4
		c0,0,0,1.9,0.1,2.7c0.1,0.8,0,1.9,0,1.9l-1.2,0.1l-0.4,1.1l-0.9,0.7l-0.1,0.9l-2.5,1.2l-12.9,8.3l-1.5-0.2l-3.4,2.6h-1.4l-0.8-0.5
		h-1.4v0.9l-1.9,0.6l-3.4,4.8L447,548l0.4,1.1l-2.2,0.6l-0.9-0.8l-1.5-0.7l-0.2-0.8h-2.8l-3.3,1.8l-0.2,1.3l-1.4,1.4l-1.5,1.2
		l-1.1,2.1c0,0-2,0.9-3.2,0.9c-1.2,0-1.1,0.4-1.6,0.7s-1.2-0.6-2.7-0.6c-1.5,0-4.6,0.8-5.2,1.9c-0.6,1.1-0.4,1.4-1.8,2.1
		c-1.4,0.7-1.9,0.8-2.8,0.8c-0.9,0-1.2,0-1.9,0s-2,0.1-2.6-0.6c-0.6-0.7-1.1-2-1.5-2.7c-0.5-0.7-1.8-3.6-1.8-4.3
		c0-0.7-0.7-2.5,0-2.8c0.7-0.4,1.5-1.2,1.5-2.1c0-0.9,0.5-1.9,0.5-1.9l0.1-0.6l2.8-2h0.9l0.7-1.4l1.2-0.2l0.5,0.2l0.8-0.6l-1.3-2.6
		l0.6-0.8l-0.9-1.8l1.5-4.8l-0.4-1.9v-0.9l-1.2-1.4l-1.3-0.2v-0.7l0.8-1.1l-1.3-3.3l-0.8-0.7l1.1-1.8l1.9-2l0.9,0.6l3.3-2.8l0.6-1.4
		l1.4-0.4l3.2-3.2h2l1.6,0.5l0.6,0.5l3.2,0.5l1.2-1.1l1.1-0.4l1.8-3.4l-0.2-2.1c0,0,1.4-5.7,1.6-6.2c0.2-0.5,0.5-1.6,1.5-1.5
		c1.1,0.1,2.2,0.5,2.8,0.1c0.6-0.4,2-1.6,2-1.6l0.4-3.5l2.9,1.1c0,0,0,0.8,0.7,0.8c0.7,0,1.4-0.4,1.4-0.4l-0.1-0.7h-1.3l-1.6-1.9
		l-2.8,0.5c0,0,0.4,0.4-0.1,0.9c-0.5,0.6-0.8,3.3-0.8,3.3l-4.3,0.7l1.2-6.4l0.5-0.6l0.5-3.5l-0.6-1.6l0.6-1.6c0,0,2.6-3,3.3-4
		c0.7-0.9,1.1-2.2,1.1-2.2s0.2-2.7,0.5-3.2c0.2-0.5,0.6-0.6,0.4-1.3c-0.2-0.7-0.9-2.5-0.9-2.5l-0.4,0.6l0.2,1.3l-0.7,1.5l-1.8-2.8
		l-1.2-0.9l0.2-6.2l1.1-0.6c0,0,0.2,0.6,0.8,0.6s1.1-0.1,1.1-0.1s0.8,0.4,0.4,1.2s-0.8,1.8-1.2,2.5c-0.4,0.7,0.4,2.5,0.4,2.5
		s0.1-0.6,0.5-1.2c0.4-0.6,0.7-1.8,0.7-1.8l0.9-3.2h0.6l-1.1-2.1h-1.1l-1.8-0.6l-0.5-1.9l0.1-1.4l-0.4-2.7c0,0,0.9-4.2,1.2-5.2
		c0.2-0.9,0-1.1,1.2-2.1c1.2-1.1,2.1-2.2,2.5-3c0.4-0.8,0.8-2.1,1.6-2.7c0.8-0.6,1.8-2,1.8-2l0.9,1.3l-0.1-1.6l1.5-1.3l0.7,0.6
		l0.4-0.8h1.6l0.5-0.6l0.9,0.1l-0.4,1.6l0.6,0.4l0.9-0.9l0.6,0.4l0.4-1.5l1.6,0.5l0.9,1.3v1.1l0.9,0.6V440l1.4,0.4l1.4,0.1v-1.2
		l0.8,1.2h1.1l0.9,0.9c0,0,1.9,0.4,2.9,0.5s1.1,0.6,1.1,0.6l0.5,1.1l1.3-0.1l-0.5-1.2l1.2,0.5l0.5,1.1l0.8-0.2v-1.1l2.3-0.1l0.6,0.5
		l0.6-0.8h0.6l0.1-0.8l1.2,0.7c0,0,0-0.7,0.7-0.8c0.7-0.1,0.9-0.8,0.9-0.8s1.3-0.2,2-0.2s1.5,0.2,1.5,0.2l2.1,0.1
		c0,0,1.1,0.5,1.1,0.9c0,0.5,2.6,0.2,2.6,0.2l1.9-0.9l-0.1-0.8l1.4-0.2l3-1.5l1.1-0.1l0.8-0.7l5.4-0.5l1.9,0.6l0.2-0.7l2.9,0.1
		l2.2-1.3c0,0,1.3-1.3,2.1-1.3s3,0.2,3.7,0.2c0.7,0,1.6-0.7,1.6-0.7s0.8,0.7,1.3,0.7C520.8,434.4,521.4,434.8,521.5,434.8z"/>
</g>
</svg>
