<?xml version="1.0" encoding="utf-8"?>
<!-- Generator: Adobe Illustrator 19.1.0, SVG Export Plug-In . SVG Version: 6.00 Build 0)  -->
<svg version="1.1"
	 id="svg2" sodipodi:docbase="C:\Documents and Settings\John Perry\My Documents\My Pictures\belen_map" inkscape:version="0.44.1" sodipodi:version="0.32" sodipodi:docname="New_York_City_District_Map.svg" xmlns:dc="http://purl.org/dc/elements/1.1/" xmlns:cc="http://web.resource.org/cc/" xmlns:rdf="http://www.w3.org/1999/02/22-rdf-syntax-ns#" xmlns:svg="http://www.w3.org/2000/svg" xmlns:sodipodi="http://sodipodi.sourceforge.net/DTD/sodipodi-0.dtd" xmlns:inkscape="http://www.inkscape.org/namespaces/inkscape"
	 xmlns="http://www.w3.org/2000/svg" xmlns:xlink="http://www.w3.org/1999/xlink" x="0px" y="0px" viewBox="1020 -895 2652 2582"
	 style="enable-background:new 1020 -895 2652 2582;" xml:space="preserve">
<style type="text/css">
	.st0{stroke:#000000;stroke-width:3.5433;}
</style>
<defs>
	
	
		<inkscape:perspective  inkscape:persp3d-origin="464 : 177.66667 : 1" sodipodi:type="inkscape:persp3d" inkscape:vp_x="0 : 266.5 : 1" inkscape:vp_y="0 : 1000 : 0" inkscape:vp_z="928 : 266.5 : 1" id="perspective15173">
		</inkscape:perspective>
</defs>
<sodipodi:namedview  inkscape:guide-bbox="true" inkscape:current-layer="layer3" inkscape:window-y="-4" inkscape:window-x="-4" inkscape:pageopacity="0.0" inkscape:pageshadow="2" inkscape:window-width="1280" inkscape:window-height="712" showguides="true" inkscape:cy="1980.6794" inkscape:cx="1084.4817" inkscape:zoom="0.29202169" pagecolor="#ffffff" bordercolor="#666666" borderopacity="1.0" objecttolerance="10.0" gridtolerance="10.0" guidetolerance="10.0" id="base">
	</sodipodi:namedview>
<g>
	<path id="path3647" class="st0" d="M2113,362.8c0,0-5.9-3.6-5.9-6.8c0-3.2,0.9-5.9,0.9-5.9l-6.3,0.5l10.4-68.2l9.5,1.4l0.9-11.3
		l-7.7-2.3l0.9-7.7l6.8,2.3l0.9-7.2l-8.1-0.5l1.8-11.7l7.7,0.9v-4.1h-6.8v-2.7h4.1l-1.8-5.4l-3.6-1.4l4.1-22.6h2.7l2.7-6.8l-4.1-2.3
		l4.1-10.8l5,1.4l2.3-5.9l-4.5-0.9l1.4-2.7l-2.7-0.9l9-11.3l4.1,2.3l1.8-2.7l-5.4-2.3l12.7-25.3l5.9,2.7l1.4-2.7l-5.4-2.7l6.8-12.2
		l5.4,2.3l2.3-4.1h-3.6l7.2-12.2h3.6l0.5-1.8h-5.9l1.4-2.7h5.4l61.5-114.8l3.2-6.8l-2.3-1.8l9-12.2l2.7,1.4c0,0,9.9-12.7,10.4-15.4
		c0.5-2.7,11.7-28.9,11.7-28.9s9-26.7,9-28.5c0-1.8-2.7-16.7-2.3-18.5c0.5-1.8,4.5-3.6,5.9-5.4c1.4-1.8,28-47.5,28-47.5l-0.9-0.9
		l4.1-6.3l-1.8-1.8l2.7-12.7l6.3-9.9l6.8-3.6l7.7,1.4c0,0,3.2,2.3,3.2,4.5s3.6,1.4,7.7,3.2c4.1,1.8,10.4,4.1,13.6,5
		c3.2,0.9,3.6,4.1,3.2,9c-0.5,5-4.1,14.9-8.1,19.4c-4.1,4.5-10.4,14.9-14,19.9c-3.6,5-11.7,20.8-14.5,25.3
		c-2.7,4.5-14.9,33.9-16.3,36.6c-1.4,2.7-5,13.1-5,16.7c0,3.6,1.4,27.1,1.8,29.8c0.5,2.7,1.8,22.1,1.8,26.7c0,4.5-1.4,12.7-1.4,16.7
		s0.5,8.1,4.1,13.6s7.7,11.7,7.7,16.3c0,4.5,2.7,15.4,0.5,18.5c-2.3,3.2-9.9,8.6-13.1,11.7c-3.2,3.2-7.7,13.1-7.7,15.4
		c0,2.3-5.4,7.2-9.9,11.3c-4.5,4.1-5.4,7.2-3.2,12.2s4.5,13.1,2.7,14.9c-1.8,1.8-21.2,28-22.6,31.2c-1.4,3.2-13.6,19.9-18.1,25.3
		c-4.5,5.4-9.9,15.4-15.8,23.5c-5.9,8.1-11.3,19-13.6,24c-2.3,5-1.8,18.1-1.8,19.9c0,1.8,0,5,0,5l-3.2-1.8l-0.5,12.7
		c0,0,6.8,5.9,6.8,9s-4.1,33-5.9,36.6c-1.8,3.6-5,19-8.6,19.9c-3.6,0.9-8.1,3.2-8.1,3.2v1.8l-25.3,4.1l-0.5-3.6l-16.3,2.3l-9.5,6.8
		l3.6,4.1l-15.4,15.4l-5-3.6l-3.2,1.8l1.8,5.4h-3.6l-2.3-4.1c0,0-1.8,1.4-4.1,1.8C2116.2,363.7,2113.9,363.7,2113,362.8z"/>
	<path id="path5419" class="st0" d="M2098.6,386.5c0,0,0,4.5-2.6,6.4c-2.6,1.9-9.6,9.6-10.9,11.8c-1.3,2.2-2.6,6.4-1.9,8.3
		c0.6,1.9,3.8,4.5,6.7,4.5s16.6-12.5,18.5-12.5s4.2,1.3,6.4-1.3c2.2-2.6,2.2-3.8,3.5-5.1c1.3-1.3,1-4.8-1-7
		c-1.9-2.2-1.9-4.2-5.4-5.1c-3.5-1-8-1-9.6-0.6C2100.8,386.2,2097.9,387.5,2098.6,386.5z"/>
	<path id="path5421" class="st0" d="M2042,404.4c0,0,4.2,0,2.6-3.5c-1.6-3.5-5.1-5.4-7.7-5.4s-3.2,1.9-1.9,3.5
		c1.3,1.6,1.9,3.8,3.5,4.8C2040.1,404.7,2042.3,405,2042,404.4z"/>
	<path id="path6308" class="st0" d="M2048.1,378.2l4.5-5.4h3.8l1-4.2l-7-5.4l-8.9,10.2L2048.1,378.2z"/>
	<path id="path7195" class="st0" d="M2242.7,206.9c0,0,4.5-7.3,6.7-8.3c2.2-1,7-8,8.3-9.9c1.3-1.9,6.1-7,7.3-8.9
		c1.3-1.9-0.3-2.2,3.5-6.1c3.8-3.8,17.3-23.3,17.9-25.9c0.6-2.6,3.8-3.5,5.1-6.4c1.3-2.9,3.2-4.8,3.2-8.3c0-3.5,1.3-7.3-1.3-5.1
		c-2.6,2.2-7,4.5-8.9,7.3s-1.9,6.7-3.2,8.3c-1.3,1.6-6.1,6.7-6.7,8.9c-0.6,2.2-7,9.3-8,11.2c-1,1.9-3.5,4.5-3.5,5.8
		c0,1.3-5.8,8.9-7.3,11.5c-1.6,2.6-8.6,11.2-8.6,13.1s-5.1,10.2-5.1,10.2L2242.7,206.9z"/>
	<path id="path8082" class="st0" d="M2321.9,103.4c0,0,2.9,2.9,4.8,1c1.9-1.9,4.2-3.5,6.4-4.2c2.2-0.6,5.4-1.9,5.4-4.2
		c0-2.2,4.8-15.7,6.7-18.2s12.1-9.6,12.1-12.5c0-2.9-3.5-12.5-5.1-13.7c-1.6-1.3-9.9-9.3-12.1-11.2c-2.2-1.9-1.9-3.8-4.5-3.8
		c-2.6,0-4.8-0.3-5.8,1.3c-1,1.6-3.5,7.3-3.5,9.9c0,2.6,0.6,4.8,0.6,8c0,3.2-2.2,8-4.8,11.5c-2.6,3.5-8,8.9-9.6,11.2
		c-1.6,2.2-5.4,9.3-6.7,11.5c-1.3,2.2-1.6,7.7,1.3,8.3c2.9,0.6,7,1.9,8.9,2.2C2318.1,100.8,2321.6,104,2321.9,103.4z"/>
	<path id="path8969" class="st0" d="M2363.8-326.1c0,0-4.5,16-4.5,21.7c0,5.8-5.1,14.1-5.8,17.9c-0.6,3.8-5.8,20.5-6.4,24.9
		c-0.6,4.5-7,27.5-8.3,30.7c-1.3,3.2-7,20.5-7,20.5s3.8,0,5.1,0.6c1.3,0.6,3.2,5.4,7.7,7.7c4.5,2.2,7.7,2.9,10.5,3.2
		c2.9,0.3,11.2,2.9,13.1,7c1.9,4.2,1,9.3,1,12.1c0,2.9-2.9,11.8-8.3,18.9c-5.4,7-13.1,17.9-15,20.8c-1.9,2.9-5.4,11.8-7,13.7
		c-1.6,1.9-8,12.8-10.9,17.6c-2.9,4.8-8,17.9-9.3,21.4c-1.3,3.5-7,15.7-7.7,20.1c-0.6,4.5,1,15.3,1.3,20.5s2.2,22,1.9,26.2
		s-0.3,21.1,0,23.3s0.3,10.9,1,13.1s4.2,10.2,5.8,12.1c1.6,1.9,4.8,8,6.4,8.6c1.6,0.6,6.7,0,6.7,0s2.2-0.3,3.5,0.6
		c1.3,1,5.4,5.4,5.4,5.4l8.9,8.6c0,0,3.8,2.9,7.3,2.9s3.5,0,3.5,0s0,1,4.5-2.2c4.5-3.2,8.6-10.2,10.5-13.1
		c1.9-2.9,3.5-10.5,6.1-10.5s5.1-0.3,5.1-2.6s2.6-2.6,7.7-2.6s9.6,0,13.7,0c4.2,0,7.3,0,8.9,3.2c1.6,3.2,7.3,11.5,8.3,11.8
		c1,0.3,5.8-3.2,8.3-3.2s13.4,1.3,13.4,1.3l0.6,1.9l2.9,1v3.2c0,0,6.4-0.6,7.7-2.6c1.3-1.9,8.9-16.6,8.9-16.6l-7-19.2l-2.9-4.2
		l-16-6.7l-5.8-6.1l2.2-2.9l6.1,5.8l16.3,6.4l8.6,13.1l11.8,1.3l2.9-1.9h6.1l1.6,7l-1,7l5.8,13.1l22.4-5.1l-2.2-7.7l0.3-4.2
		l-5.8-3.2v-3.2l3.5-7.7l-7-5.1l-3.2,0.3l-7.3-2.6l-0.3-3.8l1.3-2.2l1.6,4.5l5.1,2.6l4.2-0.6l8,6.1l1.9,7h2.2l0.3-4.2
		c0,0,1.9-2.6,2.9-4.8c1-2.2,0.3-8.6,2.6-9.6c2.2-1,3.2-0.3,3.8-3.2s0.6-6.1,2.2-6.7c1.6-0.6,2.2-2.9,2.2-2.9l-5.4-26.5l10.5,20.8
		c0,0-4.8,13.7-4.5,15c0.3,1.3,1.3,5.1,0.3,8.9c-1,3.8-0.6,8.9-0.6,8.9l5.8,16.9l14.1,2.2l2.9-17.9l12.5-0.3c0,0,6.4-4.2,8.3-4.8
		c1.9-0.6,13.1-3.5,13.1-3.5l16.9,3.2l13.1,13.1l6.1-0.6l9.9,8.3c0,0,5.1-0.3,8.3,2.9s6.1,5.8,8.3,4.2c2.2-1.6,3.2-5.8,1.6-7.7
		c-1.6-1.9-17.6-11.5-19.2-11.5c-1.6,0-4.8-0.6-6.7-0.6c-1.9,0-4.5-4.8-5.8-5.4c-1.3-0.6-2.6-2.6-3.2-5.4c-0.6-2.9-3.8-8.6-3.8-8.6
		l7.3,7.3c0,0,0,5.1,2.2,4.5c2.2-0.6,6.7-5.8,6.7-5.8s1-2.9,3.2-3.2c2.2-0.3,4.2-2.2,1.9-3.2c-2.2-1-10.2-6.1-10.2-6.1l-4.2,0.6
		l-5.4-6.4l-3.5-16.6l-2.2-1.3l-7,4.2l-6.1,1.6l-0.6-7.3l2.9-4.2l-5.8-10.9l-2.2-12.1l-0.3-12.8l4.2-1l-2.9-10.5l-4.2-4.2l3.5-1.6
		l3.5,2.6l-0.3-7l-2.9-2.2c0,0-1.6-3.2-1.3-5.8s1.6-3.5,1.6-3.5s0-6.4-1.3-6.4c-1.3,0-3.2-1.6-2.9-4.2s1.6-5.4,1.6-5.4l-6.4-9.9
		l9.6-4.2l0.3-8.3l-7.7-0.3l-4.5-8.3l-1-13.7l-4.5-3.2l-4.5-16.6c0,0,7.3-23.3,8-26.5c0.6-3.2-0.3-9.9-0.3-9.9l3.5-1l0.6,5.4
		c0,0-1.3,15.3-1.6,17.3c-0.3,1.9-3.8,4.5-3.8,4.5l1,2.6l-1.3,4.8l1.3,3.5l-2.2,3.5l0.6,8.3l5.8,4.5l3.5,3.5c0,0-0.6-3.8,1.3-5.4
		s3.8-2.9,3.8-2.9l0.6,6.4l1.9,0.3l-5.1,8.3l-0.3,4.5l4.5-1.9v5.1l2.9-2.9l6.7,4.2l8.9,14.4l0.6-7.3l4.2-1.6l1.9,0.3l-1.9,20.1
		l2.2,0.3l0.3,3.8l-1.6,0.6l9.3,9.6l3.5,8c0,0,0.6-6.1,2.6-7.7s3.5-2.6,3.5-4.5c0-1.9-3.2-6.7-2.2-8.6c1-1.9,3.8-5.8,5.1-6.4
		c1.3-0.6,4.5-2.9,4.5-2.9l1.6-7.3c0,0,5.1-4.8,5.1-6.1c0-1.3,2.9-22,2.9-22s6.7-1.6,10.2-3.8c3.5-2.2,6.7-4.5,6.7-6.1
		c0-1.6,1.6-3.5-0.3-5.1c-1.9-1.6-4.8-1.3-6.1-1.3c-1.3,0-3.2-1.3-3.2-1.3s6.4-10.9,6.4-13.1c0-2.2-2.2-6.4-4.8-6.4s-8,0-8,0
		l1.6-5.4l-5.1,1.3l-0.3,2.2l-4.8,1.9l-2.9,5.4l2.2,2.6l-2.9,12.5l-6.1,2.2l-11.2,22h-2.2l-0.6-5.1l-4.2,1v-4.5l-10.5-8.6l12.5,7.3
		l2.2-1l1.6-4.8l4.8-6.1l-1.6-1.3l6.1-5.4h3.5l0.6-5.8l3.5-8.6l-1-5.1h2.6l4.5-8.9l-73.5-24.3v4.2l-37.7-14.1l-2.9-10.9l1.3-6.4
		c0,0-2.9-4.2-3.8-8c-1-3.8-2.2-6.4-2.2-6.4h-7.7l-1-4.2l-12.5-6.1l-1.9,2.9l-4.8-3.8l4.5-7.3l-4.5-0.3l-2.9,3.8l-1.9,3.2l2.2,2.6
		c0,0-2.6,3.2-5.1,3.5s-2.2,4.5-2.2,4.5v4.2l-3.8,4.2l-1.9,1v3.8l-6.4-1.6L2363.8-326.1z"/>
	<path id="path9856" class="st0" d="M2415.9,49.7l-4.8,24.9h3.8l4.2,9.9l24.3,4.8l14.1-0.6l6.1-2.9c0,0-1.3-4.5-1-5.8
		c0.3-1.3-7.3-11.5-7.3-11.5l-4.5,3.2v-6.4l-7.3-5.1l-12.5-2.9l-8.9-8.6l-2.9,1.9L2415.9,49.7z"/>
	<path id="path10743" class="st0" d="M2391.3,46.2h5.1l3.8-5.4l-4.5-4.8l-2.6,1.9L2391.3,46.2z"/>
	<path id="path11630" class="st0" d="M2653.6-138.2l-1.9,1l8.3,15l-1,3.5l-1,4.2c0,0-2.9,5.1-2.9,6.7s5.1,7.3,5.8,8.6
		c0.6,1.3-1.6,4.5,0.6,5.4c2.2,1,3.8,4.5,3.8,6.1c0,1.6,3.5,2.6,4.2,5.1c0.6,2.6,0,3.8,2.2,6.1c2.2,2.2,3.2,2.6,4.8,0.3
		c1.6-2.2,4.8-4.2,3.8-7.7c-1-3.5,0.6-8.3-2.2-9.9c-2.9-1.6-2.9-4.8-1.9-6.7c1-1.9,4.2-3.2,2.6-5.4c-1.6-2.2-4.5-10.5-4.5-13.4
		c0-2.9-3.2-1.6-4.8-2.9s-5.4-8.9-6.1-11.5c-0.6-2.6-1.9-7.3-1.9-9.9s-1-2.6-2.2-2.6s-2.2,1.9-2.2,1.9l-2.2,1l-1,2.6L2653.6-138.2z"
		/>
	<path id="path12517" class="st0" d="M2702.8-109.1l7.3,7.7h4.2l-1.9-4.2l-3.2-4.2l1.6-8.6l0.3-10.5l2.2-3.5l6.7-1.3l-14.7-17.6
		l-4.2,1.6v22.7l-0.6,2.2l3.8,8L2702.8-109.1z"/>
	<path id="path14309" class="st0" d="M2241.1,248.5l2.9-18.9c0,0-0.3-4.8,1-6.4c1.3-1.6,8.9-15,9.9-16.6c1-1.6,17.9-24.6,19.2-26.5
		c1.3-1.9,13.7-22.7,15.3-24.9c1.6-2.2,4.2-6.4,7-8c2.9-1.6,7-4.2,8.3-5.4c1.3-1.3,3.2-6.1,3.2-6.1l-7.3-3.2c0,0-1.9-4.5-0.6-6.4
		c1.3-1.9,4.8-5.4,6.4-8.3c1.6-2.9,2.6-6.1,2.6-6.1l8.3,4.2v3.5c0,0,4.5,1,5.8,0c1.3-1,1.6-1,1.6-1s3.8-2.9,5.4-4.2
		c1.6-1.3,3.2-2.6,4.8-3.5c1.6-1,14.1-15.7,14.1-15.7s6.7-8.3,7.3-9.6c0.6-1.3,0.6-1.9,2.6-3.2c1.9-1.3,10.9-8.9,10.9-8.9l9.3,2.9
		l-1,1.9l6.4,7.3l1.9-3.8l-1.6-1l3.8-2.9l11.8,9.6h2.6l3.2,4.5l-5.8,6.1l4.8,3.2l-1.6,2.6c0,0,6.1,3.8,6.7,5.1
		c0.6,1.3,6.4,5.8,6.4,5.8l-2.9,4.5l-0.3,4.2l3.5,0.6l-1.6,6.4l2.9,0.6l2.2-2.2l12.8-1.3l-2.9-18.5l27.2-4.2c0,0,2.9,0.6,5.8,2.6
		c2.9,1.9,36.7,24.6,36.7,24.6s2.2,1,0.3,3.2c-1.9,2.2-4.5,7-4.5,7l7.7,3.5l1,4.5c0,0-3.5-3.8-5.8-3.8s-4.2-0.3-6.7,0.6
		c-2.6,1-4.2,1-6.7,1s-3.2,0-3.2,0s8,13.1,10.2,15c2.2,1.9,8,8,10.5,8.9c2.6,1,8.3,0.6,9.6,1.6c1.3,1,4.2,0,5.4-1
		c1.3-1,4.5,0,6.7-2.2s5.1-6.4,6.1-7.7c1-1.3,1.9-2.2,4.8-4.8s4.8-4.2,4.8-4.2s-10.9,1.9-13.4-0.3s-4.2-2.9-5.4-3.5
		c-1.3-0.6-4.5-8-4.5-8l-0.3-6.4l-1.6-3.2h2.6l1.3-2.9l-1-2.6c0,0,1.9-4.5,2.6-7.3c0.6-2.9,0-4.2,0-4.2l-2.9-1l-1.3-3.8v-8.9h-14.1
		l-0.3-2.2l-5.1-1.9l0.3-3.2l-3.5-3.2l5.8-1.9l3.5-2.9l2.9,0.3l3.5-3.2l1.9-6.1h-3.2l-1-2.6c0,0,3.2,0,1.9-2.2
		c-1.3-2.2-1.3-1.6-1.3-4.2s-0.3-4.5-0.3-4.5l3.2-1.6c0,0,5.8,4.8,7.7,4.8s4.8-0.6,4.8-0.6l-0.6-3.2l10.9-2.9l0.3,2.6l3.5-0.6
		c0,0,0-5.1,1.6-6.4c1.6-1.3,3.2-1.3,3.2-1.3s2.2-0.3,3.5,2.2c1.3,2.6,3.2,12.1,3.2,12.1s1.3,2.2-0.3,2.9c-1.6,0.6-1.6,0.6-1.6,0.6
		l1.9,6.4c0,0,0.6-1.3,3.5,0.3c2.9,1.6,3.8,1.9,3.8,1.9l4.2-1.3v-3.5l3.5-5.1l1.9,0.3l3.8-2.9l1-7.3l-4.2-5.4l7-1.3v-1.9
		c0,0,5.4,1.6,6.7-0.3c1.3-1.9,4.2-6.1,4.2-6.1l5.8-4.5l16.6,12.5l1.9-2.2h2.2l5.4,4.5l2.9-1.6l5.8,1.3l1,1.3l4.5-2.2l1.6,1.3
		c0,0,7.3,0.6,11.2,1.6c3.8,1,8.3,3.2,8.6,5.1s-1.6,8.3-1.6,8.3l6.7,4.2c0,0,23.3-0.6,24.6-0.6s3.5-3.2,3.8-5.4c0.3-2.2,1-7-0.6-7.3
		c-1.6-0.3-2.9-1.6-2.9-1.6s1.3-2.6,3.8-3.8c2.6-1.3,6.7-1.3,8-1.3c1.3,0,7.7,4.2,7.7,5.8c0,1.6,1.3,4.5,1.9,5.8
		c0.6,1.3,2.9,3.2,3.2,6.1c0.3,2.9,2.2,6.1,3.5,7c1.3,1,0.6,4.8,0.6,4.8l-3.5,0.3l-5.8,1.9l17.3,24l6.7,19.2l14.4,17.9l10.5,4.5
		l-2.6-12.8l-1.6-4.2l6.1-4.2l-4.5-12.1c0,0,0.6-6.7,1.9-9.6c1.3-2.9,5.1-8.9,5.1-8.9l3.8-2.2l120.5,98.1l4.2,42.8l-19.5,36.1
		l-8,2.9l-8.6,0.6l-19.2,6.1l-11.5,4.5l-7.7,4.5l6.4,21.7l3.5,16l1.9,102.3l-4.5,11.2l-1.9,29.4l1.9,2.9v4.8h-1.9v2.9l6.4,14.4
		l0.6,9.6l1,3.8v3.2l-12.8,7l-10.9,1.6l-16.6,7.3l-1,14.7l-1.3,2.2l1.6,3.2l-12.1,9.6h-3.5l-1.3,11.2l-20.1,8l-16.9,8.9l-6.7,8.9
		l-2.9,1.3l1,9.3l-5.8,6.7l6.7,2.2l1.6,12.1l-5.4,5.4l-17.9-2.9l-1.3-3.5l7.7-9.3l3.2-15.7l-3.2-4.5l-26.2-13.7l-1.9-2.9l-5.4-1.6
		l-5.4-6.7l-2.9,0.6l-4.2-5.4l-72.2-43.1h-10.2l-1.3,3.5l-7.3-7.3l-4.5-0.6l1.9,7.7l-10.5,0.3l-2.2-2.9l-3.5,1l2.6,12.1h-8.6v3.2
		l-3.5-3.5l-20.1,3.2l-5.4-5.1l-1-5.8l7-11.2l-1.3-1.3l-8.6,3.2l-4.2-0.3l-2.6-3.8l-1.3-4.2h-3.5l-4.8-8l-1.9,2.6l-6.4-10.9l8.6-4.5
		l5.8-0.6l-2.2-10.5l7-2.2l-5.4-24.9l-6.7,1l-4.2-24.3h-3.5l-1.6-10.5l-4.8,1l-7-41.9l-12.5,2.9l-14.1,9.6l-11.2,11.5l-8.3,4.8
		l-4.2,6.4l-2.2-1.6l-5.4,3.5l-4.2-5.8l-4.8,8.6l-12.1-17.3h2.6l-3.5-9.6l1-2.6l-10.5-8l3.2-5.1l-17.3-12.8l2.9-3.8l-5.8-4.5
		l1.9-3.8l-24-18.2l2.9-3.8l-2.2-2.2l-1.9-7.3l-3.5-2.6l-1.6-5.8l3.8-4.2l-3.5-3.8v-5.4l-3.5-5.4l-5.8-14.7l-3.8-4.8l-12.5-3.5
		l-8-3.5l-4.5-4.5l-5.8-13.1l-24.9-11.5l-10.9,0.6L2241.1,248.5z"/>
	<path id="path15196" class="st0" d="M2303.3,846.8l18.5-6.3l42.9-12.7l18.1-2.3l11.3-3.6l1.4,3.2l68.7-24.4l16.3-7.2l-0.5-3.2
		l7.2,1.4c0,0,45.2-24.4,51.1-27.6c5.9-3.2,34.3-12.7,41.6-15.4c7.2-2.7,39.3-14.5,42.5-15.4c3.2-0.9,45.6-9.5,45.6-9.5l3.2-3.2
		c0,0,28.9-7.7,32.5-7.7s16.3,1.8,18.5,1.8s30.3-1.8,30.3-1.8s5.9-6.3,8.1-6.3c2.3,0,12.2-6.8,12.2-6.8l4.1,1.8l4.5-0.9l9,1.4
		l-1.4-6.3l0.5-21.2l-3.2-4.5l-2.4-1.4l-7-8.6l1.3-1.3l-6.4-13.1l-3.2,1.3l-3.8-1.9l-16.6,8v-2.6l-9.3-1.6h-3.5l-1.3-2.9l-2.2,1.6
		l-5.8-1.9l-1.6-4.8l-4.8-1.9l-8.9,1h-5.8l-2.6,2.6l1.3,5.8h3.8l0.6,1.6l6.4,4.5l-1.9,2.6v7.7l-2.2,4.5l1.6,8l0.3,10.5l3.5,1
		l1.6,3.5l-8.6-1.6l-3.5,1.3l-2.9-3.2l-1.9-8.9l-2.6,0.3l-5.8,10.5l-3.2,1.9l-2.6,0.3l-3.5-4.5l4.5-4.8h3.5l7.3-8l2.6-10.9l3.5-3.2
		l-2.2-5.8l-2.6-3.5l-9.9-0.3l-3.5,3.2l-2.2,6.7l-7.3,5.8l3.2,5.4l-3.2,3.2l-4.8,8l-7.7,9.9l1.3,7l-3.5,1.3l-1.9-3.8l1.6-5.8
		l2.6-6.7l5.1-4.5l1.6-4.5l2.2-2.6l-2.6-2.6l-14.7,13.4l-2.9-0.3l-1,1.6l-15.3,1l-1.6-1h-5.8l-3.2,4.5l2.6,8.6l-3.2-0.6l-2.9-2.2
		l-5.8,8.3l-2.2-1l-0.6,2.2l0.6,1.9l-1.6,1.9l-6.4,2.9l-18.5,14.1l-2.2-2.6l-16,5.4l-0.3,3.8l-19.2,6.7h-6.7l-1.3,1.9l-15.7,0.3
		l-7.3-1.9h-4.8l-26.8,19.5l-40.3,25.6l-9.6,0.3l-4.8,1.9l-2.6-2.2l-9.6,2.2l-7.7-1.9l-7,5.4l-2.9,5.4l-7,2.6l-0.3,2.9l-4.8-1.6
		l-7,2.6l-8.3-1.6l-6.4-4.8h-4.5l-13.1,8.3l-7,1.9l-3.2-1l-4.5,1.9l-2.9-1.6c0,0-2.2,3.2-5.1,3.2s-7.3,2.2-10.2,2.9
		c-2.9,0.6-8.9,2.9-10.9,2.9c-1.9,0-2.6,2.2-3.5,3.8c-1,1.6-3.8,1.6-3.8,4.2c0,2.6,0,12.8,0,12.8L2303.3,846.8z"/>
	<path id="path16083" class="st0" d="M2687.2,639.3c0,0,1-3.5-1.6-4.5c-2.6-1-5.8-3.5-5.8-5.1c0-1.6,0.3-2.2-1.9-4.2
		c-2.2-1.9-3.8-3.5-2.2-4.5s1.6-1.9-0.6-1.9c-2.2,0-3.2-0.6-2.2-2.9c1-2.2,1.6-1-1-3.2c-2.6-2.2-3.2-3.2-5.4-4.2
		c-2.2-1-4.5,0.3-4.2-1.3c0.3-1.6,2.6-2.2,0-2.2s-9.6,2.6-9.6,2.6s-1,2.9-1.3,4.8c-0.3,1.9-2.6,4.2-4.5,7.7c-1.9,3.5,0,3.5-1.6,5.4
		s-2.6,1.9-3.2,4.5c-0.6,2.6-3.5,4.5-3.8,6.4c-0.3,1.9,1,2.6-0.3,3.8c-1.3,1.3-1,2.2-2.2,3.8c-1.3,1.6-3.2,3.5,0.6,3.5
		c3.8,0,8.9-0.3,11.5,1.3c2.6,1.6,8.3,6.7,8.3,6.7s0.6,7.3,2.2,7c1.6-0.3,9.9-11.5,13.1-12.1c3.2-0.6,6.1-2.9,6.1-2.9L2687.2,639.3z
		"/>
	<path id="path16970" class="st0" d="M2628.7,671.2c0,0,6.7,1.6,8,1.6c1.3,0,7.7,0,9.9,0s7.3-4.5,6.7-6.4c-0.6-1.9-1.6-4.8-1.3-6.1
		c0.3-1.3-3.8-6.1-5.4-6.7c-1.6-0.6-5.8-2.6-7.7-2.6c-1.9,0-5.1,1-7,2.2c-1.9,1.3-2.9,3.8-3.8,5.8c-1,1.9-1,3.5-0.6,4.8
		C2627.7,665.2,2629,671.9,2628.7,671.2z"/>
	<path id="path17857" class="st0" d="M2627.1,640.6c0,0,4.2,1.3,5.4-0.6s3.5-7.3,3.5-9.9c0-2.6,1-5.1-0.3-6.7c-1.3-1.6-1-4.5-1-4.5
		s4.2,5.8,4.5,3.8c0.3-1.9,0-8,1.6-9.3c1.6-1.3,3.8-5.8,3.8-5.8s6.7-2.2,5.8-3.8s-2.2-0.6-4.8,0c-2.6,0.6-0.3-2.2,1.3-3.5
		c1.6-1.3,1.3-1.9,1.3-1.9l-4.5-2.9c0,0-1-1-3.8-1s-2.6,2.6-5.4,2.9c-2.9,0.3-1.6,1.3-3.8,2.9c-2.2,1.6-6.4,3.2-6.4,3.2l-3.8,5.8
		l0.3,3.5v2.6l4.8,10.9l-0.3,4.2l2.6,2.2L2627.1,640.6z"/>
	<path id="path18744" class="st0" d="M2615.9,666.1l3.5-3.2l1.6-1.9l-0.3-4.8l-4.8,4.5V666.1z"/>
	<path id="path19631" class="st0" d="M2600.6,673.1l11.2-6.4l1,9.9l2.6,3.2c0,0-1.6,0-1.6,2.2c0,2.2,1,5.4-0.3,6.7s-3.2,2.2-3.2,2.2
		l-3.2-1l-2.6-4.8l-2.6-3.5L2600.6,673.1z"/>
	<path id="path20518" class="st0" d="M2614.6,630.6l-2.9-7.3l-2.6-9.9l2.9-10.5c0,0-3.2-10.5-4.2-12.5c-1-1.9-6.1-7.3-6.1-7.3
		l-3.2-1.3c0,0-1.9,2.9-1.9,4.8c0,1.9,3.2,7.3,3.2,8.6s1.3,2.9,1,4.2s-0.3,4.2,1,4.2c1.3,0,3.5,2.9,2.6,4.5c-1,1.6,0,4.8,1.3,7
		c1.3,2.2,4.5,9.3,4.5,10.5c0,1.3,2.6,6.1,2.6,6.1L2614.6,630.6z"/>
	<path id="path21405" class="st0" d="M2578.8,557.8l0.3,9.3l-7.7,3.5l-8.6-8l-4.8-1.6l-0.3,1.6l3.8,17.6l-3.5,13.4l-2.2,3.2l1.6,2.2
		l-3.2,3.2v5.8l-3.2,2.2l-1.9,11.5l2.6,8l-7-0.6l-2.2,4.8l7.7,5.8l-1.6,1.9l2.9,7.7l5.1-5.1l0.6-5.8l8-1.6l1.6,3.2l6.7,3.8l4.2-2.6
		l0.6,5.4l4.2,5.4l2.6,5.8l4.5,1.6l-6.7,7.3l1,1.9l0.3,8.6l-3.5,5.4v2.9l-4.5-0.3l-10.5,5.4l-5.8,0.6l-4.2,4.5l1.3,5.4
		c0,0,7.3,1.9,10.9,1c3.5-1,5.1-1.3,8.3-0.6s3.5,1,6.4-0.6c2.9-1.6,10.5-8.6,10.5-8.6s1.6-3.8,1.9-5.8c0.3-1.9,1.6-6.4,2.2-8.3
		c0.6-1.9,0.6-9.3,0.6-9.3l4.2-3.5l3.5-3.8l-1.3-6.1h-2.6l-1.6-6.4l-5.1-21.7l4.5-2.6l3.5-4.5v-3.5c0,0-2.6-2.9-4.5-2.9
		s-4.8,3.5-4.8,3.5l-2.2-8c0,0,3.2,0.3,4.8,0.3c1.6,0,4.8,0.3,3.2-1.6c-1.6-1.9-4.5-4.8-4.5-6.7s2.2-3.2,1-6.4
		c-1.3-3.2-2.6-6.7-4.8-6.7s-3.8-1.9-3.8-1.9l-0.3-5.8c0,0,3.2-3.5,2.9-4.8c-0.3-1.3-1.9-4.2-1.9-4.2l-3.5-3.5l-1.9-9.3
		L2578.8,557.8z"/>
	<path id="path22292" class="st0" d="M2529,711.5c0,0,3.2,1,4.8,0.6c1.6-0.3,4.2,0.6,4.8-0.6s1.6-4.5,3.2-4.5c1.6,0,4.2,0.3,2.2,3.2
		c-1.9,2.9-0.6,2.6,0,5.8c0.6,3.2,0.3,5.4,3.5,5.8c3.2,0.3,6.1,0.3,8.9,0.3s2.9-0.3,3.2-2.2c0.3-1.9-0.3-2.6,1-4.5
		c1.3-1.9,2.6-3.5,1.6-5.4s-1.9-3.5-4.5-3.5s-3.2-1.3-5.4-2.9c-2.2-1.6-1-2.2-2.6-4.5c-1.6-2.2-4.5-2.2-6.1-2.2
		c-1.6,0-3.8,1.6-6.1,2.2c-2.2,0.6-5.4,1.6-5.4,1.6s-1,3.5-3.2,6.1C2526.8,709.3,2528.7,712.1,2529,711.5z"/>
	<path id="path23179" class="st0" d="M2552.3,669.6l3.5-0.3l10.5-2.9l-1.6-7.7l-4.8-5.8l-4.5,5.1l-3.8,5.8L2552.3,669.6z"/>
	<path id="path24066" class="st0" d="M2570.2,667.1l5.8-1.3l0.6-1.9l-1.6-4.5v-4.5l-4.8-2.2l1,6.7l-1.6,5.8L2570.2,667.1z"/>
	<path id="path24953" class="st0" d="M2603.8,645.7l2.2-3.8l-1.3-4.2l-5.4,2.9L2603.8,645.7z"/>
	<path id="path25840" class="st0" d="M2241.1,248.2l14.9-7.9h10.8l24.9,11.1l5.9,13.1l5.2,5.2l8.6,3.8l10.8,2.3l4.3,5.2l5.6,14.9
		l3.4,5v5.4l3.4,3.8l-3.4,4.1l1.4,5.9l3.8,2.7l1.8,7.7l1.8,1.8l-2.5,3.6l23.5,18.1l-1.8,4.1l5.9,4.3l-2.7,4.3l16.9,12.4l-2.9,5.2
		l10.2,7.9l-0.5,2.7l2.7,9l-1.8,0.2l12,16.9l4.7-8.1l4.5,5.6l4.7-3.4l2.5,1.6l4.3-6.3l9.3-5l10.8-11.3l13.3-9.7l12.4-2.5l6.8,41.4
		l5.2-0.5l1.6,10.2l3.6,0.2l4.1,24.2l6.8-1.1l5.4,25.1l-7.2,2.3l2.3,10.4l-5,0.5l-9.5,5l4.3,6.8l-3.6,2c0,0,0,2,2.5,2.7
		c2.5,0.7,4.5,3.6,6.6,5.6c2,2,5.2,7.2,5.2,7.2s-1.8,3.8-2.7,4.3s0.2,12.4,0.2,12.4l-12.4,3.2c0,0,0.2-4.5-1.8-4.5
		c-2,0-3.2,1.8-3.2,1.8s-3.4,0.9-5.4,0.9c-2,0-2.7,2.3-4.5,1.1c-1.8-1.1-2-2-3.4-2s-4.5,0-4.5,0l4.1,6.1l7.5,14.2l-0.7,3.2
		l-11.3,8.8l-6.1-3.2l-1.6,2v5.4l-2.5,1.1c0,0-0.7-6.1-2.3-4.3c-1.6,1.8-1.1,3.4-1.1,3.4l-9.7,11.1l1.6,2.3l-2,1.8l-2.3-0.9
		l-7.9,9.3c0,0-4.7,0.5-5.2,2.5c-0.5,2,0.7,5.2,0.2,6.8c-0.5,1.6-5,4.5-5,4.5s-10.4-2.5-12.4-2.5c-2,0-2,2.7-1.1,4.7
		c0.9,2,22.6,37.5,22.6,37.5l-3.2,2.5l-7.5-1.1l-16.7,11.3l-0.5,4.3l2.3,0.7l31.6-2l23,67.6l-3.2,8.8l-45.4,12.9l-14.7-12.7
		l-7.2-3.8l2.9-4.5l11.5,9.5l5.9-1.8l-0.2-6.3l-5.9-9l-0.9-4.1l-1.8-4.7l-5.6,1.4l-4.1,3.2l-2.9-0.9l-9.5,2.5l-3.2,3.8l-5-4.1
		c0,0-1.4,2-1.4,3.8c0,1.8,2.9,7.2,4.1,7.9c1.1,0.7,2.3,1.8,2.3,1.8l-1.8,3.2l-3.4,0.7l-4.7-3.2l-0.2,4.5l-31.9-10.8
		c0,0-3.8,1.1-6.1,2.3c-2.3,1.1-4.5,2.7-4.5,2.7l-0.7,4.3l0.5,15.8l-5.6,0.9l-3.4-0.9l-2,1.4l-42.9,5h-12.7l-74.8,13.1l-29.8-1.1
		l-12.9-7c0,0-8.8-0.9-10.4-2.3c-1.6-1.4-2-7.7-2.3-8.6c-0.2-0.9-1.8-4.7-1.1-6.1c0.7-1.4,7.2-6.3,9.3-6.6c2-0.2,6.6-1.4,6.6-1.4
		l0.7-2.3l3.6-0.5l2.5,1.8l-0.7,1.1l6.1-1.1l27.3,6.3l-0.5-2.7h2c0,0,1.8-2.5,0.9-3.8c-0.9-1.4-3.8-1.4-3.8-1.4l-2.3-1.8l3.2-6.1
		l-11.8,1.8l-10.8-3.2l0.7-3.2l-3.6,2.5l0.7-9.3l6.3-3.8l-1.8-2.9l1.4-0.2l-1.6-3.4l4.1-2.9l-1.8-2l-4.7,1.8l-1.8-2l6.3-6.1
		l-3.2-1.8l-3.2,0.5l-2.3-2.5l-2.7,2.9c0,0-0.9-5.4-3.8-6.8c-2.9-1.4-16.5-12.2-19.4-14c-2.9-1.8-6.6-3.4-9.3-3.4s-5,0.7-7-0.2
		c-2-0.9-0.2-2.7-4.3-3.4c-4.1-0.7-20.6-2.7-22.1-3.8c-1.6-1.1-12-8.8-12-8.8l-1.6,2.7h-2.3c0,0,2.3-8.6,1.1-8.8
		c-1.1-0.2-6.3-4.7-7-6.6c-0.7-1.8-3.4-9.3-4.1-11.5c-0.7-2.3-3.6-15.4-4.3-18.8c-0.7-3.4-1.6-11.7-1.4-14.7
		c0.2-2.9,1.4-14,2.3-15.4c0.9-1.4,9.9-27.1,10.4-28.7c0.5-1.6,3.2-5.9,3.2-5.9l-2.5-1.8l7.7-9l1.1-2.7l4.5,2.5l3.6-5.2l-3.8-2.9
		l5.2-6.1l7.5,3.8l3.4-4.3l-2-2.9l4.1-4.7l2.3,1.4l2.9-3.6l-6.6-5.2l17.2-19l3.6,2.7l7.9-5.6l-3.4-2.5l12.9-9.3l8.4,7l1.8-1.8
		l4.5,0.5l-5-4.7l-0.7-5.6l10.8,8.1l2.3-1.4l1.4-3.6l-8.6-5.9l6.3-3.4l4.1,2.5l4.5-3.6l-5.4-3.2l-5.6-0.5l-8.4,5l-2.5,1.1l2.7-12.2
		l-2.3-0.2l-14.2,19.2l-11.3,1.6l-4.3-3.8l-1.8-17.9l-2.3-1.1l1.4-1.8l4.7,2.7l2,18.3l9.3-1.6l3.4-9.9l-2.7-4.3l-13.3-9.5l-5.4-9.9
		l0.7-10.8l38.2-31l18.1-42.5l8.4-9.3h3.2l1.4,1.4l25.1-0.7c0,0,4.7-1.1,6.1-2.3c1.4-1.1,13.6-10.6,13.6-10.6l5,6.6l0.7-1.6
		l-0.5-6.1l7-23.7l3.8-4.7l6.1-14l4.5-6.3l-0.2-15.8l-2.7-9.3V248.2z"/>
	<path id="path26727" class="st0" d="M2498.3,587.5l24.3,1.3l1.6-5.8l5.8-3.8l3.5-13.4l-9.6-5.1l-21.7,14.1L2498.3,587.5z"/>
	<path id="path27614" class="st0" d="M2531.9,589.1l4.8-5.8l11.2-4.2l3.8,0.6l-0.3,4.8l-12.1,21.7L2531.9,589.1z"/>
	<path id="path28501" class="st0" d="M2490,631.3l9.3-6.4l22.7-9.9l5.4,0.3l5.8-3.2l-3.8-7.3l-4.2-3.2l-6.7,1.9l5.4-10.5l-3.2-1.3
		l-3.8,4.8l-8.6-1.6l0.6,3.8l-4.8-1.6l-1.6-1.9l-3.8,2.6l-5.8,9.6l-2.9-3.2h-5.4l0.3,8.9l5.1-2.6l-1.9,15.3h-5.1l0.6,4.2L2490,631.3
		z"/>
	<path id="path29388" class="st0" d="M2447.8,635.1l18.9-5.4l12.1-5.8l0.3-10.2l1.9-10.5l-5.1-7l-20.8,14.4L2447.8,635.1z"/>
	<path id="path30275" class="st0" d="M2545.9,642.8l-5.4,1.9l-9.6-4.8l1.6-6.7l2.9,1l-0.3-4.8l-6.7,1.9l-2.6,11.5l-2.6,3.8l1.3,11.8
		l-6.1,3.5l-2.2,3.8l10.2,9.9l14.1-6.7L2545.9,642.8z"/>
	<path id="path31162" class="st0" d="M2502.8,667.4l5.4,1l10.9-13.4l0.3-15.7h-6.1l-2.9,2.9l3.8,4.2h-8l0.3-9.6l-7-3.2l3.8,9.3
		l-4.2,1.9l-2.2,5.8l0.6,4.8l5.1,5.4V667.4z"/>
	<path id="path32049" class="st0" d="M2491,677.6l-9.6,7l18.5,16l12.1-5.1l2.2-8L2491,677.6z"/>
	<path id="path32936" class="st0" d="M2471.2,709.6c0,0-0.6,0-2.2,1c-1.6,1-5.1,5.8-5.1,5.8l2.6,12.1l7.3-1l-7,10.9l4.5,14.4
		l4.5-2.6l10.2-16.9l0.6-8.6c0,0-3.5-8.9-4.8-9.3c-1.3-0.3-3.5-1.9-5.1-2.2C2475,712.8,2471.5,710.2,2471.2,709.6z"/>
	<path id="path33823" class="st0" d="M2471.5,662.9v-8l-3.5-7l1-4.8l-3.5-2.9l0.3,10.5l3.2,3.8l-1.6,1.6L2471.5,662.9z"/>
	<path id="path34710" class="st0" d="M2470.8,695.2l1-7l-1.9-1.6l-0.6-11.5l-1.9,0.3l-0.3,12.8l2.9,0.6l-1,4.8L2470.8,695.2z"/>
	<path id="path37371" class="st0" d="M1968.4,532.3l-1.4,3.6l5,4.5l2.7-1.8c0,0,7.2,6.8,7.2,9.5c0,2.7,0.9,17.6,0.9,22.6
		s-0.5,26.2,0.5,29.4c0.9,3.2,5.4,11.3,5.4,11.3l4.5,7.7l-2.7,4.5l5-0.5l2.3,5l-1.8,5l5.9,6.8c0,0,1.4,8.1,3.2,9.9s6.8,5.9,8.6,9.5
		c1.8,3.6,5.4,5,5.4,5l7.2,6.3l-15.8,41.1c0,0-13.1,8.1-15.8,11.7c-2.7,3.6-7.7,14-9.9,15.8c-2.3,1.8-10.4,8.1-13.6,10.8
		c-3.2,2.7-1.4,6.3-5,8.6s-23.5,21.7-26.2,24.9c-2.7,3.2-4.5,5-8.6,9c-4.1,4.1-8.1,13.6-8.1,13.6l-8.1,10.8h-6.8l-11.3,20.3l-5-1.8
		c0,0-4.1,4.1-7.7,7.7c-3.6,3.6-7.2,10.4-9,13.1c-1.8,2.7-2.3,4.1-4.1,4.1c-1.8,0-4.5,2.3-5.4,4.5c-0.9,2.3-2.7,2.3-5.9,3.6
		c-3.2,1.4-5.9,1.8-5.9,1.8l-28.9,35.2l-9,5.4l-1.8-4.1l-5-7.2l1.4-6.8h14l13.1-16.3l1.8-6.8l-4.1-8.1l-7.2-3.6l-8.6,0.5v3.2l-9,1.4
		l-0.9,3.2l1.4,2.7l-5,1.4c0,0,0,7.2,0.5,10.4c0.5,3.2,0,7.2,0,7.2l-4.5,0.5l-1.4,4.1l-3.6,2.7l-0.5,3.6l-9.5,4.5l-49.7,32.1
		l-5.9-0.9l-13.1,9.9h-5.4l-3.2-1.8h-5.4v3.6l-7.2,2.3l-13.1,18.5l-3.6,2.3l1.4,4.1l-8.6,2.3l-3.6-3.2l-5.9-2.7l-0.9-3.2h-10.8
		l-12.7,6.8l-0.9,5l-5.4,5.4l-5.9,4.5l-4.1,8.1c0,0-7.7,3.6-12.2,3.6c-4.5,0-4.1,1.4-6.3,2.7c-2.3,1.4-4.5-2.3-10.4-2.3
		s-17.6,3.2-19.9,7.2c-2.3,4.1-1.4,5.4-6.8,8.1c-5.4,2.7-7.2,3.2-10.8,3.2c-3.6,0-4.5,0-7.2,0c-2.7,0-7.7,0.5-9.9-2.3
		c-2.3-2.7-4.1-7.7-5.9-10.4c-1.8-2.7-6.8-14-6.8-16.7c0-2.7-2.7-9.5,0-10.8c2.7-1.4,5.9-4.5,5.9-8.1c0-3.6,1.8-7.2,1.8-7.2l0.5-2.3
		l10.8-7.7h3.6l2.7-5.4l4.5-0.9l1.8,0.9l3.2-2.3l-5-9.9l2.3-3.2l-3.6-6.8l5.9-18.5l-1.4-7.2v-3.6l-4.5-5.4l-5-0.9v-2.7l3.2-4.1
		l-5-12.7l-3.2-2.7l4.1-6.8l7.2-7.7l3.6,2.3L1573,845l2.3-5.4l5.4-1.4l12.2-12.2h7.7l6.3,1.8l2.3,1.8l12.2,1.8l4.5-4.1l4.1-1.4
		l6.8-13.1l-0.9-8.1c0,0,5.4-22.1,6.3-24c0.9-1.8,1.8-6.3,5.9-5.9c4.1,0.5,8.6,1.8,10.8,0.5c2.3-1.4,7.7-6.3,7.7-6.3l1.4-13.6
		l11.3,4.1c0,0,0,3.2,2.7,3.2c2.7,0,5.4-1.4,5.4-1.4l-0.5-2.7h-5l-6.3-7.2l-10.8,1.8c0,0,1.4,1.4-0.5,3.6
		c-1.8,2.3-3.2,12.7-3.2,12.7l-16.7,2.7l4.5-24.9l1.8-2.3l1.8-13.6l-2.3-6.3l2.3-6.3c0,0,9.9-11.7,12.7-15.4
		c2.7-3.6,4.1-8.6,4.1-8.6s0.9-10.4,1.8-12.2c0.9-1.8,2.3-2.3,1.4-5c-0.9-2.7-3.6-9.5-3.6-9.5l-1.4,2.3l0.9,5l-2.7,5.9l-6.8-10.8
		l-4.5-3.6l0.9-24l4.1-2.3c0,0,0.9,2.3,3.2,2.3s4.1-0.5,4.1-0.5s3.2,1.4,1.4,4.5s-3.2,6.8-4.5,9.5c-1.4,2.7,1.4,9.5,1.4,9.5
		s0.5-2.3,1.8-4.5c1.4-2.3,2.7-6.8,2.7-6.8l3.6-12.2h2.3l-4.1-8.1h-4.1l-6.8-2.3l-1.8-7.2l0.5-5.4l-1.4-10.4c0,0,3.6-16.3,4.5-19.9
		c0.9-3.6,0-4.1,4.5-8.1c4.5-4.1,8.1-8.6,9.5-11.7c1.4-3.2,3.2-8.1,6.3-10.4c3.2-2.3,6.8-7.7,6.8-7.7l3.6,5l-0.5-6.3l5.9-5l2.7,2.3
		l1.4-3.2h6.3l1.8-2.3l3.6,0.5l-1.4,6.3l2.3,1.4l3.6-3.6l2.3,1.4l1.4-5.9l6.3,1.8l3.6,5v4.1l3.6,2.3v-2.3l5.4,1.4l5.4,0.5v-4.5
		l3.2,4.5h4.1l3.6,3.6c0,0,7.2,1.4,11.3,1.8c4.1,0.5,4.1,2.3,4.1,2.3l1.8,4.1l5-0.5l-1.8-4.5l4.5,1.8l1.8,4.1l3.2-0.9v-4.1l9-0.5
		l2.3,1.8l2.3-3.2h2.3l0.5-3.2l4.5,2.7c0,0,0-2.7,2.7-3.2c2.7-0.5,3.6-3.2,3.6-3.2s5-0.9,7.7-0.9c2.7,0,5.9,0.9,5.9,0.9l8.1,0.5
		c0,0,4.1,1.8,4.1,3.6c0,1.8,9.9,0.9,9.9,0.9l7.2-3.6l-0.5-3.2l5.4-0.9l11.7-5.9l4.1-0.5l3.2-2.7l20.8-1.8l7.2,2.3l0.9-2.7l11.3,0.5
		l8.6-5c0,0,5-5,8.1-5c3.2,0,11.7,0.9,14.5,0.9c2.7,0,6.3-2.7,6.3-2.7s3.2,2.7,5,2.7C1965.7,530.9,1968,532.3,1968.4,532.3z"/>
</g>
</svg>
