<?xml version="1.0" encoding="utf-8"?>
<!-- Generator: Adobe Illustrator 19.1.0, SVG Export Plug-In . SVG Version: 6.00 Build 0)  -->
<svg version="1.1"
	 id="svg2" sodipodi:docbase="C:\Documents and Settings\John Perry\My Documents\My Pictures\belen_map" inkscape:version="0.44.1" sodipodi:version="0.32" sodipodi:docname="New_York_City_District_Map.svg" xmlns:dc="http://purl.org/dc/elements/1.1/" xmlns:cc="http://web.resource.org/cc/" xmlns:rdf="http://www.w3.org/1999/02/22-rdf-syntax-ns#" xmlns:svg="http://www.w3.org/2000/svg" xmlns:sodipodi="http://sodipodi.sourceforge.net/DTD/sodipodi-0.dtd" xmlns:inkscape="http://www.inkscape.org/namespaces/inkscape"
	 xmlns="http://www.w3.org/2000/svg" xmlns:xlink="http://www.w3.org/1999/xlink" x="0px" y="0px" viewBox="1020 -895 2652 2582"
	 style="enable-background:new 1020 -895 2652 2582;" xml:space="preserve">
<style type="text/css">
	.st0{stroke:#000000;stroke-width:3.5433;}
</style>
<defs>
	
	
		<inkscape:perspective  inkscape:persp3d-origin="464 : 177.66667 : 1" sodipodi:type="inkscape:persp3d" inkscape:vp_x="0 : 266.5 : 1" inkscape:vp_y="0 : 1000 : 0" inkscape:vp_z="928 : 266.5 : 1" id="perspective15173">
		</inkscape:perspective>
</defs>
<sodipodi:namedview  inkscape:guide-bbox="true" inkscape:current-layer="layer3" inkscape:window-y="-4" inkscape:window-x="-4" inkscape:pageopacity="0.0" inkscape:pageshadow="2" inkscape:window-width="1280" inkscape:window-height="712" showguides="true" inkscape:cy="1980.6794" inkscape:cx="1084.4817" inkscape:zoom="0.29202169" pagecolor="#ffffff" bordercolor="#666666" borderopacity="1.0" objecttolerance="10.0" gridtolerance="10.0" guidetolerance="10.0" id="base">
	</sodipodi:namedview>
<path id="path3647" class="st0" d="M2155.2,421.7c0,0-11.1-6.8-11.1-12.8c0-6,1.7-11.1,1.7-11.1l-12,0.9l19.7-129.3l18,2.6l1.7-21.4
	l-14.6-4.3l1.7-14.6l12.8,4.3l1.7-13.7l-15.4-0.9l3.4-22.3l14.6,1.7v-7.7h-12.8V188h7.7l-3.4-10.3l-6.8-2.6l7.7-42.8h5.1l5.1-12.8
	l-7.7-4.3l7.7-20.5l9.4,2.6l4.3-11.1l-8.6-1.7l2.6-5.1l-5.1-1.7l17.1-21.4l7.7,4.3l3.4-5.1l-10.3-4.3l24-47.9l11.1,5.1l2.6-5.1
	L2228-2.1l12.8-23.1l10.3,4.3l4.3-7.7h-6.8l13.7-23.1h6.8l0.9-3.4h-11.1l2.6-5.1h10.3L2388-277.8l6-12.8l-4.3-3.4l17.1-23.1l5.1,2.6
	c0,0,18.8-24,19.7-29.1s22.3-54.8,22.3-54.8s17.1-50.5,17.1-53.9s-5.1-31.7-4.3-35.1s8.6-6.8,11.1-10.3c2.6-3.4,53.1-89.9,53.1-89.9
	l-1.7-1.7l7.7-12l-3.4-3.4l5.1-24l12-18.8l12.8-6.8l14.6,2.6c0,0,6,4.3,6,8.6c0,4.3,6.8,2.6,14.6,6s19.7,7.7,25.7,9.4
	s6.8,7.7,6,17.1c-0.9,9.4-7.7,28.3-15.4,36.8s-19.7,28.3-26.5,37.7s-22.3,39.4-27.4,47.9c-5.1,8.6-28.3,64.2-30.8,69.3
	c-2.6,5.1-9.4,24.8-9.4,31.7s2.6,51.4,3.4,56.5c0.9,5.1,3.4,41.9,3.4,50.5c0,8.6-2.6,24-2.6,31.7s0.9,15.4,7.7,25.7
	c6.8,10.3,14.6,22.3,14.6,30.8c0,8.6,5.1,29.1,0.9,35.1c-4.3,6-18.8,16.3-24.8,22.3c-6,6-14.6,24.8-14.6,29.1
	c0,4.3-10.3,13.7-18.8,21.4c-8.6,7.7-10.3,13.7-6,23.1s8.6,24.8,5.1,28.3c-3.4,3.4-40.2,53.1-42.8,59.1c-2.6,6-25.7,37.7-34.2,47.9
	c-8.6,10.3-18.8,29.1-30,44.5c-11.1,15.4-21.4,36-25.7,45.4s-3.4,34.2-3.4,37.7c0,3.4,0,9.4,0,9.4l-6-3.4l-0.9,24
	c0,0,12.8,11.1,12.8,17.1s-7.7,62.5-11.1,69.3c-3.4,6.8-9.4,36-16.3,37.7s-15.4,6-15.4,6v3.4l-47.9,7.7l-0.9-6.8l-30.8,4.3l-18,12.8
	l6.8,7.7l-29.1,29.1l-9.4-6.8l-6,3.4l3.4,10.3h-6.8l-4.3-7.7c0,0-3.4,2.6-7.7,3.4S2156.9,423.4,2155.2,421.7z"/>
<path id="path5419" class="st0" d="M2127.8,466.6c0,0,0,8.5-4.8,12.1c-4.8,3.6-18.2,18.2-20.6,22.4c-2.4,4.2-4.8,12.1-3.6,15.7
	s7.3,8.5,12.7,8.5s31.5-23.6,35.1-23.6c3.6,0,7.9,2.4,12.1-2.4c4.2-4.8,4.2-7.3,6.7-9.7c2.4-2.4,1.8-9.1-1.8-13.3
	c-3.6-4.2-3.6-7.9-10.3-9.7c-6.7-1.8-15.1-1.8-18.2-1.2C2132,466,2126.6,468.4,2127.8,466.6z"/>
<path id="path5421" class="st0" d="M2020.7,500.5c0,0,7.9,0,4.8-6.7c-3-6.7-9.7-10.3-14.5-10.3c-4.8,0-6.1,3.6-3.6,6.7
	c2.4,3,3.6,7.3,6.7,9.1C2017,501.1,2021.3,501.7,2020.7,500.5z"/>
<path id="path6308" class="st0" d="M2032.2,450.9l8.5-10.3h7.3l1.8-7.9l-13.3-10.3l-16.9,19.4L2032.2,450.9z"/>
<path id="path7195" class="st0" d="M2400.8,126.4c0,0,8.5-13.9,12.7-15.7c4.2-1.8,13.3-15.1,15.7-18.8c2.4-3.6,11.5-13.3,13.9-16.9
	s-0.6-4.2,6.7-11.5c7.3-7.3,32.7-44.2,33.9-49s7.3-6.7,9.7-12.1c2.4-5.4,6.1-9.1,6.1-15.7c0-6.7,2.4-13.9-2.4-9.7
	s-13.3,8.5-16.9,13.9s-3.6,12.7-6.1,15.7c-2.4,3-11.5,12.7-12.7,16.9c-1.2,4.2-13.3,17.6-15.1,21.2c-1.8,3.6-6.7,8.5-6.7,10.9
	c0,2.4-10.9,16.9-13.9,21.8c-3,4.8-16.3,21.2-16.3,24.8s-9.7,19.4-9.7,19.4L2400.8,126.4z"/>
<path id="path8082" class="st0" d="M2550.9-69.7c0,0,5.4,5.4,9.1,1.8c3.6-3.6,7.9-6.7,12.1-7.9c4.2-1.2,10.3-3.6,10.3-7.9
	s9.1-29.7,12.7-34.5c3.6-4.8,23-18.2,23-23.6s-6.7-23.6-9.7-26c-3-2.4-18.8-17.6-23-21.2c-4.2-3.6-3.6-7.3-8.5-7.3
	s-9.1-0.6-10.9,2.4c-1.8,3-6.7,13.9-6.7,18.8s1.2,9.1,1.2,15.1s-4.2,15.1-9.1,21.8c-4.8,6.7-15.1,16.9-18.2,21.2
	s-10.3,17.6-12.7,21.8s-3,14.5,2.4,15.7c5.4,1.2,13.3,3.6,16.9,4.2C2543.7-74.6,2550.3-68.5,2550.9-69.7z"/>
<path id="path8969" class="st0" d="M2630.2-883.3c0,0-8.5,30.3-8.5,41.2c0,10.9-9.7,26.6-10.9,33.9c-1.2,7.3-10.9,38.7-12.1,47.2
	c-1.2,8.5-13.3,52.1-15.7,58.1c-2.4,6.1-13.3,38.7-13.3,38.7s7.3,0,9.7,1.2c2.4,1.2,6.1,10.3,14.5,14.5c8.5,4.2,14.5,5.4,20,6.1
	s21.2,5.4,24.8,13.3c3.6,7.9,1.8,17.6,1.8,23c0,5.4-5.4,22.4-15.7,35.7c-10.3,13.3-24.8,33.9-28.5,39.3c-3.6,5.4-10.3,22.4-13.3,26
	c-3,3.6-15.1,24.2-20.6,33.3c-5.4,9.1-15.1,33.9-17.6,40.6c-2.4,6.7-13.3,29.7-14.5,38.1c-1.2,8.5,1.8,29.1,2.4,38.7
	c0.6,9.7,4.2,41.8,3.6,49.6c-0.6,7.9-0.6,40,0,44.2c0.6,4.2,0.6,20.6,1.8,24.8s7.9,19.4,10.9,23c3,3.6,9.1,15.1,12.1,16.3
	s12.7,0,12.7,0s4.2-0.6,6.7,1.2c2.4,1.8,10.3,10.3,10.3,10.3l16.9,16.3c0,0,7.3,5.4,13.9,5.4c6.7,0,6.7,0,6.7,0s0,1.8,8.5-4.2
	c8.5-6.1,16.3-19.4,20-24.8s6.7-20,11.5-20s9.7-0.6,9.7-4.8s4.8-4.8,14.5-4.8s18.2,0,26,0c7.9,0,13.9,0,16.9,6.1
	s13.9,21.8,15.7,22.4c1.8,0.6,10.9-6.1,15.7-6.1s25.4,2.4,25.4,2.4l1.2,3.6l5.4,1.8v6.1c0,0,12.1-1.2,14.5-4.8
	c2.4-3.6,16.9-31.5,16.9-31.5l-13.3-36.3l-5.4-7.9l-30.3-12.7l-10.9-11.5l4.2-5.4l11.5,10.9l30.9,12.1l16.3,24.8l22.4,2.4l5.4-3.6
	h11.5l3,13.3l-1.8,13.3l10.9,24.8l42.4-9.7l-4.2-14.5l0.6-7.9l-10.9-6.1v-6.1l6.7-14.5l-13.3-9.7l-6.1,0.6l-13.9-4.8l-0.6-7.3
	l2.4-4.2l3,8.5l9.7,4.8l7.9-1.2l15.1,11.5l3.6,13.3h4.2l0.6-7.9c0,0,3.6-4.8,5.4-9.1s0.6-16.3,4.8-18.2c4.2-1.8,6.1-0.6,7.3-6.1
	c1.2-5.4,1.2-11.5,4.2-12.7c3-1.2,4.2-5.4,4.2-5.4l-10.3-50.2l20,39.3c0,0-9.1,26-8.5,28.5c0.6,2.4,2.4,9.7,0.6,16.9
	c-1.8,7.3-1.2,16.9-1.2,16.9l10.9,32.1l26.6,4.2l5.4-33.9l23.6-0.6c0,0,12.1-7.9,15.7-9.1c3.6-1.2,24.8-6.7,24.8-6.7l32.1,6.1
	l24.8,24.8l11.5-1.2l18.8,15.7c0,0,9.7-0.6,15.7,5.4c6.1,6.1,11.5,10.9,15.7,7.9c4.2-3,6.1-10.9,3-14.5c-3-3.6-33.3-21.8-36.3-21.8
	s-9.1-1.2-12.7-1.2c-3.6,0-8.5-9.1-10.9-10.3c-2.4-1.2-4.8-4.8-6.1-10.3s-7.3-16.3-7.3-16.3l13.9,13.9c0,0,0,9.7,4.2,8.5
	c4.2-1.2,12.7-10.9,12.7-10.9s1.8-5.4,6.1-6.1s7.9-4.2,3.6-6.1c-4.2-1.8-19.4-11.5-19.4-11.5l-7.9,1.2l-10.3-12.1l-6.7-31.5
	l-4.2-2.4l-13.3,7.9l-11.5,3l-1.2-13.9l5.4-7.9l-10.9-20.6l-4.2-23l-0.6-24.2l7.9-1.8l-5.4-20l-7.9-7.9l6.7-3l6.7,4.8l-0.6-13.3
	l-5.4-4.2c0,0-3-6.1-2.4-10.9c0.6-4.8,3-6.7,3-6.7s0-12.1-2.4-12.1c-2.4,0-6.1-3-5.4-7.9s3-10.3,3-10.3l-12.1-18.8l18.2-7.9
	l0.6-15.7L3060-554l-8.5-15.7l-1.8-26l-8.5-6.1l-8.5-31.5c0,0,13.9-44.2,15.1-50.2s-0.6-18.8-0.6-18.8l6.7-1.8l1.2,10.3
	c0,0-2.4,29.1-3,32.7c-0.6,3.6-7.3,8.5-7.3,8.5l1.8,4.8l-2.4,9.1l2.4,6.7l-4.2,6.7l1.2,15.7l10.9,8.5l6.7,6.7c0,0-1.2-7.3,2.4-10.3
	c3.6-3,7.3-5.4,7.3-5.4l1.2,12.1l3.6,0.6l-9.7,15.7l-0.6,8.5l8.5-3.6v9.7l5.4-5.4l12.7,7.9l16.9,27.2l1.2-13.9l7.9-3l3.6,0.6
	l-3.6,38.1l4.2,0.6l0.6,7.3l-3,1.2l17.6,18.2l6.7,15.1c0,0,1.2-11.5,4.8-14.5s6.7-4.8,6.7-8.5c0-3.6-6.1-12.7-4.2-16.3
	c1.8-3.6,7.3-10.9,9.7-12.1c2.4-1.2,8.5-5.4,8.5-5.4l3-13.9c0,0,9.7-9.1,9.7-11.5c0-2.4,5.4-41.8,5.4-41.8s12.7-3,19.4-7.3
	s12.7-8.5,12.7-11.5c0-3,3-6.7-0.6-9.7c-3.6-3-9.1-2.4-11.5-2.4s-6.1-2.4-6.1-2.4s12.1-20.6,12.1-24.8s-4.2-12.1-9.1-12.1
	c-4.8,0-15.1,0-15.1,0l3-10.3l-9.7,2.4l-0.6,4.2l-9.1,3.6l-5.4,10.3l4.2,4.8l-5.4,23.6l-11.5,4.2l-21.2,41.8h-4.2l-1.2-9.7l-7.9,1.8
	v-8.5l-20-16.3l23.6,13.9l4.2-1.8l3-9.1l9.1-11.5l-3-2.4L3149-637h6.7l1.2-10.9l6.7-16.3l-1.8-9.7h4.8l8.5-16.9l-139.2-46v7.9
	l-71.4-26.6l-5.4-20.6l2.4-12.1c0,0-5.4-7.9-7.3-15.1c-1.8-7.3-4.2-12.1-4.2-12.1h-14.5l-1.8-7.9l-23.6-11.5l-3.6,5.4l-9.1-7.3
	l8.5-13.9l-8.5-0.6l-5.4,7.3l-3.6,6.1l4.2,4.8c0,0-4.8,6.1-9.7,6.7s-4.2,8.5-4.2,8.5v7.9l-7.3,7.9l-3.6,1.8v7.3l-12.1-3
	L2630.2-883.3z"/>
<path id="path9856" class="st0" d="M2728.9-171.4l-9.1,47.2h7.3l7.9,18.8l46,9.1l26.6-1.2l11.5-5.4c0,0-2.4-8.5-1.8-10.9
	c0.6-2.4-13.9-21.8-13.9-21.8l-8.5,6.1v-12.1l-13.9-9.7l-23.6-5.4l-16.9-16.3l-5.4,3.6L2728.9-171.4z"/>
<path id="path10743" class="st0" d="M2682.3-178.1h9.7l7.3-10.3l-8.5-9.1l-4.8,3.6L2682.3-178.1z"/>
<path id="path11630" class="st0" d="M3179.3-527.4l-3.6,1.8l15.7,28.5l-1.8,6.7l-1.8,7.9c0,0-5.4,9.7-5.4,12.7s9.7,13.9,10.9,16.3
	s-3,8.5,1.2,10.3c4.2,1.8,7.3,8.5,7.3,11.5c0,3,6.7,4.8,7.9,9.7s0,7.3,4.2,11.5c4.2,4.2,6.1,4.8,9.1,0.6s9.1-7.9,7.3-14.5
	c-1.8-6.7,1.2-15.7-4.2-18.8c-5.4-3-5.4-9.1-3.6-12.7c1.8-3.6,7.9-6.1,4.8-10.3c-3-4.2-8.5-20-8.5-25.4c0-5.4-6.1-3-9.1-5.4
	c-3-2.4-10.3-16.9-11.5-21.8c-1.2-4.8-3.6-13.9-3.6-18.8c0-4.8-1.8-4.8-4.2-4.8s-4.2,3.6-4.2,3.6l-4.2,1.8l-1.8,4.8L3179.3-527.4z"
	/>
<path id="path12517" class="st0" d="M3272.5-472.3l13.9,14.5h7.9l-3.6-7.9l-6.1-7.9l3-16.3l0.6-20l4.2-6.7l12.7-2.4l-27.8-33.3
	l-7.9,3v43l-1.2,4.2l7.3,15.1L3272.5-472.3z"/>
<path id="path14309" class="st0" d="M2397.8,205.1l5.4-35.7c0,0-0.6-9.1,1.8-12.1c2.4-3,16.9-28.5,18.8-31.5
	c1.8-3,33.9-46.6,36.3-50.2s26-43,29.1-47.2s7.9-12.1,13.3-15.1c5.4-3,13.3-7.9,15.7-10.3c2.4-2.4,6.1-11.5,6.1-11.5l-13.9-6.1
	c0,0-3.6-8.5-1.2-12.1s9.1-10.3,12.1-15.7c3-5.4,4.8-11.5,4.8-11.5l15.7,7.9v6.7c0,0,8.5,1.8,10.9,0c2.4-1.8,3-1.8,3-1.8
	s7.3-5.4,10.3-7.9c3-2.4,6.1-4.8,9.1-6.7c3-1.8,26.6-29.7,26.6-29.7s12.7-15.7,13.9-18.2c1.2-2.4,1.2-3.6,4.8-6.1
	c3.6-2.4,20.6-16.9,20.6-16.9l17.6,5.4l-1.8,3.6l12.1,13.9l3.6-7.3l-3-1.8l7.3-5.4l22.4,18.2h4.8l6.1,8.5L2699.3-80l9.1,6.1l-3,4.8
	c0,0,11.5,7.3,12.7,9.7c1.2,2.4,12.1,10.9,12.1,10.9l-5.4,8.5l-0.6,7.9l6.7,1.2l-3,12.1l5.4,1.2l4.2-4.2l24.2-2.4l-5.4-35.1
	l51.5-7.9c0,0,5.4,1.2,10.9,4.8s69.6,46.6,69.6,46.6s4.2,1.8,0.6,6.1c-3.6,4.2-8.5,13.3-8.5,13.3l14.5,6.7l1.8,8.5
	c0,0-6.7-7.3-10.9-7.3c-4.2,0-7.9-0.6-12.7,1.2c-4.8,1.8-7.9,1.8-12.7,1.8s-6.1,0-6.1,0s15.1,24.8,19.4,28.5s15.1,15.1,20,16.9
	c4.8,1.8,15.7,1.2,18.2,3c2.4,1.8,7.9,0,10.3-1.8s8.5,0,12.7-4.2s9.7-12.1,11.5-14.5c1.8-2.4,3.6-4.2,9.1-9.1s9.1-7.9,9.1-7.9
	s-20.6,3.6-25.4-0.6c-4.8-4.2-7.9-5.4-10.3-6.7c-2.4-1.2-8.5-15.1-8.5-15.1l-0.6-12.1l-3-6.1h4.8l2.4-5.4l-1.8-4.8
	c0,0,3.6-8.5,4.8-13.9s0-7.9,0-7.9l-5.4-1.8l-2.4-7.3v-16.9h-26.6l-0.6-4.2l-9.7-3.6l0.6-6.1l-6.7-6.1l10.9-3.6l6.7-5.4l5.4,0.6
	l6.7-6.1l3.6-11.5h-6.1l-1.8-4.8c0,0,6.1,0,3.6-4.2s-2.4-3-2.4-7.9s-0.6-8.5-0.6-8.5l6.1-3c0,0,10.9,9.1,14.5,9.1
	c3.6,0,9.1-1.2,9.1-1.2l-1.2-6.1l20.6-5.4l0.6,4.8l6.7-1.2c0,0,0-9.7,3-12.1c3-2.4,6.1-2.4,6.1-2.4s4.2-0.6,6.7,4.2
	c2.4,4.8,6.1,23,6.1,23s2.4,4.2-0.6,5.4c-3,1.2-3,1.2-3,1.2l3.6,12.1c0,0,1.2-2.4,6.7,0.6c5.4,3,7.3,3.6,7.3,3.6l7.9-2.4v-6.7
	l6.7-9.7l3.6,0.6l7.3-5.4l1.8-13.9l-7.9-10.3l13.3-2.4v-3.6c0,0,10.3,3,12.7-0.6c2.4-3.6,7.9-11.5,7.9-11.5l10.9-8.5l31.5,23.6
	l3.6-4.2h4.2l10.3,8.5l5.4-3l10.9,2.4l1.8,2.4l8.5-4.2l3,2.4c0,0,13.9,1.2,21.2,3c7.3,1.8,15.7,6.1,16.3,9.7c0.6,3.6-3,15.7-3,15.7
	l12.7,7.9c0,0,44.2-1.2,46.6-1.2s6.7-6.1,7.3-10.3c0.6-4.2,1.8-13.3-1.2-13.9c-3-0.6-5.4-3-5.4-3s2.4-4.8,7.3-7.3
	c4.8-2.4,12.7-2.4,15.1-2.4s14.5,7.9,14.5,10.9c0,3,2.4,8.5,3.6,10.9c1.2,2.4,5.4,6.1,6.1,11.5c0.6,5.4,4.2,11.5,6.7,13.3
	s1.2,9.1,1.2,9.1l-6.7,0.6l-10.9,3.6l32.7,45.4l12.7,36.3l27.2,33.9l20,8.5l-4.8-24.2l-3-7.9l11.5-7.9l-8.5-23
	c0,0,1.2-12.7,3.6-18.2c2.4-5.4,9.7-16.9,9.7-16.9l7.3-4.2L3605.5,107l7.9,81.1l-36.9,68.4l-15.1,5.4l-16.3,1.2l-36.3,11.5
	l-21.8,8.5l-14.5,8.5l12.1,41.2l6.7,30.3l3.6,193.7l-8.5,21.2l-3.6,55.7l3.6,5.4v9.1h-3.6v5.4l12.1,27.2l1.2,18.2l1.8,7.3v6.1
	l-24.2,13.3l-20.6,3l-31.5,13.9l-1.8,27.8l-2.4,4.2l3,6.1l-23,18.2h-6.7l-2.4,21.2l-38.1,15.1l-32.1,16.9l-12.7,16.9l-5.4,2.4
	l1.8,17.6l-10.9,12.7l12.7,4.2l3,23l-10.3,10.3l-33.9-5.4l-2.4-6.7l14.5-17.6l6.1-29.7l-6.1-8.5l-49.6-26l-3.6-5.4l-10.3-3
	l-10.3-12.7l-5.4,1.2l-7.9-10.3l-136.8-81.7H3031l-2.4,6.7l-13.9-13.9l-8.5-1.2l3.6,14.5l-20,0.6l-4.2-5.4l-6.7,1.8l4.8,23h-16.3
	v6.1l-6.7-6.7l-38.1,6.1l-10.3-9.7l-1.8-10.9l13.3-21.2l-2.4-2.4l-16.3,6.1l-7.9-0.6l-4.8-7.3l-2.4-7.9h-6.7l-9.1-15.1l-3.6,4.8
	l-12.1-20.6l16.3-8.5l10.9-1.2l-4.2-20l13.3-4.2l-10.3-47.2l-12.7,1.8l-7.9-46h-6.7l-3-20l-9.1,1.8l-13.3-79.3l-23.6,5.4l-26.6,18.2
	l-21.2,21.8l-15.7,9.1l-7.9,12.1l-4.2-3l-10.3,6.7l-7.9-10.9l-9.1,16.3l-23-32.7h4.8l-6.7-18.2l1.8-4.8l-20-15.1l6.1-9.7l-32.7-24.2
	l5.4-7.3l-10.9-8.5l3.6-7.3l-45.4-34.5l5.4-7.3l-4.2-4.2l-3.6-13.9l-6.7-4.8l-3-10.9l7.3-7.9l-6.7-7.3v-10.3l-6.7-10.3l-10.9-27.8
	l-7.3-9.1l-23.6-6.7l-15.1-6.7l-8.5-8.5l-10.9-24.8l-47.2-21.8l-20.6,1.2L2397.8,205.1z"/>
<path id="path15196" class="st0" d="M2515.6,1338.6l35.1-12l81.3-24l34.2-4.3l21.4-6.8l2.6,6l130.1-46.2l30.8-13.7l-0.9-6l13.7,2.6
	c0,0,85.6-46.2,96.7-52.2c11.1-6,65.1-24,78.8-29.1s74.5-27.4,80.5-29.1c6-1.7,86.5-18,86.5-18l6-6c0,0,54.8-14.6,61.6-14.6
	c6.8,0,30.8,3.4,35.1,3.4c4.3,0,57.4-3.4,57.4-3.4s11.1-12,15.4-12s23.1-12.8,23.1-12.8l7.7,3.4l8.6-1.7l17.1,2.6l-2.6-12l0.9-40.2
	l-6-8.6l-4.5-2.7l-13.3-16.3l2.4-2.4l-12.1-24.8l-6.1,2.4l-7.3-3.6l-31.5,15.1v-4.8l-17.6-3h-6.7l-2.4-5.4l-4.2,3l-10.9-3.6l-3-9.1
	l-9.1-3.6l-16.9,1.8h-10.9l-4.8,4.8l2.4,10.9h7.3l1.2,3l12.1,8.5l-3.6,4.8v14.5l-4.2,8.5l3,15.1l0.6,20l6.7,1.8l3,6.7l-16.3-3
	l-6.7,2.4l-5.4-6.1l-3.6-16.9l-4.8,0.6l-10.9,20l-6.1,3.6l-4.8,0.6l-6.7-8.5l8.5-9.1h6.7l13.9-15.1l4.8-20.6l6.7-6.1l-4.2-10.9
	l-4.8-6.7l-18.8-0.6l-6.7,6.1l-4.2,12.7l-13.9,10.9l6.1,10.3l-6.1,6.1l-9.1,15.1l-14.5,18.8l2.4,13.3l-6.7,2.4l-3.6-7.3l3-10.9
	l4.8-12.7l9.7-8.5l3-8.5l4.2-4.8l-4.8-4.8l-27.8,25.4l-5.4-0.6l-1.8,3l-29.1,1.8l-3-1.8h-10.9l-6.1,8.5l4.8,16.3l-6.1-1.2l-5.4-4.2
	l-10.9,15.7l-4.2-1.8l-1.2,4.2l1.2,3.6l-3,3.6l-12.1,5.4l-35.1,26.6l-4.2-4.8l-30.3,10.3l-0.6,7.3l-36.3,12.7h-12.7l-2.4,3.6
	l-29.7,0.6l-13.9-3.6h-9.1l-50.8,36.9l-76.3,48.4l-18.2,0.6l-9.1,3.6l-4.8-4.2l-18.2,4.2l-14.5-3.6l-13.3,10.3l-5.4,10.3l-13.3,4.8
	l-0.6,5.4l-9.1-3l-13.3,4.8l-15.7-3l-12.1-9.1h-8.5l-24.8,15.7l-13.3,3.6l-6.1-1.8l-8.5,3.6l-5.4-3c0,0-4.2,6.1-9.7,6.1
	s-13.9,4.2-19.4,5.4c-5.4,1.2-16.9,5.4-20.6,5.4c-3.6,0-4.8,4.2-6.7,7.3c-1.8,3-7.3,3-7.3,7.9c0,4.8,0,24.2,0,24.2L2515.6,1338.6z"
	/>
<path id="path16083" class="st0" d="M3242.9,945.4c0,0,1.8-6.7-3-8.5s-10.9-6.7-10.9-9.7c0-3,0.6-4.2-3.6-7.9
	c-4.2-3.6-7.3-6.7-4.2-8.5c3-1.8,3-3.6-1.2-3.6s-6.1-1.2-4.2-5.4c1.8-4.2,3-1.8-1.8-6.1c-4.8-4.2-6.1-6.1-10.3-7.9
	c-4.2-1.8-8.5,0.6-7.9-2.4c0.6-3,4.8-4.2,0-4.2s-18.2,4.8-18.2,4.8s-1.8,5.4-2.4,9.1c-0.6,3.6-4.8,7.9-8.5,14.5s0,6.7-3,10.3
	c-3,3.6-4.8,3.6-6.1,8.5c-1.2,4.8-6.7,8.5-7.3,12.1c-0.6,3.6,1.8,4.8-0.6,7.3c-2.4,2.4-1.8,4.2-4.2,7.3c-2.4,3-6.1,6.7,1.2,6.7
	c7.3,0,16.9-0.6,21.8,2.4c4.8,3,15.7,12.7,15.7,12.7s1.2,13.9,4.2,13.3c3-0.6,18.8-21.8,24.8-23s11.5-5.4,11.5-5.4L3242.9,945.4z"/>
<path id="path16970" class="st0" d="M3132.1,1006c0,0,12.7,3,15.1,3s14.5,0,18.8,0c4.2,0,13.9-8.5,12.7-12.1
	c-1.2-3.6-3-9.1-2.4-11.5c0.6-2.4-7.3-11.5-10.3-12.7c-3-1.2-10.9-4.8-14.5-4.8s-9.7,1.8-13.3,4.2c-3.6,2.4-5.4,7.3-7.3,10.9
	c-1.8,3.6-1.8,6.7-1.2,9.1C3130.3,994.5,3132.7,1007.2,3132.1,1006z"/>
<path id="path17857" class="st0" d="M3129.1,947.9c0,0,7.9,2.4,10.3-1.2c2.4-3.6,6.7-13.9,6.7-18.8s1.8-9.7-0.6-12.7
	c-2.4-3-1.8-8.5-1.8-8.5s7.9,10.9,8.5,7.3c0.6-3.6,0-15.1,3-17.6c3-2.4,7.3-10.9,7.3-10.9s12.7-4.2,10.9-7.3c-1.8-3-4.2-1.2-9.1,0
	c-4.8,1.2-0.6-4.2,2.4-6.7c3-2.4,2.4-3.6,2.4-3.6l-8.5-5.4c0,0-1.8-1.8-7.3-1.8c-5.4,0-4.8,4.8-10.3,5.4c-5.4,0.6-3,2.4-7.3,5.4
	c-4.2,3-12.1,6.1-12.1,6.1l-7.3,10.9l0.6,6.7v4.8l9.1,20.6l-0.6,7.9l4.8,4.2L3129.1,947.9z"/>
<path id="path18744" class="st0" d="M3107.9,996.3l6.7-6.1l3-3.6l-0.6-9.1l-9.1,8.5V996.3z"/>
<path id="path19631" class="st0" d="M3078.8,1009.6l21.2-12.1l1.8,18.8l4.8,6.1c0,0-3,0-3,4.2c0,4.2,1.8,10.3-0.6,12.7
	c-2.4,2.4-6.1,4.2-6.1,4.2l-6.1-1.8l-4.8-9.1l-4.8-6.7L3078.8,1009.6z"/>
<path id="path20518" class="st0" d="M3105.4,929.1l-5.4-13.9l-4.8-18.8l5.4-20c0,0-6.1-20-7.9-23.6c-1.8-3.6-11.5-13.9-11.5-13.9
	l-6.1-2.4c0,0-3.6,5.4-3.6,9.1s6.1,13.9,6.1,16.3s2.4,5.4,1.8,7.9c-0.6,2.4-0.6,7.9,1.8,7.9s6.7,5.4,4.8,8.5c-1.8,3,0,9.1,2.4,13.3
	c2.4,4.2,8.5,17.6,8.5,20c0,2.4,4.8,11.5,4.8,11.5L3105.4,929.1z"/>
<path id="path21405" class="st0" d="M3037.6,791.1l0.6,17.6l-14.5,6.7l-16.3-15.1l-9.1-3l-0.6,3l7.3,33.3l-6.7,25.4l-4.2,6.1l3,4.2
	l-6.1,6.1v10.9l-6.1,4.2l-3.6,21.8l4.8,15.1l-13.3-1.2l-4.2,9.1l14.5,10.9l-3,3.6l5.4,14.5l9.7-9.7l1.2-10.9l15.1-3l3,6.1l12.7,7.3
	l7.9-4.8l1.2,10.3l7.9,10.3l4.8,10.9l8.5,3l-12.7,13.9l1.8,3.6l0.6,16.3l-6.7,10.3v5.4l-8.5-0.6l-20,10.3l-10.9,1.2l-7.9,8.5
	l2.4,10.3c0,0,13.9,3.6,20.6,1.8c6.7-1.8,9.7-2.4,15.7-1.2s6.7,1.8,12.1-1.2c5.4-3,20-16.3,20-16.3s3-7.3,3.6-10.9
	c0.6-3.6,3-12.1,4.2-15.7s1.2-17.6,1.2-17.6l7.9-6.7l6.7-7.3l-2.4-11.5h-4.8l-3-12.1l-9.7-41.2l8.5-4.8l6.7-8.5v-6.7
	c0,0-4.8-5.4-8.5-5.4s-9.1,6.7-9.1,6.7l-4.2-15.1c0,0,6.1,0.6,9.1,0.6c3,0,9.1,0.6,6.1-3c-3-3.6-8.5-9.1-8.5-12.7
	c0-3.6,4.2-6.1,1.8-12.1c-2.4-6.1-4.8-12.7-9.1-12.7s-7.3-3.6-7.3-3.6l-0.6-10.9c0,0,6.1-6.7,5.4-9.1s-3.6-7.9-3.6-7.9l-6.7-6.7
	l-3.6-17.6L3037.6,791.1z"/>
<path id="path22292" class="st0" d="M2943.2,1082.3c0,0,6.1,1.8,9.1,1.2c3-0.6,7.9,1.2,9.1-1.2c1.2-2.4,3-8.5,6.1-8.5
	c3,0,7.9,0.6,4.2,6.1c-3.6,5.4-1.2,4.8,0,10.9c1.2,6.1,0.6,10.3,6.7,10.9c6.1,0.6,11.5,0.6,17,0.6c5.4,0,5.4-0.6,6.1-4.2
	c0.6-3.6-0.6-4.8,1.8-8.5c2.4-3.6,4.8-6.7,3-10.3s-3.6-6.7-8.5-6.7s-6.1-2.4-10.3-5.4c-4.2-3-1.8-4.2-4.8-8.5
	c-3-4.2-8.5-4.2-11.5-4.2s-7.3,3-11.5,4.2s-10.3,3-10.3,3s-1.8,6.7-6.1,11.5C2939,1078,2942.6,1083.5,2943.2,1082.3z"/>
<path id="path23179" class="st0" d="M2987.4,1002.9l6.7-0.6l20-5.4l-3-14.5l-9.1-10.9l-8.5,9.7l-7.3,10.9L2987.4,1002.9z"/>
<path id="path24066" class="st0" d="M3021.3,998.1l10.9-2.4l1.2-3.6l-3-8.5v-8.5l-9.1-4.2l1.8,12.7l-3,10.9L3021.3,998.1z"/>
<path id="path24953" class="st0" d="M3084.9,957.5l4.2-7.3l-2.4-7.9l-10.3,5.4L3084.9,957.5z"/>
<path id="path25840" class="st0" d="M2397.9,204.7l28.3-15h20.5l47.1,21l11.1,24.8l9.8,9.8l16.3,7.3l20.5,4.3l8.1,9.8l10.7,28.3
	l6.4,9.4v10.3l6.4,7.3l-6.4,7.7l2.6,11.1l7.3,5.1l3.4,14.6l3.4,3.4l-4.7,6.8l44.5,34.2l-3.4,7.7l11.1,8.1l-5.1,8.1l32.1,23.5
	l-5.6,9.8l19.3,15l-0.9,5.1l5.1,17.1l-3.4,0.4l22.7,32.1l9-15.4l8.6,10.7l9-6.4l4.7,3l8.1-12l17.5-9.4l20.5-21.4l25.3-18.4l23.5-4.7
	l12.8,78.3l9.8-0.9l3,19.3l6.8,0.4l7.7,45.8l12.8-2.1l10.3,47.5l-13.7,4.3l4.3,19.7l-9.4,0.9l-18,9.4l8.1,12.8l-6.8,3.9
	c0,0,0,3.9,4.7,5.1c4.7,1.3,8.6,6.8,12.4,10.7c3.9,3.9,9.8,13.7,9.8,13.7s-3.4,7.3-5.1,8.1s0.4,23.5,0.4,23.5l-23.5,6
	c0,0,0.4-8.6-3.4-8.6s-6,3.4-6,3.4s-6.4,1.7-10.3,1.7c-3.9,0-5.1,4.3-8.6,2.1s-3.9-3.9-6.4-3.9c-2.6,0-8.6,0-8.6,0l7.7,11.6l14.1,27
	l-1.3,6l-21.4,16.7l-11.6-6l-3,3.9v10.3l-4.7,2.1c0,0-1.3-11.6-4.3-8.1c-3,3.4-2.1,6.4-2.1,6.4l-18.4,21l3,4.3l-3.9,3.4l-4.3-1.7
	l-15,17.6c0,0-9,0.9-9.8,4.7c-0.9,3.9,1.3,9.8,0.4,12.8c-0.9,3-9.4,8.6-9.4,8.6s-19.7-4.7-23.5-4.7c-3.9,0-3.9,5.1-2.1,9
	c1.7,3.9,42.8,71.1,42.8,71.1l-6,4.7l-14.1-2.1l-31.7,21.4l-0.9,8.1l4.3,1.3l59.9-3.9l43.7,128l-6,16.7l-86,24.4l-27.8-24l-13.7-7.3
	l5.6-8.6l21.8,18l11.1-3.4l-0.4-12l-11.1-17.1l-1.7-7.7l-3.4-9l-10.7,2.6l-7.7,6l-5.6-1.7l-18,4.7l-6,7.3l-9.4-7.7
	c0,0-2.6,3.9-2.6,7.3c0,3.4,5.6,13.7,7.7,15s4.3,3.4,4.3,3.4l-3.4,6l-6.4,1.3l-9-6l-0.4,8.6l-60.4-20.5c0,0-7.3,2.1-11.6,4.3
	s-8.6,5.1-8.6,5.1l-1.3,8.1l0.9,30l-10.7,1.7l-6.4-1.7l-3.9,2.6l-81.3,9.4h-24l-141.7,24.8l-56.5-2.1l-24.4-13.3
	c0,0-16.7-1.7-19.7-4.3c-3-2.6-3.9-14.6-4.3-16.3c-0.4-1.7-3.4-9-2.1-11.6c1.3-2.6,13.7-12,17.6-12.4c3.9-0.4,12.4-2.6,12.4-2.6
	l1.3-4.3l6.8-0.9l4.7,3.4l-1.3,2.1l11.6-2.1l51.8,12l-0.9-5.1h3.9c0,0,3.4-4.7,1.7-7.3c-1.7-2.6-7.3-2.6-7.3-2.6l-4.3-3.4l6-11.6
	l-22.3,3.4l-20.5-6l1.3-6l-6.8,4.7l1.3-17.6l12-7.3l-3.4-5.6l2.6-0.4l-3-6.4l7.7-5.6l-3.4-3.9l-9,3.4l-3.4-3.9l12-11.6l-6-3.4
	l-6,0.9l-4.3-4.7l-5.1,5.6c0,0-1.7-10.3-7.3-12.8c-5.6-2.6-31.2-23.1-36.8-26.5c-5.6-3.4-12.4-6.4-17.6-6.4c-5.1,0-9.4,1.3-13.3-0.4
	s-0.4-5.1-8.1-6.4c-7.7-1.3-39-5.1-41.9-7.3c-3-2.1-22.7-16.7-22.7-16.7l-3,5.1h-4.3c0,0,4.3-16.3,2.1-16.7c-2.1-0.4-12-9-13.3-12.4
	s-6.4-17.5-7.7-21.8s-6.8-29.1-8.1-35.5c-1.3-6.4-3-22.3-2.6-27.8c0.4-5.6,2.6-26.5,4.3-29.1c1.7-2.6,18.8-51.4,19.7-54.4
	c0.9-3,6-11.1,6-11.1l-4.7-3.4l14.6-17.1l2.1-5.1l8.6,4.7l6.8-9.8l-7.3-5.6l9.8-11.6l14.1,7.3l6.4-8.1l-3.9-5.6l7.7-9l4.3,2.6
	l5.6-6.8l-12.4-9.8l32.5-36l6.8,5.1l15-10.7l-6.4-4.7l24.4-17.6l15.8,13.3l3.4-3.4l8.6,0.9l-9.4-9l-1.3-10.7l20.5,15.4l4.3-2.6
	l2.6-6.8l-16.3-11.1l12-6.4l7.7,4.7l8.6-6.8l-10.3-6l-10.7-0.9l-15.8,9.4l-4.7,2.1l5.1-23.1l-4.3-0.4l-27,36.4l-21.4,3l-8.1-7.3
	l-3.4-33.8l-4.3-2.1l2.6-3.4l9,5.1l3.9,34.7l17.5-3l6.4-18.8l-5.1-8.1l-25.3-18l-10.3-18.8l1.3-20.5l72.3-58.6l34.2-80.5l15.8-17.6
	h6l2.6,2.6l47.5-1.3c0,0,9-2.1,11.6-4.3c2.6-2.1,25.7-20.1,25.7-20.1l9.4,12.4l1.3-3l-0.9-11.6l13.3-44.9l7.3-9l11.6-26.5l8.6-12
	l-0.4-30l-5.1-17.6V204.7z"/>
<path id="path26727" class="st0" d="M2885.1,847.4l46,2.4l3-10.9l10.9-7.3l6.7-25.4l-18.2-9.7l-41.2,26.6L2885.1,847.4z"/>
<path id="path27614" class="st0" d="M2948.7,850.4l9.1-10.9l21.2-7.9l7.3,1.2l-0.6,9.1l-23,41.2L2948.7,850.4z"/>
<path id="path28501" class="st0" d="M2869.4,930.3l17.6-12.1l43-18.8l10.3,0.6l10.9-6.1l-7.3-13.9l-7.9-6.1l-12.7,3.6l10.3-20
	l-6.1-2.4l-7.3,9.1l-16.3-3l1.2,7.3l-9.1-3l-3-3.6l-7.3,4.8l-10.9,18.2l-5.4-6.1h-10.3l0.6,16.9l9.7-4.8l-3.6,29.1h-9.7l1.2,7.9
	L2869.4,930.3z"/>
<path id="path29388" class="st0" d="M2789.5,937.6l35.7-10.3l23-10.9l0.6-19.4l3.6-20l-9.7-13.3l-39.3,27.2L2789.5,937.6z"/>
<path id="path30275" class="st0" d="M2975.3,952.1l-10.3,3.6l-18.2-9.1l3-12.7l5.4,1.8l-0.6-9.1l-12.7,3.6l-4.8,21.8l-4.8,7.3
	l2.4,22.4l-11.5,6.7l-4.2,7.3l19.4,18.8l26.6-12.7L2975.3,952.1z"/>
<path id="path31162" class="st0" d="M2893.6,998.7l10.3,1.8l20.6-25.4l0.6-29.7h-11.5l-5.4,5.4l7.3,7.9h-15.1l0.6-18.2l-13.3-6.1
	l7.3,17.6l-7.9,3.6l-4.2,10.9l1.2,9.1l9.7,10.3V998.7z"/>
<path id="path32049" class="st0" d="M2871.2,1018.1l-18.2,13.3l35.1,30.3l23-9.7l4.2-15.1L2871.2,1018.1z"/>
<path id="path32936" class="st0" d="M2833.6,1078.6c0,0-1.2,0-4.2,1.8c-3,1.8-9.7,10.9-9.7,10.9l4.8,23l13.9-1.8l-13.3,20.6
	l8.5,27.2l8.5-4.8l19.4-32.1l1.2-16.3c0,0-6.7-16.9-9.1-17.6s-6.7-3.6-9.7-4.2C2840.9,1084.7,2834.2,1079.8,2833.6,1078.6z"/>
<path id="path33823" class="st0" d="M2834.2,990.2v-15.1l-6.7-13.3l1.8-9.1l-6.7-5.4l0.6,20l6.1,7.3l-3,3L2834.2,990.2z"/>
<path id="path34710" class="st0" d="M2833,1051.4l1.8-13.3l-3.6-3l-1.2-21.8l-3.6,0.6l-0.6,24.2l5.4,1.2l-1.8,9.1L2833,1051.4z"/>
<path id="path37371" class="st0" d="M1881.2,742.7l-2.6,6.8l9.4,8.6l5.1-3.4c0,0,13.7,12.8,13.7,18c0,5.1,1.7,33.4,1.7,42.8
	s-0.9,49.7,0.9,55.6s10.3,21.4,10.3,21.4l8.6,14.6l-5.1,8.6l9.4-0.9l4.3,9.4l-3.4,9.4l11.1,12.8c0,0,2.6,15.4,6,18.8
	c3.4,3.4,12.8,11.1,16.3,18c3.4,6.8,10.3,9.4,10.3,9.4l13.7,12l-30,77.9c0,0-24.8,15.4-30,22.3c-5.1,6.8-14.6,26.5-18.8,30
	c-4.3,3.4-19.7,15.4-25.7,20.5c-6,5.1-2.6,12-9.4,16.3s-44.5,41.1-49.7,47.1c-5.1,6-8.6,9.4-16.3,17.1c-7.7,7.7-15.4,25.7-15.4,25.7
	l-15.4,20.5h-12.8l-21.4,38.5l-9.4-3.4c0,0-7.7,7.7-14.6,14.6c-6.8,6.8-13.7,19.7-17.1,24.8c-3.4,5.1-4.3,7.7-7.7,7.7
	c-3.4,0-8.6,4.3-10.3,8.6c-1.7,4.3-5.1,4.3-11.1,6.8c-6,2.6-11.1,3.4-11.1,3.4l-54.8,66.8l-17.1,10.3l-3.4-7.7l-9.4-13.7l2.6-12.8
	h26.5l24.8-30.8l3.4-12.8l-7.7-15.4l-13.7-6.8l-16.3,0.9v6l-17.1,2.6l-1.7,6l2.6,5.1l-9.4,2.6c0,0,0,13.7,0.9,19.7s0,13.7,0,13.7
	l-8.6,0.9l-2.6,7.7l-6.8,5.1l-0.9,6.8l-18,8.6l-94.2,60.8l-11.1-1.7l-24.8,18.8h-10.3l-6-3.4h-10.3v6.8l-13.7,4.3l-24.8,35.1
	l-6.8,4.3l2.6,7.7l-16.3,4.3l-6.8-6l-11.1-5.1l-1.7-6H1282l-24,12.8l-1.7,9.4L1246,1598l-11.1,8.6l-7.7,15.4c0,0-14.6,6.8-23.1,6.8
	s-7.7,2.6-12,5.1c-4.3,2.6-8.6-4.3-19.7-4.3c-11.1,0-33.4,6-37.7,13.7s-2.6,10.3-12.8,15.4c-10.3,5.1-13.7,6-20.5,6
	c-6.8,0-8.6,0-13.7,0s-14.6,0.9-18.8-4.3c-4.3-5.1-7.7-14.6-11.1-19.7c-3.4-5.1-12.8-26.5-12.8-31.7c0-5.1-5.1-18,0-20.5
	s11.1-8.6,11.1-15.4c0-6.8,3.4-13.7,3.4-13.7l0.9-4.3l20.5-14.6h6.8l5.1-10.3l8.6-1.7l3.4,1.7l6-4.3l-9.4-18.8l4.3-6l-6.8-12.8
	l11.1-35.1l-2.6-13.7v-6.8l-8.6-10.3l-9.4-1.7v-5.1l6-7.7l-9.4-24l-6-5.1l7.7-12.8l13.7-14.6l6.8,4.3l24-20.5l4.3-10.3l10.3-2.6
	l23.1-23.1h14.6l12,3.4l4.3,3.4l23.1,3.4l8.6-7.7l7.7-2.6l12.8-24.8l-1.7-15.4c0,0,10.3-41.9,12-45.4c1.7-3.4,3.4-12,11.1-11.1
	c7.7,0.9,16.3,3.4,20.5,0.9s14.6-12,14.6-12l2.6-25.7l21.4,7.7c0,0,0,6,5.1,6s10.3-2.6,10.3-2.6l-0.9-5.1h-9.4l-12-13.7l-20.5,3.4
	c0,0,2.6,2.6-0.9,6.8c-3.4,4.3-6,24-6,24l-31.7,5.1l8.6-47.1l3.4-4.3l3.4-25.7l-4.3-12l4.3-12c0,0,18.8-22.3,24-29.1
	c5.1-6.8,7.7-16.3,7.7-16.3s1.7-19.7,3.4-23.1c1.7-3.4,4.3-4.3,2.6-9.4c-1.7-5.1-6.8-18-6.8-18l-2.6,4.3l1.7,9.4l-5.1,11.1
	l-12.8-20.5l-8.6-6.8l1.7-45.4l7.7-4.3c0,0,1.7,4.3,6,4.3s7.7-0.9,7.7-0.9s6,2.6,2.6,8.6c-3.4,6-6,12.8-8.6,18
	c-2.6,5.1,2.6,18,2.6,18s0.9-4.3,3.4-8.6c2.6-4.3,5.1-12.8,5.1-12.8l6.8-23.1h4.3l-7.7-15.4h-7.7l-12.8-4.3l-3.4-13.7l0.9-10.3
	l-2.6-19.7c0,0,6.8-30.8,8.6-37.7c1.7-6.8,0-7.7,8.6-15.4c8.6-7.7,15.4-16.3,18-22.3c2.6-6,6-15.4,12-19.7
	c6-4.3,12.8-14.6,12.8-14.6l6.8,9.4l-0.9-12l11.1-9.4l5.1,4.3l2.6-6h12l3.4-4.3l6.8,0.9l-2.6,12l4.3,2.6l6.8-6.8l4.3,2.6l2.6-11.1
	l12,3.4l6.8,9.4v7.7l6.8,4.3v-4.3l10.3,2.6l10.3,0.9v-8.6l6,8.6h7.7l6.8,6.8c0,0,13.7,2.6,21.4,3.4c7.7,0.9,7.7,4.3,7.7,4.3l3.4,7.7
	l9.4-0.9l-3.4-8.6l8.6,3.4l3.4,7.7l6-1.7v-7.7l17.1-0.9l4.3,3.4l4.3-6h4.3l0.9-6l8.6,5.1c0,0,0-5.1,5.1-6c5.1-0.9,6.8-6,6.8-6
	s9.4-1.7,14.6-1.7s11.1,1.7,11.1,1.7l15.4,0.9c0,0,7.7,3.4,7.7,6.8c0,3.4,18.8,1.7,18.8,1.7l13.7-6.8l-0.9-6l10.3-1.7l22.3-11.1
	l7.7-0.9l6-5.1l39.4-3.4l13.7,4.3l1.7-5.1l21.4,0.9l16.3-9.4c0,0,9.4-9.4,15.4-9.4s22.3,1.7,27.4,1.7c5.1,0,12-5.1,12-5.1
	s6,5.1,9.4,5.1S1880.4,742.7,1881.2,742.7z"/>
</svg>
