<?xml version="1.0" encoding="utf-8"?>
<!-- Generator: Adobe Illustrator 19.1.0, SVG Export Plug-In . SVG Version: 6.00 Build 0)  -->
<svg version="1.1" id="Layer_1" xmlns="http://www.w3.org/2000/svg" xmlns:xlink="http://www.w3.org/1999/xlink" x="0px" y="0px"
	 viewBox="0 0 1280 800" style="enable-background:new 0 0 1280 800;" xml:space="preserve">
<style type="text/css">
	.st0{stroke:#000000;stroke-width:3.5433;}
</style>
<path id="path3647" class="st0" d="M472.3,652.6c0,0-4.7-2.9-4.7-5.5c0-2.6,0.7-4.8,0.7-4.8l-5.1,0.4l8.4-55.2l7.7,1.1l0.7-9.1
	l-6.2-1.8l0.7-6.2l5.5,1.8l0.7-5.8l-6.6-0.4l1.5-9.5l6.2,0.7V555h-5.5v-2.2h3.3l-1.5-4.4l-2.9-1.1l3.3-18.3h2.2l2.2-5.5l-3.3-1.8
	l3.3-8.8l4,1.1l1.8-4.7l-3.7-0.7l1.1-2.2l-2.2-0.7l7.3-9.1l3.3,1.8l1.5-2.2l-4.4-1.8l10.2-20.5l4.7,2.2l1.1-2.2l-4.4-2.2l5.5-9.9
	l4.4,1.8l1.8-3.3h-2.9l5.8-9.9h2.9l0.4-1.5h-4.7l1.1-2.2h4.4l49.7-92.8l2.6-5.5l-1.8-1.5l7.3-9.9l2.2,1.1c0,0,8-10.2,8.4-12.4
	c0.4-2.2,9.5-23.4,9.5-23.4s7.3-21.6,7.3-23s-2.2-13.5-1.8-15c0.4-1.5,3.7-2.9,4.7-4.4c1.1-1.5,22.7-38.4,22.7-38.4l-0.7-0.7
	l3.3-5.1l-1.5-1.5l2.2-10.2l5.1-8l5.5-2.9l6.2,1.1c0,0,2.6,1.8,2.6,3.7s2.9,1.1,6.2,2.6c3.3,1.5,8.4,3.3,11,4
	c2.6,0.7,2.9,3.3,2.6,7.3c-0.4,4-3.3,12.1-6.6,15.7c-3.3,3.7-8.4,12.1-11.3,16.1c-2.9,4-9.5,16.8-11.7,20.5
	c-2.2,3.7-12.1,27.4-13.2,29.6c-1.1,2.2-4,10.6-4,13.5s1.1,21.9,1.5,24.1s1.5,17.9,1.5,21.6c0,3.7-1.1,10.2-1.1,13.5s0.4,6.6,3.3,11
	s6.2,9.5,6.2,13.2c0,3.7,2.2,12.4,0.4,15s-8,6.9-10.6,9.5c-2.6,2.6-6.2,10.6-6.2,12.4c0,1.8-4.4,5.8-8,9.1c-3.7,3.3-4.4,5.8-2.6,9.9
	c1.8,4,3.7,10.6,2.2,12.1c-1.5,1.5-17.2,22.7-18.3,25.2c-1.1,2.6-11,16.1-14.6,20.5s-8,12.4-12.8,19c-4.7,6.6-9.1,15.3-11,19.4
	c-1.8,4-1.5,14.6-1.5,16.1c0,1.5,0,4,0,4l-2.6-1.5l-0.4,10.2c0,0,5.5,4.8,5.5,7.3c0,2.6-3.3,26.7-4.8,29.6c-1.5,2.9-4,15.3-6.9,16.1
	c-2.9,0.7-6.6,2.6-6.6,2.6v1.5l-20.5,3.3l-0.4-2.9l-13.2,1.8l-7.7,5.5l2.9,3.3l-12.4,12.4l-4-2.9l-2.6,1.5l1.5,4.4h-2.9l-1.8-3.3
	c0,0-1.5,1.1-3.3,1.5S473.1,653.3,472.3,652.6z"/>
<path id="path5419" class="st0" d="M468.7,671.8c0,0,0,3.6-2.1,5.2c-2.1,1.6-7.8,7.8-8.8,9.6c-1,1.8-2.1,5.2-1.6,6.7
	c0.5,1.6,3.1,3.6,5.4,3.6c2.3,0,13.4-10.1,15-10.1c1.6,0,3.4,1,5.2-1c1.8-2.1,1.8-3.1,2.8-4.1c1-1,0.8-3.9-0.8-5.7
	c-1.6-1.8-1.6-3.4-4.4-4.1c-2.8-0.8-6.5-0.8-7.8-0.5C470.5,671.5,468.1,672.5,468.7,671.8z"/>
<path id="path5421" class="st0" d="M422.9,686.2c0,0,3.4,0,2.1-2.8c-1.3-2.8-4.1-4.4-6.2-4.4c-2.1,0-2.6,1.6-1.6,2.8
	c1,1.3,1.6,3.1,2.8,3.9C421.4,686.5,423.2,686.7,422.9,686.2z"/>
<path id="path6308" class="st0" d="M427.8,665l3.6-4.4h3.1l0.8-3.4l-5.7-4.4l-7.2,8.3L427.8,665z"/>
<path id="path7195" class="st0" d="M585.2,526.6c0,0,3.6-5.9,5.4-6.7s5.7-6.5,6.7-8c1-1.6,4.9-5.7,5.9-7.2s-0.3-1.8,2.8-4.9
	c3.1-3.1,14-18.9,14.5-20.9c0.5-2.1,3.1-2.8,4.1-5.2c1-2.3,2.6-3.9,2.6-6.7c0-2.8,1-5.9-1-4.1c-2.1,1.8-5.7,3.6-7.2,5.9
	c-1.6,2.3-1.6,5.4-2.6,6.7c-1,1.3-4.9,5.4-5.4,7.2c-0.5,1.8-5.7,7.5-6.5,9s-2.8,3.6-2.8,4.7s-4.7,7.2-5.9,9.3c-1.3,2.1-7,9-7,10.6
	s-4.1,8.3-4.1,8.3L585.2,526.6z"/>
<path id="path8082" class="st0" d="M649.3,442.8c0,0,2.3,2.3,3.9,0.8c1.6-1.6,3.4-2.8,5.2-3.4c1.8-0.5,4.4-1.6,4.4-3.4
	s3.9-12.7,5.4-14.7c1.6-2.1,9.8-7.8,9.8-10.1c0-2.3-2.8-10.1-4.1-11.1s-8-7.5-9.8-9c-1.8-1.6-1.6-3.1-3.6-3.1c-2.1,0-3.9-0.3-4.7,1
	c-0.8,1.3-2.8,5.9-2.8,8c0,2.1,0.5,3.9,0.5,6.5s-1.8,6.5-3.9,9.3c-2.1,2.8-6.5,7.2-7.8,9c-1.3,1.8-4.4,7.5-5.4,9.3s-1.3,6.2,1,6.7
	c2.3,0.5,5.7,1.6,7.2,1.8C646.2,440.8,649,443.4,649.3,442.8z"/>
<path id="path8969" class="st0" d="M703.1,68.6c0,0-3.6,12.9-3.6,17.6c0,4.7-4.1,11.4-4.7,14.5c-0.5,3.1-4.7,16.5-5.2,20.2
	c-0.5,3.6-5.7,22.2-6.7,24.8c-1,2.6-5.7,16.5-5.7,16.5s3.1,0,4.1,0.5c1,0.5,2.6,4.4,6.2,6.2c3.6,1.8,6.2,2.3,8.5,2.6s9,2.3,10.6,5.7
	c1.6,3.4,0.8,7.5,0.8,9.8c0,2.3-2.3,9.6-6.7,15.2c-4.4,5.7-10.6,14.5-12.1,16.8c-1.6,2.3-4.4,9.6-5.7,11.1
	c-1.3,1.6-6.5,10.3-8.8,14.2c-2.3,3.9-6.5,14.5-7.5,17.3c-1,2.8-5.7,12.7-6.2,16.3s0.8,12.4,1,16.5c0.3,4.1,1.8,17.8,1.6,21.2
	c-0.3,3.4-0.3,17.1,0,18.9c0.3,1.8,0.3,8.8,0.8,10.6c0.5,1.8,3.4,8.3,4.7,9.8c1.3,1.6,3.9,6.5,5.2,7s5.4,0,5.4,0s1.8-0.3,2.8,0.5
	c1,0.8,4.4,4.4,4.4,4.4l7.2,7c0,0,3.1,2.3,5.9,2.3s2.8,0,2.8,0s0,0.8,3.6-1.8c3.6-2.6,7-8.3,8.5-10.6c1.6-2.3,2.8-8.5,4.9-8.5
	c2.1,0,4.1-0.3,4.1-2.1c0-1.8,2.1-2.1,6.2-2.1s7.8,0,11.1,0c3.4,0,5.9,0,7.2,2.6s5.9,9.3,6.7,9.6c0.8,0.3,4.7-2.6,6.7-2.6
	s10.9,1,10.9,1l0.5,1.6l2.3,0.8v2.6c0,0,5.2-0.5,6.2-2.1c1-1.6,7.2-13.4,7.2-13.4l-5.7-15.5l-2.3-3.4l-12.9-5.4l-4.7-4.9l1.8-2.3
	l4.9,4.7l13.2,5.2l7,10.6l9.6,1l2.3-1.6h4.9l1.3,5.7l-0.8,5.7l4.7,10.6l18.1-4.1l-1.8-6.2l0.3-3.4l-4.7-2.6v-2.6l2.8-6.2l-5.7-4.1
	l-2.6,0.3l-5.9-2.1l-0.3-3.1l1-1.8l1.3,3.6l4.1,2.1l3.4-0.5l6.5,4.9l1.6,5.7h1.8l0.3-3.4c0,0,1.6-2.1,2.3-3.9c0.8-1.8,0.3-7,2.1-7.8
	c1.8-0.8,2.6-0.3,3.1-2.6c0.5-2.3,0.5-4.9,1.8-5.4c1.3-0.5,1.8-2.3,1.8-2.3l-4.4-21.4l8.5,16.8c0,0-3.9,11.1-3.6,12.1s1,4.1,0.3,7.2
	c-0.8,3.1-0.5,7.2-0.5,7.2l4.7,13.7l11.4,1.8l2.3-14.5l10.1-0.3c0,0,5.2-3.4,6.7-3.9c1.6-0.5,10.6-2.8,10.6-2.8l13.7,2.6l10.6,10.6
	l4.9-0.5l8,6.7c0,0,4.1-0.3,6.7,2.3c2.6,2.6,4.9,4.7,6.7,3.4c1.8-1.3,2.6-4.7,1.3-6.2c-1.3-1.6-14.2-9.3-15.5-9.3
	c-1.3,0-3.9-0.5-5.4-0.5c-1.6,0-3.6-3.9-4.7-4.4c-1-0.5-2.1-2.1-2.6-4.4s-3.1-7-3.1-7l5.9,5.9c0,0,0,4.1,1.8,3.6
	c1.8-0.5,5.4-4.7,5.4-4.7s0.8-2.3,2.6-2.6c1.8-0.3,3.4-1.8,1.6-2.6c-1.8-0.8-8.3-4.9-8.3-4.9l-3.4,0.5l-4.4-5.2l-2.8-13.4l-1.8-1
	l-5.7,3.4l-4.9,1.3l-0.5-5.9l2.3-3.4l-4.7-8.8l-1.8-9.8l-0.3-10.3l3.4-0.8L892,258l-3.4-3.4l2.8-1.3l2.8,2.1l-0.3-5.7l-2.3-1.8
	c0,0-1.3-2.6-1-4.7c0.3-2.1,1.3-2.8,1.3-2.8s0-5.2-1-5.2c-1,0-2.6-1.3-2.3-3.4c0.3-2.1,1.3-4.4,1.3-4.4l-5.2-8l7.8-3.4l0.3-6.7
	l-6.2-0.3l-3.6-6.7l-0.8-11.1l-3.6-2.6l-3.6-13.4c0,0,5.9-18.9,6.5-21.4c0.5-2.6-0.3-8-0.3-8l2.8-0.8l0.5,4.4c0,0-1,12.4-1.3,14
	c-0.3,1.6-3.1,3.6-3.1,3.6l0.8,2.1l-1,3.9l1,2.8l-1.8,2.8l0.5,6.7l4.7,3.6l2.8,2.8c0,0-0.5-3.1,1-4.4c1.6-1.3,3.1-2.3,3.1-2.3
	l0.5,5.2l1.6,0.3l-4.1,6.7l-0.3,3.6l3.6-1.6v4.1l2.3-2.3l5.4,3.4l7.2,11.6l0.5-5.9l3.4-1.3l1.6,0.3l-1.6,16.3l1.8,0.3l0.3,3.1
	l-1.3,0.5l7.5,7.8l2.8,6.5c0,0,0.5-4.9,2.1-6.2c1.6-1.3,2.8-2.1,2.8-3.6c0-1.6-2.6-5.4-1.8-7c0.8-1.6,3.1-4.7,4.1-5.2
	c1-0.5,3.6-2.3,3.6-2.3l1.3-5.9c0,0,4.1-3.9,4.1-4.9s2.3-17.8,2.3-17.8s5.4-1.3,8.3-3.1c2.8-1.8,5.4-3.6,5.4-4.9
	c0-1.3,1.3-2.8-0.3-4.1c-1.6-1.3-3.9-1-4.9-1s-2.6-1-2.6-1s5.2-8.8,5.2-10.6c0-1.8-1.8-5.2-3.9-5.2c-2.1,0-6.5,0-6.5,0l1.3-4.4
	l-4.1,1l-0.3,1.8l-3.9,1.6l-2.3,4.4l1.8,2.1l-2.3,10.1l-4.9,1.8l-9,17.8h-1.8l-0.5-4.1l-3.4,0.8v-3.6l-8.5-7l10.1,5.9l1.8-0.8
	l1.3-3.9l3.9-4.9l-1.3-1l4.9-4.4h2.8l0.5-4.7l2.8-7l-0.8-4.1h2.1l3.6-7.2l-59.4-19.6v3.4l-30.5-11.4l-2.3-8.8l1-5.2
	c0,0-2.3-3.4-3.1-6.5c-0.8-3.1-1.8-5.2-1.8-5.2h-6.2l-0.8-3.4l-10.1-4.9l-1.6,2.3l-3.9-3.1l3.6-5.9l-3.6-0.3l-2.3,3.1l-1.6,2.6
	L815,90c0,0-2.1,2.6-4.1,2.8c-2.1,0.3-1.8,3.6-1.8,3.6v3.4l-3.1,3.4l-1.6,0.8v3.1l-5.2-1.3L703.1,68.6z"/>
<path id="path9856" class="st0" d="M742.2,389.4l-3.9,20.2h3.1l3.4,8l19.6,3.9l11.4-0.5l4.9-2.3c0,0-1-3.6-0.8-4.7
	c0.3-1-5.9-9.3-5.9-9.3l-3.6,2.6v-5.2l-5.9-4.1l-10.1-2.3l-7.2-7l-2.3,1.6L742.2,389.4z"/>
<path id="path10743" class="st0" d="M705.3,396.6h4.1l3.1-4.4l-3.6-3.9l-2.1,1.6L705.3,396.6z"/>
<path id="path11630" class="st0" d="M937.4,228.5l-1.6,0.8l6.7,12.1l-0.8,2.8l-0.8,3.4c0,0-2.3,4.1-2.3,5.4s4.1,5.9,4.7,7
	c0.5,1-1.3,3.6,0.5,4.4c1.8,0.8,3.1,3.6,3.1,4.9c0,1.3,2.8,2.1,3.4,4.1c0.5,2.1,0,3.1,1.8,4.9c1.8,1.8,2.6,2.1,3.9,0.3
	c1.3-1.8,3.9-3.4,3.1-6.2c-0.8-2.8,0.5-6.7-1.8-8c-2.3-1.3-2.3-3.9-1.6-5.4c0.8-1.6,3.4-2.6,2.1-4.4c-1.3-1.8-3.6-8.5-3.6-10.9
	c0-2.3-2.6-1.3-3.9-2.3c-1.3-1-4.4-7.2-4.9-9.3c-0.5-2.1-1.6-5.9-1.6-8c0-2.1-0.8-2.1-1.8-2.1c-1,0-1.8,1.6-1.8,1.6l-1.8,0.8
	l-0.8,2.1L937.4,228.5z"/>
<path id="path12517" class="st0" d="M977.2,252l5.9,6.2h3.4l-1.6-3.4l-2.6-3.4l1.3-7l0.3-8.5l1.8-2.8l5.4-1l-11.9-14.2l-3.4,1.3
	v18.3l-0.5,1.8l3.1,6.5L977.2,252z"/>
<path id="path14309" class="st0" d="M605.9,550.1l2.3-15.2c0,0-0.3-3.9,0.8-5.2c1-1.3,7.2-12.1,8-13.4c0.8-1.3,14.5-19.9,15.5-21.4
	c1-1.6,11.1-18.3,12.4-20.2c1.3-1.8,3.4-5.2,5.7-6.5c2.3-1.3,5.7-3.4,6.7-4.4s2.6-4.9,2.6-4.9l-5.9-2.6c0,0-1.6-3.6-0.5-5.2
	c1-1.6,3.9-4.4,5.2-6.7c1.3-2.3,2.1-4.9,2.1-4.9l6.7,3.4v2.8c0,0,3.6,0.8,4.7,0c1-0.8,1.3-0.8,1.3-0.8s3.1-2.3,4.4-3.4
	c1.3-1,2.6-2.1,3.9-2.8c1.3-0.8,11.4-12.7,11.4-12.7s5.4-6.7,5.9-7.8c0.5-1,0.5-1.6,2.1-2.6c1.6-1,8.8-7.2,8.8-7.2l7.5,2.3l-0.8,1.6
	l5.2,5.9l1.6-3.1l-1.3-0.8l3.1-2.3l9.6,7.8h2.1l2.6,3.6l-4.7,4.9l3.9,2.6l-1.3,2.1c0,0,4.9,3.1,5.4,4.1s5.2,4.7,5.2,4.7l-2.3,3.6
	l-0.3,3.4l2.8,0.5l-1.3,5.2l2.3,0.5l1.8-1.8l10.3-1l-2.3-15l22-3.4c0,0,2.3,0.5,4.7,2.1c2.3,1.6,29.7,19.9,29.7,19.9
	s1.8,0.8,0.3,2.6c-1.6,1.8-3.6,5.7-3.6,5.7l6.2,2.8l0.8,3.6c0,0-2.8-3.1-4.7-3.1c-1.8,0-3.4-0.3-5.4,0.5c-2.1,0.8-3.4,0.8-5.4,0.8
	s-2.6,0-2.6,0s6.5,10.6,8.3,12.1c1.8,1.6,6.5,6.5,8.5,7.2s6.7,0.5,7.8,1.3c1,0.8,3.4,0,4.4-0.8s3.6,0,5.4-1.8
	c1.8-1.8,4.1-5.2,4.9-6.2c0.8-1,1.6-1.8,3.9-3.9c2.3-2.1,3.9-3.4,3.9-3.4s-8.8,1.6-10.9-0.3c-2.1-1.8-3.4-2.3-4.4-2.8
	c-1-0.5-3.6-6.5-3.6-6.5l-0.3-5.2l-1.3-2.6h2.1l1-2.3l-0.8-2.1c0,0,1.6-3.6,2.1-5.9s0-3.4,0-3.4l-2.3-0.8l-1-3.1v-7.2H817l-0.3-1.8
	l-4.1-1.6l0.3-2.6l-2.8-2.6l4.7-1.6l2.8-2.3l2.3,0.3l2.8-2.6l1.6-4.9h-2.6l-0.8-2.1c0,0,2.6,0,1.6-1.8c-1-1.8-1-1.3-1-3.4
	c0-2.1-0.3-3.6-0.3-3.6l2.6-1.3c0,0,4.7,3.9,6.2,3.9c1.6,0,3.9-0.5,3.9-0.5l-0.5-2.6l8.8-2.3l0.3,2.1l2.8-0.5c0,0,0-4.1,1.3-5.2
	c1.3-1,2.6-1,2.6-1s1.8-0.3,2.8,1.8c1,2.1,2.6,9.8,2.6,9.8s1,1.8-0.3,2.3c-1.3,0.5-1.3,0.5-1.3,0.5l1.6,5.2c0,0,0.5-1,2.8,0.3
	c2.3,1.3,3.1,1.6,3.1,1.6l3.4-1v-2.8l2.8-4.1l1.6,0.3l3.1-2.3l0.8-5.9l-3.4-4.4l5.7-1v-1.6c0,0,4.4,1.3,5.4-0.3s3.4-4.9,3.4-4.9
	l4.7-3.6l13.4,10.1l1.6-1.8h1.8l4.4,3.6l2.3-1.3l4.7,1l0.8,1l3.6-1.8l1.3,1c0,0,5.9,0.5,9,1.3c3.1,0.8,6.7,2.6,7,4.1
	c0.3,1.6-1.3,6.7-1.3,6.7l5.4,3.4c0,0,18.9-0.5,19.9-0.5s2.8-2.6,3.1-4.4c0.3-1.8,0.8-5.7-0.5-5.9c-1.3-0.3-2.3-1.3-2.3-1.3
	s1-2.1,3.1-3.1c2.1-1,5.4-1,6.5-1c1,0,6.2,3.4,6.2,4.7s1,3.6,1.6,4.7c0.5,1,2.3,2.6,2.6,4.9c0.3,2.3,1.8,4.9,2.8,5.7
	s0.5,3.9,0.5,3.9l-2.8,0.3l-4.7,1.6l14,19.4l5.4,15.5l11.6,14.5l8.5,3.6l-2.1-10.3l-1.3-3.4l4.9-3.4l-3.6-9.8c0,0,0.5-5.4,1.6-7.8
	c1-2.3,4.1-7.2,4.1-7.2l3.1-1.8l97.4,79.3l3.4,34.6l-15.8,29.2l-6.5,2.3l-7,0.5l-15.5,4.9l-9.3,3.6l-6.2,3.6l5.2,17.6l2.8,12.9
	l1.6,82.7l-3.6,9l-1.6,23.8l1.6,2.3v3.9h-1.6v2.3l5.2,11.6l0.5,7.8l0.8,3.1v2.6l-10.3,5.7l-8.8,1.3l-13.4,5.9l-0.8,11.9l-1,1.8
	l1.3,2.6l-9.8,7.8h-2.8l-1,9l-16.3,6.5l-13.7,7.2l-5.4,7.2l-2.3,1l0.8,7.5l-4.7,5.4l5.4,1.8l1.3,9.8l-4.4,4.4l-14.5-2.3l-1-2.8
	l6.2-7.5l2.6-12.7l-2.6-3.6l-21.2-11.1l-1.6-2.3l-4.4-1.3l-4.4-5.4l-2.3,0.5l-3.4-4.4l-58.4-34.9h-8.3l-1,2.8l-5.9-5.9l-3.6-0.5
	l1.6,6.2l-8.5,0.3l-1.8-2.3l-2.8,0.8l2.1,9.8h-7v2.6l-2.8-2.8l-16.3,2.6l-4.4-4.1l-0.8-4.7l5.7-9l-1-1l-7,2.6l-3.4-0.3l-2.1-3.1
	l-1-3.4h-2.8l-3.9-6.5l-1.6,2.1l-5.2-8.8l7-3.6l4.7-0.5l-1.8-8.5l5.7-1.8l-4.4-20.2l-5.4,0.8l-3.4-19.6H802l-1.3-8.5l-3.9,0.8
	l-5.7-33.8l-10.1,2.3l-11.4,7.8l-9,9.3l-6.7,3.9l-3.4,5.2l-1.8-1.3l-4.4,2.8l-3.4-4.7l-3.9,7l-9.8-14h2.1l-2.8-7.8l0.8-2.1l-8.5-6.5
	l2.6-4.1l-14-10.3l2.3-3.1l-4.7-3.6l1.6-3.1l-19.4-14.7l2.3-3.1l-1.8-1.8l-1.6-5.9l-2.8-2.1l-1.3-4.7l3.1-3.4l-2.8-3.1v-4.4
	l-2.8-4.4l-4.7-11.9l-3.1-3.9l-10.1-2.8l-6.5-2.8l-3.6-3.6l-4.7-10.6l-20.2-9.3l-8.8,0.5L605.9,550.1z"/>
<path id="path15196" class="st0" d="M634.2,1043.9l15-5.1l34.7-10.2l14.6-1.8l9.1-2.9l1.1,2.6l55.5-19.7l13.2-5.8l-0.4-2.6l5.8,1.1
	c0,0,36.5-19.7,41.3-22.3c4.7-2.6,27.8-10.2,33.6-12.4c5.8-2.2,31.8-11.7,34.3-12.4c2.6-0.7,36.9-7.7,36.9-7.7l2.6-2.6
	c0,0,23.4-6.2,26.3-6.2c2.9,0,13.2,1.5,15,1.5c1.8,0,24.5-1.5,24.5-1.5s4.7-5.1,6.6-5.1s9.9-5.5,9.9-5.5l3.3,1.5l3.7-0.7l7.3,1.1
	l-1.1-5.1l0.4-17.2l-2.6-3.7l-1.9-1.2l-5.7-7l1-1l-5.2-10.6l-2.6,1l-3.1-1.6l-13.4,6.5v-2.1l-7.5-1.3h-2.8l-1-2.3l-1.8,1.3l-4.7-1.6
	l-1.3-3.9l-3.9-1.6l-7.2,0.8H959l-2.1,2.1l1,4.7h3.1l0.5,1.3l5.2,3.6l-1.6,2.1v6.2l-1.8,3.6l1.3,6.5l0.3,8.5l2.8,0.8l1.3,2.8l-7-1.3
	l-2.8,1l-2.3-2.6l-1.6-7.2l-2.1,0.3l-4.7,8.5l-2.6,1.6l-2.1,0.3l-2.8-3.6l3.6-3.9h2.8l5.9-6.5l2.1-8.8l2.8-2.6l-1.8-4.7l-2.1-2.8
	l-8-0.3l-2.8,2.6l-1.8,5.4l-5.9,4.7l2.6,4.4l-2.6,2.6l-3.9,6.5l-6.2,8l1,5.7l-2.8,1l-1.6-3.1l1.3-4.7l2.1-5.4l4.1-3.6l1.3-3.6
	l1.8-2.1l-2.1-2.1l-11.9,10.9l-2.3-0.3l-0.8,1.3l-12.4,0.8l-1.3-0.8h-4.7l-2.6,3.6l2.1,7l-2.6-0.5l-2.3-1.8l-4.7,6.7l-1.8-0.8
	l-0.5,1.8l0.5,1.6l-1.3,1.6l-5.2,2.3l-15,11.4l-1.8-2.1l-12.9,4.4l-0.3,3.1L834,958h-5.4l-1,1.6l-12.7,0.3l-5.9-1.6H805L783.3,974
	l-32.6,20.7L743,995l-3.9,1.6l-2.1-1.8l-7.8,1.8l-6.2-1.6l-5.7,4.4l-2.3,4.4l-5.7,2.1l-0.3,2.3l-3.9-1.3l-5.7,2.1l-6.7-1.3l-5.2-3.9
	h-3.6l-10.6,6.7l-5.7,1.6l-2.6-0.8l-3.6,1.6l-2.3-1.3c0,0-1.8,2.6-4.1,2.6c-2.3,0-5.9,1.8-8.3,2.3s-7.2,2.3-8.8,2.3
	c-1.6,0-2.1,1.8-2.8,3.1c-0.8,1.3-3.1,1.3-3.1,3.4c0,2.1,0,10.3,0,10.3L634.2,1043.9z"/>
<path id="path16083" class="st0" d="M944.6,876.1c0,0,0.8-2.8-1.3-3.6c-2.1-0.8-4.7-2.8-4.7-4.1c0-1.3,0.3-1.8-1.6-3.4
	c-1.8-1.6-3.1-2.8-1.8-3.6c1.3-0.8,1.3-1.6-0.5-1.6c-1.8,0-2.6-0.5-1.8-2.3c0.8-1.8,1.3-0.8-0.8-2.6c-2.1-1.8-2.6-2.6-4.4-3.4
	c-1.8-0.8-3.6,0.3-3.4-1c0.3-1.3,2.1-1.8,0-1.8s-7.8,2.1-7.8,2.1s-0.8,2.3-1,3.9c-0.3,1.6-2.1,3.4-3.6,6.2c-1.6,2.8,0,2.8-1.3,4.4
	c-1.3,1.6-2.1,1.6-2.6,3.6c-0.5,2.1-2.8,3.6-3.1,5.2c-0.3,1.6,0.8,2.1-0.3,3.1c-1,1-0.8,1.8-1.8,3.1c-1,1.3-2.6,2.8,0.5,2.8
	c3.1,0,7.2-0.3,9.3,1c2.1,1.3,6.7,5.4,6.7,5.4s0.5,5.9,1.8,5.7c1.3-0.3,8-9.3,10.6-9.8c2.6-0.5,4.9-2.3,4.9-2.3L944.6,876.1z"/>
<path id="path16970" class="st0" d="M897.3,902c0,0,5.4,1.3,6.5,1.3s6.2,0,8,0c1.8,0,5.9-3.6,5.4-5.2s-1.3-3.9-1-4.9
	s-3.1-4.9-4.4-5.4c-1.3-0.5-4.7-2.1-6.2-2.1c-1.6,0-4.1,0.8-5.7,1.8c-1.6,1-2.3,3.1-3.1,4.7c-0.8,1.6-0.8,2.8-0.5,3.9
	C896.5,897,897.5,902.5,897.3,902z"/>
<path id="path17857" class="st0" d="M896,877.2c0,0,3.4,1,4.4-0.5c1-1.6,2.8-5.9,2.8-8c0-2.1,0.8-4.1-0.3-5.4
	c-1-1.3-0.8-3.6-0.8-3.6s3.4,4.7,3.6,3.1c0.3-1.6,0-6.5,1.3-7.5c1.3-1,3.1-4.7,3.1-4.7s5.4-1.8,4.7-3.1c-0.8-1.3-1.8-0.5-3.9,0
	c-2.1,0.5-0.3-1.8,1-2.8c1.3-1,1-1.6,1-1.6l-3.6-2.3c0,0-0.8-0.8-3.1-0.8c-2.3,0-2.1,2.1-4.4,2.3c-2.3,0.3-1.3,1-3.1,2.3
	c-1.8,1.3-5.2,2.6-5.2,2.6l-3.1,4.7l0.3,2.8v2.1l3.9,8.8l-0.3,3.4l2.1,1.8L896,877.2z"/>
<path id="path18744" class="st0" d="M886.9,897.8l2.8-2.6l1.3-1.6l-0.3-3.9l-3.9,3.6V897.8z"/>
<path id="path19631" class="st0" d="M874.5,903.5l9-5.2l0.8,8l2.1,2.6c0,0-1.3,0-1.3,1.8c0,1.8,0.8,4.4-0.3,5.4
	c-1,1-2.6,1.8-2.6,1.8l-2.6-0.8l-2.1-3.9l-2.1-2.8L874.5,903.5z"/>
<path id="path20518" class="st0" d="M885.9,869.1l-2.3-5.9l-2.1-8l2.3-8.5c0,0-2.6-8.5-3.4-10.1c-0.8-1.6-4.9-5.9-4.9-5.9l-2.6-1
	c0,0-1.6,2.3-1.6,3.9c0,1.6,2.6,5.9,2.6,7s1,2.3,0.8,3.4c-0.3,1-0.3,3.4,0.8,3.4s2.8,2.3,2.1,3.6c-0.8,1.3,0,3.9,1,5.7
	c1,1.8,3.6,7.5,3.6,8.5c0,1,2.1,4.9,2.1,4.9L885.9,869.1z"/>
<path id="path21405" class="st0" d="M857,810.2l0.3,7.5l-6.2,2.8l-7-6.5l-3.9-1.3l-0.3,1.3l3.1,14.2l-2.8,10.9l-1.8,2.6l1.3,1.8
	l-2.6,2.6v4.7l-2.6,1.8l-1.6,9.3l2.1,6.5l-5.7-0.5l-1.8,3.9l6.2,4.7l-1.3,1.6l2.3,6.2l4.1-4.1l0.5-4.7l6.5-1.3l1.3,2.6l5.4,3.1
	l3.4-2.1l0.5,4.4l3.4,4.4l2.1,4.7l3.6,1.3l-5.4,5.9l0.8,1.6l0.3,7l-2.8,4.4v2.3l-3.6-0.3l-8.5,4.4l-4.7,0.5l-3.4,3.6l1,4.4
	c0,0,5.9,1.6,8.8,0.8c2.8-0.8,4.1-1,6.7-0.5s2.8,0.8,5.2-0.5c2.3-1.3,8.5-7,8.5-7s1.3-3.1,1.6-4.7c0.3-1.6,1.3-5.2,1.8-6.7
	c0.5-1.6,0.5-7.5,0.5-7.5l3.4-2.8l2.8-3.1l-1-4.9h-2.1l-1.3-5.2l-4.1-17.6l3.6-2.1l2.8-3.6V858c0,0-2.1-2.3-3.6-2.3
	c-1.6,0-3.9,2.8-3.9,2.8l-1.8-6.5c0,0,2.6,0.3,3.9,0.3c1.3,0,3.9,0.3,2.6-1.3c-1.3-1.6-3.6-3.9-3.6-5.4s1.8-2.6,0.8-5.2
	c-1-2.6-2.1-5.4-3.9-5.4c-1.8,0-3.1-1.6-3.1-1.6l-0.3-4.7c0,0,2.6-2.8,2.3-3.9s-1.6-3.4-1.6-3.4l-2.8-2.8l-1.6-7.5L857,810.2z"/>
<path id="path22292" class="st0" d="M816.7,934.5c0,0,2.6,0.8,3.9,0.5c1.3-0.3,3.4,0.5,3.9-0.5c0.5-1,1.3-3.6,2.6-3.6
	c1.3,0,3.4,0.3,1.8,2.6c-1.6,2.3-0.5,2.1,0,4.7c0.5,2.6,0.3,4.4,2.8,4.7c2.6,0.3,4.9,0.3,7.2,0.3c2.3,0,2.3-0.3,2.6-1.8
	c0.3-1.6-0.3-2.1,0.8-3.6c1-1.6,2.1-2.8,1.3-4.4c-0.8-1.6-1.6-2.8-3.6-2.8s-2.6-1-4.4-2.3c-1.8-1.3-0.8-1.8-2.1-3.6
	c-1.3-1.8-3.6-1.8-4.9-1.8c-1.3,0-3.1,1.3-4.9,1.8c-1.8,0.5-4.4,1.3-4.4,1.3s-0.8,2.8-2.6,4.9S816.4,935,816.7,934.5z"/>
<path id="path23179" class="st0" d="M835.5,900.7l2.8-0.3l8.5-2.3l-1.3-6.2l-3.9-4.7l-3.6,4.1L835,896L835.5,900.7z"/>
<path id="path24066" class="st0" d="M850,898.6l4.7-1l0.5-1.6l-1.3-3.6v-3.6L850,887l0.8,5.4l-1.3,4.7L850,898.6z"/>
<path id="path24953" class="st0" d="M877.1,881.3l1.8-3.1l-1-3.4l-4.4,2.3L877.1,881.3z"/>
<path id="path25840" class="st0" d="M583.9,587l12.1-6.4h8.8l20.1,9l4.8,10.6l4.2,4.2l6.9,3.1l8.8,1.8l3.5,4.2l4.6,12.1l2.7,4v4.4
	l2.7,3.1l-2.7,3.3l1.1,4.7l3.1,2.2l1.5,6.2l1.5,1.5l-2,2.9l19,14.6l-1.5,3.3l4.8,3.5l-2.2,3.5l13.7,10l-2.4,4.2l8.2,6.4l-0.4,2.2
	l2.2,7.3l-1.5,0.2l9.7,13.7l3.8-6.6l3.7,4.6l3.8-2.7l2,1.3l3.5-5.1l7.5-4l8.8-9.1l10.8-7.9l10-2l5.5,33.4l4.2-0.4l1.3,8.2l2.9,0.2
	l3.3,19.5l5.5-0.9l4.4,20.3l-5.8,1.8l1.8,8.4l-4,0.4l-7.7,4l3.5,5.5l-2.9,1.6c0,0,0,1.6,2,2.2c2,0.5,3.7,2.9,5.3,4.6
	s4.2,5.8,4.2,5.8s-1.5,3.1-2.2,3.5c-0.7,0.4,0.2,10,0.2,10l-10,2.6c0,0,0.2-3.7-1.5-3.7c-1.6,0-2.6,1.5-2.6,1.5s-2.7,0.7-4.4,0.7
	c-1.6,0-2.2,1.8-3.7,0.9s-1.6-1.6-2.7-1.6c-1.1,0-3.7,0-3.7,0l3.3,4.9l6,11.5l-0.5,2.6l-9.1,7.1l-4.9-2.6l-1.3,1.6v4.4l-2,0.9
	c0,0-0.5-4.9-1.8-3.5c-1.3,1.5-0.9,2.7-0.9,2.7l-7.9,9l1.3,1.8l-1.6,1.5l-1.8-0.7l-6.4,7.5c0,0-3.8,0.4-4.2,2
	c-0.4,1.6,0.5,4.2,0.2,5.5c-0.4,1.3-4,3.7-4,3.7s-8.4-2-10-2c-1.6,0-1.6,2.2-0.9,3.8c0.7,1.6,18.3,30.3,18.3,30.3l-2.6,2l-6-0.9
	l-13.5,9.1l-0.4,3.5l1.8,0.5l25.6-1.6l18.6,54.6l-2.6,7.1l-36.7,10.4l-11.9-10.2l-5.8-3.1l2.4-3.7l9.3,7.7l4.8-1.5l-0.2-5.1
	l-4.8-7.3l-0.7-3.3l-1.5-3.8l-4.6,1.1l-3.3,2.6l-2.4-0.7l-7.7,2l-2.6,3.1l-4-3.3c0,0-1.1,1.6-1.1,3.1c0,1.5,2.4,5.8,3.3,6.4
	s1.8,1.5,1.8,1.5l-1.5,2.6l-2.7,0.5l-3.8-2.6l-0.2,3.7l-25.8-8.8c0,0-3.1,0.9-4.9,1.8s-3.7,2.2-3.7,2.2l-0.5,3.5l0.4,12.8l-4.6,0.7
	l-2.7-0.7l-1.6,1.1l-34.7,4h-10.2l-60.5,10.6l-24.1-0.9l-10.4-5.7c0,0-7.1-0.7-8.4-1.8c-1.3-1.1-1.6-6.2-1.8-6.9
	c-0.2-0.7-1.5-3.8-0.9-4.9c0.5-1.1,5.8-5.1,7.5-5.3s5.3-1.1,5.3-1.1l0.5-1.8l2.9-0.4l2,1.5l-0.5,0.9l4.9-0.9l22.1,5.1l-0.4-2.2h1.6
	c0,0,1.5-2,0.7-3.1c-0.7-1.1-3.1-1.1-3.1-1.1l-1.8-1.5l2.6-4.9l-9.5,1.5l-8.8-2.6l0.5-2.6l-2.9,2l0.5-7.5l5.1-3.1l-1.5-2.4l1.1-0.2
	l-1.3-2.7l3.3-2.4l-1.5-1.6l-3.8,1.5l-1.5-1.6l5.1-4.9l-2.6-1.5l-2.6,0.4l-1.8-2l-2.2,2.4c0,0-0.7-4.4-3.1-5.5
	c-2.4-1.1-13.3-9.9-15.7-11.3c-2.4-1.5-5.3-2.7-7.5-2.7c-2.2,0-4,0.5-5.7-0.2c-1.6-0.7-0.2-2.2-3.5-2.7c-3.3-0.5-16.6-2.2-17.9-3.1
	c-1.3-0.9-9.7-7.1-9.7-7.1l-1.3,2.2h-1.8c0,0,1.8-6.9,0.9-7.1c-0.9-0.2-5.1-3.8-5.7-5.3c-0.5-1.5-2.7-7.5-3.3-9.3
	c-0.5-1.8-2.9-12.4-3.5-15.2c-0.5-2.7-1.3-9.5-1.1-11.9c0.2-2.4,1.1-11.3,1.8-12.4c0.7-1.1,8-21.9,8.4-23.2c0.4-1.3,2.6-4.7,2.6-4.7
	l-2-1.5l6.2-7.3l0.9-2.2l3.7,2l2.9-4.2l-3.1-2.4l4.2-4.9l6,3.1l2.7-3.5l-1.6-2.4l3.3-3.8l1.8,1.1l2.4-2.9l-5.3-4.2l13.9-15.3
	l2.9,2.2l6.4-4.6l-2.7-2l10.4-7.5l6.8,5.7l1.5-1.5l3.7,0.4l-4-3.8l-0.5-4.6l8.8,6.6l1.8-1.1l1.1-2.9l-6.9-4.7l5.1-2.7l3.3,2l3.7-2.9
	l-4.4-2.6l-4.6-0.4l-6.8,4l-2,0.9l2.2-9.9l-1.8-0.2l-11.5,15.5l-9.1,1.3l-3.5-3.1l-1.5-14.4l-1.8-0.9l1.1-1.5l3.8,2.2l1.6,14.8
	l7.5-1.3l2.7-8l-2.2-3.5l-10.8-7.7l-4.4-8l0.5-8.8l30.9-25l14.6-34.3l6.8-7.5h2.6l1.1,1.1l20.3-0.5c0,0,3.8-0.9,4.9-1.8
	c1.1-0.9,11-8.6,11-8.6l4,5.3l0.5-1.3l-0.4-4.9l5.7-19.2l3.1-3.8l4.9-11.3l3.7-5.1l-0.2-12.8l-2.2-7.5V587z"/>
<path id="path26727" class="st0" d="M791.9,834.3l19.6,1l1.3-4.7l4.7-3.1l2.8-10.9l-7.8-4.1L795,823.9L791.9,834.3z"/>
<path id="path27614" class="st0" d="M819,835.6l3.9-4.7l9-3.4l3.1,0.5l-0.3,3.9l-9.8,17.6L819,835.6z"/>
<path id="path28501" class="st0" d="M785.1,869.7l7.5-5.2l18.3-8l4.4,0.3l4.7-2.6l-3.1-5.9l-3.4-2.6l-5.4,1.6l4.4-8.5l-2.6-1
	l-3.1,3.9l-7-1.3l0.5,3.1l-3.9-1.3l-1.3-1.6l-3.1,2.1l-4.7,7.8l-2.3-2.6h-4.4l0.3,7.2l4.1-2.1l-1.6,12.4h-4.1l0.5,3.4L785.1,869.7z"
	/>
<path id="path29388" class="st0" d="M751,872.8l15.2-4.4l9.8-4.7l0.3-8.3l1.6-8.5l-4.1-5.7L757,852.9L751,872.8z"/>
<path id="path30275" class="st0" d="M830.4,879l-4.4,1.6l-7.8-3.9l1.3-5.4l2.3,0.8l-0.3-3.9l-5.4,1.6l-2.1,9.3l-2.1,3.1l1,9.6
	l-4.9,2.8l-1.8,3.1l8.3,8l11.4-5.4L830.4,879z"/>
<path id="path31162" class="st0" d="M795.5,898.9l4.4,0.8l8.8-10.9l0.3-12.7H804l-2.3,2.3l3.1,3.4h-6.5l0.3-7.8l-5.7-2.6l3.1,7.5
	l-3.4,1.6l-1.8,4.7l0.5,3.9l4.1,4.4V898.9z"/>
<path id="path32049" class="st0" d="M785.9,907.1l-7.8,5.7l15,12.9l9.8-4.1l1.8-6.5L785.9,907.1z"/>
<path id="path32936" class="st0" d="M769.9,933c0,0-0.5,0-1.8,0.8c-1.3,0.8-4.1,4.7-4.1,4.7l2.1,9.8l5.9-0.8l-5.7,8.8l3.6,11.6
	l3.6-2.1l8.3-13.7l0.5-7c0,0-2.8-7.2-3.9-7.5s-2.8-1.6-4.1-1.8C773,935.5,770.2,933.5,769.9,933z"/>
<path id="path33823" class="st0" d="M770.2,895.2v-6.5l-2.8-5.7l0.8-3.9l-2.8-2.3l0.3,8.5l2.6,3.1l-1.3,1.3L770.2,895.2z"/>
<path id="path34710" class="st0" d="M769.6,921.3l0.8-5.7l-1.6-1.3l-0.5-9.3l-1.6,0.3l-0.3,10.3l2.3,0.5l-0.8,3.9L769.6,921.3z"/>
<path id="path37371" class="st0" d="M276.4,556.9l-1.1,2.9l4,3.7l2.2-1.5c0,0,5.8,5.5,5.8,7.7c0,2.2,0.7,14.2,0.7,18.3
	s-0.4,21.2,0.4,23.7c0.7,2.6,4.4,9.1,4.4,9.1l3.7,6.2l-2.2,3.7l4-0.4l1.8,4l-1.5,4l4.7,5.5c0,0,1.1,6.6,2.6,8
	c1.5,1.5,5.5,4.7,6.9,7.7c1.5,2.9,4.4,4,4.4,4l5.8,5.1l-12.8,33.2c0,0-10.6,6.6-12.8,9.5c-2.2,2.9-6.2,11.3-8,12.8s-8.4,6.6-11,8.8
	c-2.6,2.2-1.1,5.1-4,6.9c-2.9,1.8-19,17.5-21.2,20.1c-2.2,2.6-3.7,4-6.9,7.3c-3.3,3.3-6.6,11-6.6,11l-6.6,8.8h-5.5l-9.1,16.4l-4-1.5
	c0,0-3.3,3.3-6.2,6.2c-2.9,2.9-5.8,8.4-7.3,10.6c-1.5,2.2-1.8,3.3-3.3,3.3c-1.5,0-3.7,1.8-4.4,3.7c-0.7,1.8-2.2,1.8-4.7,2.9
	c-2.6,1.1-4.7,1.5-4.7,1.5l-23.4,28.5l-7.3,4.4l-1.5-3.3l-4-5.8l1.1-5.5h11.3l10.6-13.2l1.5-5.5l-3.3-6.6l-5.8-2.9l-6.9,0.4v2.6
	l-7.3,1.1l-0.7,2.6l1.1,2.2l-4,1.1c0,0,0,5.8,0.4,8.4c0.4,2.6,0,5.8,0,5.8l-3.7,0.4l-1.1,3.3l-2.9,2.2l-0.4,2.9l-7.7,3.7l-40.2,25.9
	L85,882l-10.6,8H70l-2.6-1.5H63v2.9l-5.8,1.8l-10.6,15l-2.9,1.8l1.1,3.3l-6.9,1.8l-2.9-2.6l-4.7-2.2l-0.7-2.6h-8.8l-10.2,5.5l-0.7,4
	l-4.4,4.4l-4.7,3.7l-3.3,6.6c0,0-6.2,2.9-9.9,2.9c-3.7,0-3.3,1.1-5.1,2.2c-1.8,1.1-3.7-1.8-8.4-1.8s-14.2,2.6-16.1,5.8
	c-1.8,3.3-1.1,4.4-5.5,6.6c-4.4,2.2-5.8,2.6-8.8,2.6c-2.9,0-3.7,0-5.8,0c-2.2,0-6.2,0.4-8-1.8c-1.8-2.2-3.3-6.2-4.7-8.4
	c-1.5-2.2-5.5-11.3-5.5-13.5c0-2.2-2.2-7.7,0-8.8c2.2-1.1,4.7-3.7,4.7-6.6c0-2.9,1.5-5.8,1.5-5.8l0.4-1.8l8.8-6.2h2.9l2.2-4.4
	l3.7-0.7l1.5,0.7l2.6-1.8l-4-8l1.8-2.6l-2.9-5.5l4.7-15l-1.1-5.8v-2.9l-3.7-4.4l-4-0.7V844l2.6-3.3l-4-10.2l-2.6-2.2l3.3-5.5
	l5.8-6.2l2.9,1.8l10.2-8.8l1.8-4.4l4.4-1.1l9.9-9.9h6.2l5.1,1.5l1.8,1.5l9.9,1.5l3.7-3.3l3.3-1.1l5.5-10.6l-0.7-6.6
	c0,0,4.4-17.9,5.1-19.4c0.7-1.5,1.5-5.1,4.7-4.8c3.3,0.4,6.9,1.5,8.8,0.4c1.8-1.1,6.2-5.1,6.2-5.1l1.1-11l9.1,3.3c0,0,0,2.6,2.2,2.6
	c2.2,0,4.4-1.1,4.4-1.1l-0.4-2.2h-4l-5.1-5.8l-8.8,1.5c0,0,1.1,1.1-0.4,2.9S28,748.7,28,748.7l-13.5,2.2l3.7-20.1l1.5-1.8l1.5-11
	l-1.8-5.1l1.8-5.1c0,0,8-9.5,10.2-12.4s3.3-6.9,3.3-6.9s0.7-8.4,1.5-9.9c0.7-1.5,1.8-1.8,1.1-4c-0.7-2.2-2.9-7.7-2.9-7.7l-1.1,1.8
	l0.7,4l-2.2,4.7l-5.5-8.8l-3.7-2.9l0.7-19.4l3.3-1.8c0,0,0.7,1.8,2.6,1.8c1.8,0,3.3-0.4,3.3-0.4s2.6,1.1,1.1,3.7
	c-1.5,2.6-2.6,5.5-3.7,7.7c-1.1,2.2,1.1,7.7,1.1,7.7s0.4-1.8,1.5-3.7c1.1-1.8,2.2-5.5,2.2-5.5l2.9-9.9h1.8l-3.3-6.6h-3.3l-5.5-1.8
	l-1.5-5.8l0.4-4.4L25,619c0,0,2.9-13.2,3.7-16.1c0.7-2.9,0-3.3,3.7-6.6c3.7-3.3,6.6-6.9,7.7-9.5c1.1-2.6,2.6-6.6,5.1-8.4
	s5.5-6.2,5.5-6.2l2.9,4l-0.4-5.1l4.7-4l2.2,1.8l1.1-2.6h5.1l1.5-1.8l2.9,0.4l-1.1,5.1l1.8,1.1l2.9-2.9l1.8,1.1l1.1-4.7l5.1,1.5
	l2.9,4v3.3l2.9,1.8v-1.8l4.4,1.1l4.4,0.4v-3.7l2.6,3.7h3.3l2.9,2.9c0,0,5.8,1.1,9.1,1.5c3.3,0.4,3.3,1.8,3.3,1.8l1.5,3.3l4-0.4
	l-1.5-3.7l3.7,1.5l1.5,3.3l2.6-0.7V581l7.3-0.4l1.8,1.5l1.8-2.6h1.8l0.4-2.6l3.7,2.2c0,0,0-2.2,2.2-2.6c2.2-0.4,2.9-2.6,2.9-2.6
	s4-0.7,6.2-0.7c2.2,0,4.7,0.7,4.7,0.7l6.6,0.4c0,0,3.3,1.5,3.3,2.9c0,1.5,8,0.7,8,0.7l5.8-2.9l-0.4-2.6l4.4-0.7l9.5-4.8l3.3-0.4
	l2.6-2.2l16.8-1.5l5.8,1.8l0.7-2.2l9.1,0.4l6.9-4c0,0,4-4,6.6-4c2.6,0,9.5,0.7,11.7,0.7c2.2,0,5.1-2.2,5.1-2.2s2.6,2.2,4,2.2
	C274.2,555.8,276.1,556.9,276.4,556.9z"/>
</svg>
